# This file uses centimeters as units for non-parametric coordinates.

g default
v -17.692999 17.502762 -7.009220
v 17.989265 17.502762 -7.009220
v -17.692999 18.152014 -7.009220
v 17.989265 18.152014 -7.009220
v -18.079992 18.441191 -7.343159
v 18.376247 18.441191 -7.343159
v -18.079992 18.754301 -7.343159
v 18.376247 18.754301 -7.343159
v -0.556086 21.800995 -7.515907
v 0.852354 21.800995 -7.515907
v -15.917488 18.935020 -7.515907
v 16.213730 18.935020 -7.515907
v 0.768810 21.620272 -7.515907
v -0.472542 21.620272 -7.515907
v -15.917488 18.935020 -6.323994
v 16.213730 18.935020 -6.323994
v 0.768810 21.620272 -6.323994
v -0.472542 21.620272 -6.323994
v -0.556086 22.193764 -7.515907
v 0.852354 22.193764 -7.515907
v 18.820047 19.147074 -7.515907
v -18.523800 19.147074 -7.515907
v -17.692999 17.502762 -1.567406
v 17.989269 17.502762 -1.567406
v -17.692999 18.152014 -1.567406
v 17.989269 18.152014 -1.567406
v -18.079992 18.441191 -1.060722
v 18.376270 18.441191 -1.060722
v -18.079992 18.754301 -1.060722
v 18.376270 18.754301 -1.060722
v -0.556082 21.800995 -1.060722
v 0.852354 21.800995 -1.060722
v -15.917484 18.935020 -1.060722
v 16.213734 18.935020 -1.060722
v 0.768810 21.620272 -1.060722
v -0.472538 21.620272 -1.060722
v -15.917484 18.935020 -3.064720
v 16.213734 18.935020 -3.064720
v 0.768810 21.620272 -3.064720
v -0.472538 21.620272 -3.064720
v -0.556082 22.193764 -1.416458
v 0.852354 22.193764 -1.416458
v 18.820051 19.147074 -1.416458
v -18.523800 19.147074 -1.416458
v -17.435064 17.177242 -1.971106
v -17.435064 17.177242 -6.605503
v 17.731314 17.177242 -6.605503
v 17.731318 17.177242 -1.971106
v -17.435064 15.786640 -1.971106
v -17.435064 15.786640 -6.605503
v 17.731314 15.786640 -6.605503
v 17.731318 15.786640 -1.971106
v -17.783113 15.539013 -1.762442
v -17.783113 15.539013 -6.814157
v 18.079370 15.539013 -6.814157
v 18.079372 15.539013 -1.762442
v -17.792833 15.175129 -1.844664
v -17.792833 15.175129 -6.731936
v 18.089085 15.175129 -6.731936
v 18.089088 15.175129 -1.844664
vt 0.447459 0.045807
vt 0.764084 0.318510
vt 0.464601 0.981068
vt 0.447459 0.981068
vt 0.435797 0.031715
vt 0.435797 0.994111
vt 0.424567 0.031715
vt 0.424567 0.994111
vt 0.995256 0.522963
vt 0.911684 1.003646
vt 0.248926 0.109745
vt 0.911684 0.003646
vt 0.217009 0.970160
vt 0.255556 0.212325
vt 0.184685 0.239252
vt 0.180861 0.053121
vt 0.176653 0.019507
vt 0.212587 0.055888
vt 0.180861 0.014795
vt 0.667368 0.121096
vt 0.628966 0.981019
vt 0.638257 0.991318
vt 0.646570 0.991340
vt 0.341533 0.285714
vt 0.212587 0.012029
vt 0.405902 0.055888
vt 0.324973 0.762178
vt 0.649092 0.023382
vt 0.640778 0.023361
vt 0.631434 0.033612
vt 0.614196 0.033567
vt 0.739887 0.168359
vt 0.297289 0.978747
vt 0.817544 0.530791
vt 0.817544 0.491494
vt 0.905317 0.010925
vt 0.342543 0.693930
vt 0.318926 0.094576
vt 0.405902 0.012029
vt 0.439267 0.050579
vt 0.439572 0.013565
vt 0.363017 0.764623
vt 0.810658 0.160075
vt 0.533424 0.987819
vt 0.820757 0.313567
vt 0.551044 0.030752
vt 0.478294 0.981067
vt 0.751099 0.157223
vt 0.773279 0.309913
vt 0.604566 0.040391
vt 0.515018 0.981068
vt 0.789033 0.156843
vt 0.803585 0.310491
vt 0.567644 0.040295
vt 0.523571 0.987819
vt 0.800745 0.162424
vt 0.812819 0.315201
vt 0.560743 0.031035
vt 0.213356 0.951626
vt 0.176362 0.015021
vt 0.180078 0.501582
vt 0.017231 0.502826
vt 0.013515 0.016265
vt 0.182552 0.992846
vt 0.020143 0.992846
vt 0.177928 0.507592
vt 0.015519 0.507592
vt 0.533424 0.040353
vt 0.809311 0.026581
vt 0.523571 0.040353
vt 0.799344 0.024444
vt 0.515018 0.045807
vt 0.787729 0.030272
vt 0.478294 0.045807
vt 0.749719 0.030699
vt 0.464601 0.045807
vt 0.738250 0.019802
vt 0.424567 0.936890
vt 0.217009 0.109745
vt 0.424567 0.088683
vt 0.186768 0.852671
vt 0.704818 0.136630
vt 0.267447 0.106093
vt 0.691792 0.127312
vt 0.732624 0.325163
vt 0.739404 0.325293
vt 0.749988 0.318240
vt 0.439573 0.054352
vt 0.333610 0.273734
vt 0.267447 0.981855
vt 0.344123 0.763119
vt 0.322530 0.272023
vt 0.207350 0.238543
vt 0.289120 0.981855
vt 0.289120 0.087927
vt 0.683349 0.126645
vt 0.257805 0.982724
vt 0.719728 0.328670
vt 0.194984 0.937228
vt 0.192219 0.241235
vt 0.176653 0.048409
vt 0.995256 0.484329
vt 0.248926 0.970160
vt 0.651518 0.933935
vt 0.318926 0.978747
vt 0.297289 0.094576
vt 0.905317 1.011359
vt 0.822252 0.207404
vt 0.814382 0.205467
vt 0.805064 0.209822
vt 0.774949 0.209244
vt 0.766104 0.200302
vt 0.751988 0.200032
vt 0.741647 0.188825
vt 0.734825 0.188695
vt 0.721790 0.196176
vt 0.667355 0.272500
vt 0.683335 0.282592
vt 0.691778 0.283258
vt 0.704806 0.271710
vt 0.720515 0.019994
vt 0.338771 0.272306
vt 0.653741 0.080813
vt 0.337890 0.752111
vt 0.439266 0.017338
vt 0.357933 0.762412
vt 0.548563 0.983460
vt 0.558263 0.983227
vt 0.565212 0.974004
vt 0.602134 0.974100
vt 0.611728 0.980974
vt 0.362100 0.350990
vt 0.356883 0.293444
vt 0.722165 0.168544
vn -0.000000 0.000000 -1.000000
vn -0.000000 0.000000 -1.000000
vn -0.000000 0.000000 -1.000000
vn -0.000000 0.000000 -1.000000
vn -0.000000 -0.868507 -0.495677
vn -0.000000 -0.868507 -0.495677
vn -0.000000 -0.868507 -0.495677
vn -0.000000 -0.868507 -0.495677
vn -0.000000 0.000000 -1.000000
vn -0.000000 0.000000 -1.000000
vn -0.000000 0.000000 -1.000000
vn -0.000000 0.000000 -1.000000
vn -0.000000 0.000000 -1.000000
vn -0.000000 0.000000 -1.000000
vn -0.000000 0.000000 -1.000000
vn -0.000000 0.000000 -1.000000
vn -0.000000 0.000000 -1.000000
vn -0.000000 0.000000 -1.000000
vn -0.000000 0.000000 -1.000000
vn -0.000000 0.000000 -1.000000
vn 0.000005 0.000000 -1.000000
vn 0.000005 0.000000 -1.000000
vn 0.000005 0.000000 -1.000000
vn 0.000005 0.000000 -1.000000
vn -0.000000 0.000000 -1.000000
vn -0.000000 0.000000 -1.000000
vn -0.000000 0.000000 -1.000000
vn -0.000000 0.000000 -1.000000
vn -0.000005 0.000000 -1.000000
vn -0.000005 0.000000 -1.000000
vn -0.000005 0.000000 -1.000000
vn -0.000005 0.000000 -1.000000
vn -0.000000 1.000000 -0.000000
vn -0.000000 1.000000 -0.000000
vn -0.000000 1.000000 -0.000000
vn -0.000000 1.000000 -0.000000
vn -0.000000 0.000000 -1.000000
vn -0.000000 0.000000 -1.000000
vn -0.000000 0.000000 -1.000000
vn -0.000000 0.000000 -1.000000
vn -0.000000 0.000000 -1.000000
vn -0.000000 0.000000 -1.000000
vn -0.000000 0.000000 -1.000000
vn -0.000000 0.000000 -1.000000
vn -0.000000 0.000000 -1.000000
vn -0.000000 0.000000 -1.000000
vn -0.000000 0.000000 -1.000000
vn -0.000000 0.000000 -1.000000
vn -0.598585 -0.801059 0.000000
vn -0.598585 -0.801059 0.000000
vn -0.598585 -0.801059 0.000000
vn -0.598585 -0.801059 0.000000
vn -1.000000 0.000000 0.000000
vn -1.000000 0.000000 0.000000
vn -1.000000 0.000000 0.000000
vn -1.000000 0.000000 0.000000
vn -0.662743 -0.748847 0.000000
vn -0.662743 -0.748847 0.000000
vn -0.662743 -0.748847 0.000000
vn -0.662743 -0.748847 0.000000
vn -0.167178 0.985927 0.000000
vn -0.167178 0.985927 0.000000
vn -0.167178 0.985927 0.000000
vn -0.167178 0.985927 0.000000
vn -0.000000 1.000000 -0.000000
vn -0.000000 1.000000 -0.000000
vn -0.000000 1.000000 -0.000000
vn -0.000000 1.000000 -0.000000
vn 0.167179 0.985927 -0.000000
vn 0.167179 0.985927 -0.000000
vn 0.167179 0.985927 -0.000000
vn 0.167179 0.985927 -0.000000
vn 0.662748 -0.748842 -0.000000
vn 0.662748 -0.748842 -0.000000
vn 0.662748 -0.748842 -0.000000
vn 0.662748 -0.748842 -0.000000
vn 1.000000 0.000000 -0.000000
vn 1.000000 0.000000 -0.000000
vn 1.000000 0.000000 -0.000000
vn 1.000000 0.000000 -0.000000
vn 0.598577 -0.801065 -0.000000
vn 0.598577 -0.801065 -0.000000
vn 0.598577 -0.801065 -0.000000
vn 0.598577 -0.801065 -0.000000
vn 1.000000 0.000000 -0.000001
vn 1.000000 0.000000 -0.000001
vn 1.000000 0.000000 -0.000001
vn 1.000000 0.000000 -0.000001
vn -1.000000 0.000000 0.000000
vn -1.000000 0.000000 0.000000
vn -1.000000 0.000000 0.000000
vn -1.000000 0.000000 0.000000
vn 0.000000 0.000000 1.000000
vn 0.000000 0.000000 1.000000
vn 0.000000 0.000000 1.000000
vn 0.000000 0.000000 1.000000
vn 0.000000 -0.868507 0.495676
vn 0.000000 -0.868507 0.495676
vn 0.000000 -0.868507 0.495678
vn 0.000000 -0.868507 0.495678
vn 0.000000 0.000000 1.000000
vn 0.000000 0.000000 1.000000
vn 0.000000 0.000000 1.000000
vn 0.000000 0.000000 1.000000
vn 0.000000 0.000000 1.000000
vn 0.000000 0.000000 1.000000
vn 0.000000 0.000000 1.000000
vn 0.000000 0.000000 1.000000
vn 0.000000 0.000000 1.000000
vn 0.000000 0.000000 1.000000
vn 0.000000 0.000000 1.000000
vn 0.000000 0.000000 1.000000
vn -0.000005 0.000000 1.000000
vn -0.000005 0.000000 1.000000
vn -0.000005 0.000000 1.000000
vn -0.000005 0.000000 1.000000
vn 0.000000 0.000000 1.000000
vn 0.000000 0.000000 1.000000
vn 0.000000 0.000000 1.000000
vn 0.000000 0.000000 1.000000
vn 0.000005 0.000000 1.000000
vn 0.000005 0.000000 1.000000
vn 0.000005 0.000000 1.000000
vn 0.000005 0.000000 1.000000
vn -0.000000 1.000000 -0.000000
vn -0.000000 1.000000 -0.000000
vn -0.000000 1.000000 -0.000000
vn -0.000000 1.000000 -0.000000
vn 0.000000 0.000000 1.000000
vn 0.000000 0.000000 1.000000
vn 0.000000 0.000000 1.000000
vn 0.000000 0.000000 1.000000
vn 0.000000 0.000000 1.000000
vn 0.000000 0.000000 1.000000
vn 0.000000 0.000000 1.000000
vn 0.000000 0.000000 1.000000
vn 0.000000 0.000000 1.000000
vn 0.000000 0.000000 1.000000
vn 0.000000 0.000000 1.000000
vn 0.000000 0.000000 1.000000
vn -0.783774 -0.621046 0.000000
vn -0.783774 -0.621046 0.000000
vn -0.783774 -0.621046 0.000000
vn -0.783774 -0.621046 0.000000
vn 0.000000 -0.778468 -0.627684
vn 0.000000 -0.778468 -0.627684
vn 0.000000 -0.778468 -0.627684
vn 0.000000 -0.778468 -0.627684
vn 0.783754 -0.621072 -0.000001
vn 0.783754 -0.621072 -0.000001
vn 0.783754 -0.621072 -0.000001
vn 0.783754 -0.621072 -0.000001
vn 0.000000 -0.778457 0.627698
vn 0.000000 -0.778457 0.627698
vn 0.000000 -0.778457 0.627698
vn 0.000000 -0.778457 0.627698
vn -1.000000 0.000000 0.000000
vn -1.000000 0.000000 0.000000
vn -1.000000 0.000000 0.000000
vn -1.000000 0.000000 0.000000
vn 0.000000 0.000000 -1.000000
vn 0.000000 0.000000 -1.000000
vn 0.000000 0.000000 -1.000000
vn 0.000000 0.000000 -1.000000
vn 1.000000 0.000000 -0.000001
vn 1.000000 0.000000 -0.000001
vn 1.000000 0.000000 -0.000001
vn 1.000000 0.000000 -0.000001
vn 0.000000 0.000000 1.000000
vn 0.000000 0.000000 1.000000
vn 0.000000 0.000000 1.000000
vn 0.000000 0.000000 1.000000
vn -0.579720 0.814816 0.000000
vn -0.579720 0.814816 0.000000
vn -0.579720 0.814816 0.000000
vn -0.579720 0.814816 0.000000
vn 0.000000 0.644365 -0.764718
vn 0.000000 0.644365 -0.764718
vn 0.000000 0.644365 -0.764718
vn 0.000000 0.644365 -0.764718
vn 0.579710 0.814823 -0.000000
vn 0.579710 0.814823 -0.000000
vn 0.579710 0.814823 -0.000000
vn 0.579710 0.814823 -0.000000
vn 0.000000 0.644382 0.764704
vn 0.000000 0.644382 0.764704
vn 0.000000 0.644382 0.764704
vn 0.000000 0.644382 0.764704
vn -0.999644 0.026701 0.000000
vn -0.999644 0.026701 0.000000
vn -0.999644 0.026701 0.000000
vn -0.999644 0.026701 0.000000
vn 0.000000 -0.220401 -0.975409
vn 0.000000 -0.220401 -0.975409
vn 0.000000 -0.220401 -0.975409
vn 0.000000 -0.220401 -0.975409
vn 0.999644 0.026683 -0.000001
vn 0.999644 0.026683 -0.000001
vn 0.999644 0.026683 -0.000001
vn 0.999644 0.026683 -0.000001
vn 0.000000 -0.220399 0.975410
vn 0.000000 -0.220399 0.975410
vn 0.000000 -0.220399 0.975410
vn 0.000000 -0.220399 0.975410
s off
g polySurface3
f 4/1/1 2/76/2 1/3/3 3/4/4
f 6/5/5 4/1/6 3/4/7 5/6/8
f 8/7/9 6/5/10 5/6/11 7/8/12
f 17/9/13 16/10/14 15/12/15 18/102/16
f 12/80/17 8/7/18 7/8/19 11/78/20
f 8/99/21 12/81/22 13/15/23 10/100/24
f 10/16/25 13/101/26 14/17/27 9/19/28
f 9/90/29 14/97/30 11/14/31 7/83/32
f 16/103/33 12/13/34 11/79/35 15/11/36
f 20/18/37 10/16/38 9/19/39 19/25/40
f 10/100/41 20/93/42 21/59/43 8/99/44
f 7/83/45 22/95/46 19/94/47 9/90/48
f 5/84/49 3/82/50 25/120/51 27/119/52
f 7/96/53 5/84/54 27/119/55 29/118/56
f 22/20/57 7/96/58 29/118/59 44/117/60
f 19/65/61 22/67/62 44/66/63 41/64/64
f 42/26/65 20/18/66 19/25/67 41/39/68
f 21/60/69 20/61/70 42/62/71 43/63/72
f 8/85/73 21/98/74 43/116/75 30/115/76
f 6/86/77 8/85/78 30/115/79 28/114/80
f 4/87/81 6/86/82 28/114/83 26/113/84
f 2/2/85 4/87/86 26/113/87 24/112/88
f 3/121/89 1/77/90 23/32/91 25/134/92
f 24/31/93 26/30/94 25/21/95 23/131/96
f 26/30/97 28/29/98 27/22/99 25/21/100
f 28/29/101 30/28/102 29/23/103 27/22/104
f 38/107/105 39/34/106 40/35/107 37/36/108
f 30/28/109 34/123/110 33/104/111 29/23/112
f 30/124/113 32/89/114 35/122/115 34/37/116
f 35/40/117 32/88/118 31/41/119 36/125/120
f 31/126/121 29/133/122 33/132/123 36/42/124
f 34/105/125 38/33/126 37/106/127 33/38/128
f 32/88/129 42/26/130 41/39/131 31/41/132
f 32/89/133 30/124/134 43/27/135 42/92/136
f 29/133/137 31/126/138 41/91/139 44/24/140
f 23/32/141 1/77/142 46/75/143 45/48/144
f 46/47/145 1/3/146 2/76/147 47/74/148
f 2/2/149 24/112/150 48/111/151 47/49/152
f 48/50/153 24/31/154 23/131/155 45/130/156
f 45/48/157 46/75/158 50/73/159 49/52/160
f 50/51/161 46/47/162 47/74/163 51/72/164
f 47/49/165 48/111/166 52/110/167 51/53/168
f 52/54/169 48/50/170 45/130/171 49/129/172
f 49/52/173 50/73/174 54/71/175 53/56/176
f 54/55/177 50/51/178 51/72/179 55/70/180
f 51/53/181 52/110/182 56/109/183 55/57/184
f 56/58/185 52/54/186 49/129/187 53/128/188
f 53/56/189 54/71/190 58/69/191 57/43/192
f 58/44/193 54/55/194 55/70/195 59/68/196
f 55/57/197 56/109/198 60/108/199 59/45/200
f 57/127/201 60/46/202 56/58/203 53/128/204
