# Blender v2.90.0 OBJ File: 'ArtAssets.blend'
# www.blender.org
mtllib _ntryroof.mtl
o _ntryroof
v 17.989265 18.152014 -7.009217
v 17.989265 17.502762 -7.009217
v -17.692999 17.502762 -7.009217
v -17.692999 18.152014 -7.009217
v 18.376247 18.441191 -7.343156
v -18.079992 18.441191 -7.343156
v 18.376247 18.754301 -7.343156
v -18.079992 18.754301 -7.343156
v 0.768810 21.620272 -6.323991
v 16.213730 18.935020 -6.323991
v -15.917488 18.935020 -6.323991
v -0.472542 21.620272 -6.323991
v 16.213730 18.935020 -7.515904
v -15.917488 18.935020 -7.515904
v 0.768810 21.620272 -7.515903
v 0.852354 21.800995 -7.515903
v -0.472542 21.620272 -7.515903
v -0.556086 21.800995 -7.515903
v 0.852354 22.193764 -7.515903
v -0.556086 22.193764 -7.515903
v 18.820047 19.147074 -7.515904
v -18.523800 19.147074 -7.515904
v -17.692999 18.152014 -1.567403
v -18.079992 18.441191 -1.060719
v -18.079992 18.754301 -1.060719
v -18.523800 19.147074 -1.416455
v -0.556082 22.193764 -1.416455
v 0.852354 22.193764 -1.416455
v 18.820051 19.147074 -1.416455
v 18.376270 18.754301 -1.060719
v 18.376270 18.441191 -1.060719
v 17.989269 18.152014 -1.567403
v 17.989269 17.502762 -1.567404
v -17.692999 17.502762 -1.567404
v 16.213734 18.935020 -3.064717
v 0.768810 21.620272 -3.064717
v -0.472538 21.620272 -3.064717
v -15.917484 18.935020 -3.064717
v 16.213734 18.935020 -1.060719
v -15.917484 18.935020 -1.060719
v 0.852354 21.800995 -1.060719
v 0.768810 21.620272 -1.060719
v -0.556082 21.800995 -1.060719
v -0.472538 21.620272 -1.060719
v -17.435064 17.177242 -6.605500
v -17.435064 17.177242 -1.971103
v 17.731314 17.177242 -6.605500
v 17.731318 17.177242 -1.971103
v -17.435064 15.786640 -6.605501
v -17.435064 15.786640 -1.971104
v 17.731314 15.786640 -6.605501
v 17.731318 15.786640 -1.971104
v -17.783113 15.539013 -6.814155
v -17.783113 15.539013 -1.762440
v 18.079370 15.539013 -6.814155
v 18.079372 15.539013 -1.762440
v -17.792833 15.175129 -6.731934
v -17.792833 15.175129 -1.844662
v 18.089085 15.175129 -6.731934
v 18.089088 15.175129 -1.844662
vt 0.447459 0.045807
vt 0.464601 0.045807
vt 0.464601 0.981068
vt 0.447459 0.981068
vt 0.435797 0.031715
vt 0.435797 0.994111
vt 0.424567 0.031715
vt 0.424567 0.994111
vt 0.995256 0.522963
vt 0.911684 1.003646
vt 0.911684 0.003646
vt 0.995256 0.484329
vt 0.424567 0.088683
vt 0.424567 0.936890
vt 0.194984 0.937228
vt 0.186768 0.852671
vt 0.184685 0.239252
vt 0.192219 0.241235
vt 0.180861 0.053121
vt 0.176653 0.048409
vt 0.176653 0.019507
vt 0.180861 0.014795
vt 0.267447 0.981855
vt 0.257805 0.982724
vt 0.255556 0.212325
vt 0.267447 0.106093
vt 0.248926 0.970160
vt 0.217009 0.970160
vt 0.217009 0.109745
vt 0.248926 0.109745
vt 0.212587 0.055888
vt 0.212587 0.012029
vt 0.207350 0.238543
vt 0.213356 0.951626
vt 0.289120 0.087927
vt 0.289120 0.981855
vt 0.691792 0.127312
vt 0.704818 0.136630
vt 0.704806 0.271710
vt 0.691778 0.283258
vt 0.683349 0.126645
vt 0.683335 0.282592
vt 0.667368 0.121096
vt 0.667355 0.272500
vt 0.020143 0.992846
vt 0.015519 0.507592
vt 0.177928 0.507592
vt 0.182552 0.992846
vt 0.405902 0.055888
vt 0.405902 0.012029
vt 0.176362 0.015021
vt 0.180078 0.501582
vt 0.017231 0.502826
vt 0.013515 0.016265
vt 0.732624 0.325163
vt 0.719728 0.328670
vt 0.721790 0.196176
vt 0.734825 0.188695
vt 0.739404 0.325293
vt 0.741647 0.188825
vt 0.749988 0.318240
vt 0.751988 0.200032
vt 0.764084 0.318510
vt 0.766104 0.200302
vt 0.720515 0.019994
vt 0.738250 0.019802
vt 0.739887 0.168359
vt 0.722165 0.168544
vt 0.614196 0.033567
vt 0.631434 0.033612
vt 0.628966 0.981019
vt 0.611728 0.980974
vt 0.640778 0.023361
vt 0.638257 0.991318
vt 0.649092 0.023382
vt 0.646570 0.991340
vt 0.905317 1.011359
vt 0.817544 0.530791
vt 0.817544 0.491494
vt 0.905317 0.010925
vt 0.653741 0.080813
vt 0.651518 0.933935
vt 0.337890 0.752111
vt 0.333610 0.273734
vt 0.338771 0.272306
vt 0.342543 0.693930
vt 0.439267 0.050579
vt 0.439573 0.054352
vt 0.439572 0.013565
vt 0.439266 0.017338
vt 0.357933 0.762412
vt 0.356883 0.293444
vt 0.362100 0.350990
vt 0.363017 0.764623
vt 0.318926 0.978747
vt 0.297289 0.978747
vt 0.297289 0.094576
vt 0.318926 0.094576
vt 0.324973 0.762178
vt 0.322530 0.272023
vt 0.344123 0.763119
vt 0.341533 0.285714
vt 0.749719 0.030699
vt 0.751099 0.157223
vt 0.478294 0.981067
vt 0.478294 0.045807
vt 0.774949 0.209244
vt 0.773279 0.309913
vt 0.604566 0.040391
vt 0.602134 0.974100
vt 0.787729 0.030272
vt 0.789033 0.156843
vt 0.515018 0.981068
vt 0.515018 0.045807
vt 0.805064 0.209822
vt 0.803585 0.310491
vt 0.567644 0.040295
vt 0.565212 0.974004
vt 0.799344 0.024444
vt 0.800745 0.162424
vt 0.523571 0.987819
vt 0.523571 0.040353
vt 0.814382 0.205467
vt 0.812819 0.315201
vt 0.560743 0.031035
vt 0.558263 0.983227
vt 0.809311 0.026581
vt 0.810658 0.160075
vt 0.533424 0.987819
vt 0.533424 0.040353
vt 0.822252 0.207404
vt 0.820757 0.313567
vt 0.548563 0.983460
vt 0.551044 0.030752
vn 0.0000 0.0000 -1.0000
vn 0.0000 -0.8685 -0.4957
vn 0.0000 -0.7071 -0.7071
vn -0.0641 -0.0500 -0.9967
vn 0.1131 -0.4795 -0.8702
vn -0.1131 -0.4795 -0.8702
vn -0.2005 0.2920 -0.9352
vn -0.5986 -0.8011 0.0000
vn -1.0000 0.0000 0.0000
vn -0.6627 -0.7489 0.0000
vn -0.1672 0.9859 0.0000
vn 0.0000 1.0000 -0.0000
vn 0.1672 0.9859 -0.0000
vn 0.6628 -0.7488 -0.0000
vn 1.0000 0.0000 -0.0000
vn 0.5986 -0.8011 -0.0000
vn 0.0000 -0.0000 1.0000
vn 0.0000 -0.8685 0.4957
vn -0.7838 -0.6210 0.0000
vn 0.0000 -0.7785 -0.6277
vn 0.7838 -0.6211 -0.0000
vn 0.0000 -0.7785 0.6277
vn -0.5797 0.8148 0.0000
vn 0.0000 0.6444 -0.7647
vn 0.5797 0.8148 -0.0000
vn 0.0000 0.6444 0.7647
vn -0.9996 0.0267 0.0000
vn 0.0000 -0.2204 -0.9754
vn 0.9996 0.0267 -0.0000
vn 0.0000 -0.2204 0.9754
usemtl Default_OBJ.007
s 1
f 1/1/1 2/2/1 3/3/1 4/4/1
f 5/5/2 1/1/2 4/4/2 6/6/2
f 7/7/1 5/5/1 6/6/1 8/8/1
f 9/9/3 10/10/1 11/11/1 12/12/3
f 13/13/4 7/7/1 8/8/1 14/14/1
f 7/15/1 13/16/4 15/17/5 16/18/1
f 16/19/1 15/20/5 17/21/6 18/22/1
f 18/23/1 17/24/6 14/25/7 8/26/1
f 10/27/1 13/28/4 14/29/7 11/30/1
f 19/31/1 16/19/1 18/22/1 20/32/1
f 16/18/1 19/33/1 21/34/1 7/15/1
f 8/26/1 22/35/1 20/36/1 18/23/1
f 6/37/8 4/38/8 23/39/8 24/40/8
f 8/41/9 6/37/9 24/40/9 25/42/9
f 22/43/10 8/41/10 25/42/10 26/44/10
f 20/45/11 22/46/11 26/47/11 27/48/11
f 28/49/12 19/31/12 20/32/12 27/50/12
f 21/51/13 19/52/13 28/53/13 29/54/13
f 7/55/14 21/56/14 29/57/14 30/58/14
f 5/59/15 7/55/15 30/58/15 31/60/15
f 1/61/16 5/59/16 31/60/16 32/62/16
f 2/63/15 1/61/15 32/62/15 33/64/15
f 4/65/9 3/66/9 34/67/9 23/68/9
f 33/69/17 32/70/17 23/71/17 34/72/17
f 32/70/18 31/73/18 24/74/18 23/71/18
f 31/73/17 30/75/17 25/76/17 24/74/17
f 35/77/17 36/78/17 37/79/17 38/80/17
f 30/75/17 39/81/17 40/82/17 25/76/17
f 30/83/17 41/84/17 42/85/17 39/86/17
f 42/87/17 41/88/17 43/89/17 44/90/17
f 43/91/17 25/92/17 40/93/17 44/94/17
f 39/95/12 35/96/12 38/97/12 40/98/12
f 41/88/17 28/49/17 27/50/17 43/89/17
f 41/84/17 30/83/17 29/99/17 28/100/17
f 25/92/17 43/91/17 27/101/17 26/102/17
f 34/67/19 3/66/19 45/103/19 46/104/19
f 45/105/20 3/3/20 2/2/20 47/106/20
f 2/63/21 33/64/21 48/107/21 47/108/21
f 48/109/22 33/69/22 34/72/22 46/110/22
f 46/104/9 45/103/9 49/111/9 50/112/9
f 49/113/1 45/105/1 47/106/1 51/114/1
f 47/108/15 48/107/15 52/115/15 51/116/15
f 52/117/17 48/109/17 46/110/17 50/118/17
f 50/112/23 49/111/23 53/119/23 54/120/23
f 53/121/24 49/113/24 51/114/24 55/122/24
f 51/116/25 52/115/25 56/123/25 55/124/25
f 56/125/26 52/117/26 50/118/26 54/126/26
f 54/120/27 53/119/27 57/127/27 58/128/27
f 57/129/28 53/121/28 55/122/28 59/130/28
f 55/124/29 56/123/29 60/131/29 59/132/29
f 58/133/30 60/134/30 56/125/30 54/126/30
f 12/12/3 11/11/1 14/29/7 17/24/6 15/20/5 13/16/4 10/27/1 9/9/3
