# This file uses centimeters as units for non-parametric coordinates.

g default
v -62.418488 -0.955948 21.223128
v -62.423752 -1.601374 21.221186
v -62.426956 -1.994694 21.449326
v -62.438301 -3.385288 21.445042
v -62.440331 -3.633504 21.222029
v -62.443298 -3.997735 21.281317
v -40.078045 -0.955948 21.223126
v -62.418488 -0.891453 24.368756
v -40.078045 -0.891453 24.368752
v -40.078045 -1.601374 21.221186
v -40.078045 -1.996496 21.449315
v -40.078045 -3.387092 21.445031
v -40.078045 -3.633477 21.222029
v -40.078045 -3.997733 21.281317
vt 0.986339 0.483190
vt 0.012400 0.482505
vt 0.012497 0.345341
vt 0.986435 0.346027
vt 0.986685 0.317889
vt 0.012516 0.317204
vt 0.986838 0.298067
vt 0.012531 0.297313
vt 0.987375 0.237443
vt 0.012572 0.236690
vt 0.987474 0.222896
vt 0.012583 0.222202
vt 0.987615 0.206809
vt 0.012594 0.206113
vn -0.000000 0.999790 -0.020499
vn -0.000000 0.999790 -0.020499
vn -0.000000 0.999790 -0.020499
vn -0.000000 0.999790 -0.020499
vn -0.000009 -0.213856 -0.976865
vn 0.000000 0.003007 -0.999996
vn 0.000000 0.003007 -0.999995
vn -0.000009 -0.212618 -0.977135
vn -0.000005 -0.123478 -0.992347
vn -0.000005 -0.124403 -0.992232
vn -0.000000 0.003081 -0.999995
vn -0.000000 0.003081 -0.999995
vn 0.000027 0.669689 -0.742642
vn 0.000027 0.669689 -0.742642
vn 0.000027 0.669689 -0.742642
vn 0.000027 0.669689 -0.742642
vn 0.000000 -0.160656 -0.987011
vn 0.000000 -0.160656 -0.987010
vn 0.000000 -0.160656 -0.987010
vn 0.000000 -0.160656 -0.987011
s off
g polySurface14 polySurface12
f 8/1/1 9/2/2 7/3/3 1/4/4
s 1
f 2/5/5 1/4/6 7/3/7 10/6/8
f 3/7/9 2/5/5 10/6/8 11/8/10
f 4/9/11 3/7/9 11/8/10 12/10/12
s off
f 5/11/13 4/9/14 12/10/15 13/12/16
f 6/13/17 5/11/18 13/12/19 14/14/20
