# This file uses centimeters as units for non-parametric coordinates.

mtllib Wall03.mtl
g default
v -3.500000 -2.009953 0.299999
v 3.500000 -2.009953 0.299999
v -3.500000 7.321671 0.299999
v 3.500000 7.321671 0.299999
v -3.500000 7.321671 -0.299999
v 3.500000 7.321671 -0.299999
v -3.500000 -2.009953 -0.299999
v 3.500000 -2.009953 -0.299999
vt 0.886283 0.053700
vt 0.168010 0.003013
vt 0.110020 0.946700
vt 0.829483 1.000002
vt 0.165765 0.946700
vt 0.829483 0.946700
vt 0.167874 0.053700
vt 0.829483 0.053700
vt 0.829483 0.053700
vt 0.110020 0.053700
vt 0.167874 0.053700
vt 0.829483 0.003013
vt 0.829483 0.946700
vt 0.165629 1.000003
vt 0.167874 0.946700
vt 0.886283 0.946700
vn 0.000000 0.000000 1.000000
vn 0.000000 0.000000 1.000000
vn 0.000000 0.000000 1.000000
vn 0.000000 0.000000 1.000000
vn 0.000000 1.000000 0.000000
vn 0.000000 1.000000 0.000000
vn 0.000000 1.000000 0.000000
vn 0.000000 1.000000 0.000000
vn 0.000000 0.000000 -1.000000
vn 0.000000 0.000000 -1.000000
vn 0.000000 0.000000 -1.000000
vn 0.000000 0.000000 -1.000000
vn 0.000000 -1.000000 0.000000
vn 0.000000 -1.000000 0.000000
vn 0.000000 -1.000000 0.000000
vn 0.000000 -1.000000 0.000000
vn 1.000000 0.000000 0.000000
vn 1.000000 0.000000 0.000000
vn 1.000000 0.000000 0.000000
vn 1.000000 0.000000 0.000000
vn -1.000000 0.000000 0.000000
vn -1.000000 0.000000 0.000000
vn -1.000000 0.000000 0.000000
vn -1.000000 0.000000 0.000000
s off
g Wall03
usemtl lambert2SG
f 1/11/1 2/9/2 4/13/3 3/15/4
f 3/4/5 4/14/6 6/5/7 5/6/8
f 5/6/9 6/5/10 8/7/11 7/8/12
f 7/8/13 8/7/14 2/2/15 1/12/16
f 2/10/17 8/7/18 6/5/19 4/3/20
f 7/8/21 1/1/22 3/16/23 5/6/24
