# Blender v2.90.0 OBJ File: 'ArtAssets.blend'
# www.blender.org
mtllib Big_Boulder1.mtl
o WOH_Asset_Big_Boulder1_Big_Boulder1
v 5.512883 -5.820365 -0.545760
v 3.255404 -5.809312 -4.786561
v 3.396798 -2.938488 -5.050359
v 5.508901 -2.995410 -0.479102
v -2.331850 -5.821404 -6.250087
v -2.333951 -2.980693 -6.279356
v -4.188693 -5.829268 -2.892259
v -4.243415 -3.022416 -2.991403
v -4.971958 -5.819829 0.831810
v -5.079979 -2.987241 0.667435
v -1.239099 -5.813262 4.814396
v -1.590085 -3.332168 4.649044
v 1.939028 -5.815836 5.402134
v 2.410545 -3.353391 5.428549
v 5.795655 -5.821100 3.103336
v 5.944797 -2.993356 3.108002
v 5.076186 -1.341520 -0.223723
v 2.941985 -1.363169 -4.514966
v 2.169671 1.001653 -3.999608
v 4.416120 1.071045 -0.238629
v -2.310185 -1.477316 -5.572968
v -1.918303 0.780493 -4.783930
v -3.993062 -1.503295 -2.852667
v -3.581330 0.741178 -2.677903
v -4.487012 -1.379890 0.456937
v -3.595221 0.986444 0.463990
v -1.293459 -1.262048 3.772374
v -0.837672 1.292313 3.083479
v 2.600502 -1.324714 4.978078
v 2.227046 1.192120 4.182703
v 5.363451 -1.382895 3.067823
v 4.251909 0.987775 2.881224
v 2.700028 3.810645 -0.598170
v 1.234782 3.785244 -3.356108
v -0.832075 5.396596 -0.872342
v -0.088781 5.413327 0.330655
v -1.262988 3.679281 -3.638171
v -1.840169 5.339704 -1.311617
v -2.857148 3.658156 -1.869080
v -2.617361 5.342785 -0.634977
v -3.110390 3.772348 0.856144
v -2.782355 5.402399 0.727062
v -1.649004 3.918538 2.759526
v -2.252585 5.490781 1.680234
v 0.714980 3.868924 3.350790
v -1.196677 5.453697 1.998707
v 2.395036 3.772988 2.234500
v -0.321371 5.410599 1.380656
v 0.967409 -5.818620 -0.423980
v -2.016922 6.437970 0.633906
vt 0.465943 0.017672
vt 0.583110 0.017672
vt 0.582772 0.075407
vt 0.467299 0.083835
vt 0.723036 0.017672
vt 0.717370 0.090118
vt 0.038237 0.017672
vt 0.138509 0.017672
vt 0.136043 0.087470
vt 0.037748 0.089447
vt 0.237662 0.017672
vt 0.233244 0.090438
vt 0.747161 0.017672
vt 0.881813 0.017672
vt 0.874389 0.085791
vt 0.742955 0.094662
vt 0.961435 0.017672
vt 0.975452 0.082841
vt 0.255164 0.017672
vt 0.360309 0.017672
vt 0.362857 0.072813
vt 0.268272 0.076057
vt 0.446241 0.017672
vt 0.443440 0.079347
vt 0.470618 0.126303
vt 0.582622 0.114715
vt 0.588134 0.172503
vt 0.484994 0.186322
vt 0.707899 0.129568
vt 0.686238 0.184744
vt 0.053731 0.129816
vt 0.136646 0.127228
vt 0.136773 0.186064
vt 0.067483 0.191729
vt 0.223516 0.134555
vt 0.217240 0.200633
vt 0.752147 0.139755
vt 0.870674 0.140821
vt 0.872163 0.207861
vt 0.772271 0.203345
vt 0.975235 0.138178
vt 0.957433 0.206087
vt 0.284232 0.123714
vt 0.359620 0.109496
vt 0.354764 0.166607
vt 0.302845 0.185443
vt 0.434699 0.120398
vt 0.425477 0.179637
vt 0.523997 0.257431
vt 0.594452 0.239522
vt 0.599239 0.320269
vt 0.566784 0.330206
vt 0.650748 0.255122
vt 0.625406 0.324039
vt 0.086954 0.272930
vt 0.148453 0.265086
vt 0.174524 0.311747
vt 0.148701 0.318422
vt 0.218934 0.275575
vt 0.208866 0.318888
vt 0.790663 0.274229
vt 0.852055 0.274836
vt 0.825272 0.315556
vt 0.798160 0.318650
vt 0.913180 0.275408
vt 0.853348 0.319947
vt 0.310657 0.260862
vt 0.351959 0.241649
vt 0.343321 0.314840
vt 0.321273 0.325703
vt 0.414788 0.256085
vt 0.367874 0.319568
vt 0.049185 0.607947
vt 0.168109 0.602060
vt 0.257941 0.752624
vt 0.110802 0.717628
vt 0.600189 0.371680
vt 0.197469 0.351344
vt 0.813855 0.349738
vt 0.342111 0.363351
vt 0.322851 0.565657
vt 0.304558 0.663616
vt 0.039616 0.512585
vt 0.139214 0.450114
vt 0.222763 0.463613
vn 0.9518 -0.0322 -0.3051
vn 0.5940 -0.0519 -0.8028
vn 0.5879 0.1079 -0.8017
vn 0.9483 0.1000 -0.3013
vn -0.2512 -0.0512 -0.9666
vn -0.2261 0.0976 -0.9692
vn -0.9341 -0.0295 -0.3559
vn -0.9315 0.0607 -0.3586
vn -0.9382 -0.0323 0.3445
vn -0.9344 0.1141 0.3375
vn -0.5279 0.0013 0.8493
vn -0.5440 0.1437 0.8267
vn 0.1900 -0.0196 0.9816
vn 0.2008 0.0997 0.9745
vn 0.8778 -0.0555 0.4758
vn 0.8902 0.0651 0.4508
vn 0.9053 0.3265 -0.2718
vn 0.5640 0.3580 -0.7441
vn 0.5449 0.3517 -0.7612
vn 0.8794 0.4143 -0.2346
vn -0.2484 0.3504 -0.9031
vn -0.2428 0.3428 -0.9075
vn -0.9086 0.2583 -0.3281
vn -0.8931 0.2957 -0.3391
vn -0.8748 0.3266 0.3579
vn -0.9053 0.2218 0.3622
vn -0.5078 0.3191 0.8002
vn -0.5129 0.1698 0.8415
vn 0.1277 0.2987 0.9458
vn 0.1180 0.3507 0.9290
vn 0.8421 0.3170 0.4363
vn 0.7947 0.4616 0.3941
vn 0.7373 0.6418 -0.2107
vn 0.4662 0.5715 -0.6753
vn 0.2813 0.8851 -0.3708
vn 0.4636 0.8816 -0.0887
vn -0.2080 0.5163 -0.8308
vn -0.2248 0.7797 -0.5844
vn -0.8724 0.3444 -0.3469
vn -0.8490 0.4236 -0.3158
vn -0.9323 0.1021 0.3471
vn -0.9459 0.2616 0.1920
vn -0.5507 0.1079 0.8277
vn -0.6158 0.3653 0.6981
vn 0.0671 0.4391 0.8959
vn 0.0422 0.7000 0.7129
vn 0.6645 0.6694 0.3322
vn 0.4418 0.8596 0.2569
vn 0.0001 -1.0000 -0.0004
vn 0.0005 -1.0000 -0.0000
vn 0.0015 -1.0000 -0.0002
vn 0.0012 -1.0000 -0.0015
vn 0.4183 0.8671 -0.2705
vn 0.1579 0.8660 -0.4745
vn -0.4114 0.7772 -0.4761
vn -0.8033 0.5827 -0.1228
vn -0.7360 0.5760 0.3557
vn -0.1669 0.7494 0.6408
vn 0.3326 0.8483 0.4119
vn 0.4798 0.8707 0.1085
vn 0.0008 -1.0000 0.0009
vn 0.0017 -1.0000 0.0008
vn -0.0007 -1.0000 0.0003
vn -0.0004 -1.0000 0.0007
vn -0.0001 -1.0000 0.0010
usemtl initialShadingGroup.002
s 1
f 1/1/1 2/2/2 3/3/3 4/4/4
f 2/2/2 5/5/5 6/6/6 3/3/3
f 5/7/5 7/8/7 8/9/8 6/10/6
f 7/8/7 9/11/9 10/12/10 8/9/8
f 9/13/9 11/14/11 12/15/12 10/16/10
f 11/14/11 13/17/13 14/18/14 12/15/12
f 13/19/13 15/20/15 16/21/16 14/22/14
f 15/20/15 1/23/1 4/24/4 16/21/16
f 17/25/17 18/26/18 19/27/19 20/28/20
f 18/26/18 21/29/21 22/30/22 19/27/19
f 21/31/21 23/32/23 24/33/24 22/34/22
f 23/32/23 25/35/25 26/36/26 24/33/24
f 25/37/25 27/38/27 28/39/28 26/40/26
f 27/38/27 29/41/29 30/42/30 28/39/28
f 29/43/29 31/44/31 32/45/32 30/46/30
f 31/44/31 17/47/17 20/48/20 32/45/32
f 33/49/33 34/50/34 35/51/35 36/52/36
f 34/50/34 37/53/37 38/54/38 35/51/35
f 37/55/37 39/56/39 40/57/40 38/58/38
f 39/56/39 41/59/41 42/60/42 40/57/40
f 41/61/41 43/62/43 44/63/44 42/64/42
f 43/62/43 45/65/45 46/66/46 44/63/44
f 45/67/45 47/68/47 48/69/48 46/70/46
f 47/68/47 33/71/33 36/72/36 48/69/48
f 1/73/49 49/74/50 5/75/51 2/76/52
f 36/52/36 35/51/35 50/77/53
f 35/51/35 38/54/38 50/77/54
f 38/58/38 40/57/40 50/78/55
f 40/57/40 42/60/42 50/78/56
f 42/64/42 44/63/44 50/79/57
f 44/63/44 46/66/46 50/79/58
f 46/70/46 48/69/48 50/80/59
f 48/69/48 36/72/36 50/80/60
f 20/28/20 19/27/19 34/50/34 33/49/33
f 19/27/19 22/30/22 37/53/37 34/50/34
f 22/34/22 24/33/24 39/56/39 37/55/37
f 24/33/24 26/36/26 41/59/41 39/56/39
f 26/40/26 28/39/28 43/62/43 41/61/41
f 28/39/28 30/42/30 45/65/45 43/62/43
f 30/46/30 32/45/32 47/68/47 45/67/45
f 32/45/32 20/48/20 33/71/33 47/68/47
f 4/4/4 3/3/3 18/26/18 17/25/17
f 3/3/3 6/6/6 21/29/21 18/26/18
f 6/10/6 8/9/8 23/32/23 21/31/21
f 8/9/8 10/12/10 25/35/25 23/32/23
f 10/16/10 12/15/12 27/38/27 25/37/25
f 12/15/12 14/18/14 29/41/29 27/38/27
f 14/22/14 16/21/16 31/44/31 29/43/29
f 16/21/16 4/24/4 17/47/17 31/44/31
f 5/75/51 49/74/50 9/81/61 7/82/62
f 1/73/49 15/83/63 13/84/64 49/74/50
f 9/81/61 49/74/50 13/84/64 11/85/65
