# Blender v2.90.0 OBJ File: ''
# www.blender.org
mtllib WOH_Asset_Tree_Stump.mtl
o WOH_Asset_Tree_Stump
v 1.064206 1.728891 -0.730330
v 0.414172 1.696434 -1.409123
v 0.389454 2.257545 -1.371068
v 1.012837 2.177096 -0.513321
v -0.593188 1.696434 -1.679042
v -0.590812 2.257545 -1.633729
v -1.566816 1.696434 -1.305303
v -1.538258 2.257545 -1.270041
v -2.134815 1.696434 -0.430659
v -2.090989 2.257544 -0.418914
v -2.080237 1.696434 0.610809
v -2.037874 2.257544 0.594547
v -1.423922 1.696434 1.421287
v -1.399210 2.257544 1.383233
v -0.416562 1.696434 1.691210
v -0.418937 2.257544 1.645897
v 0.557066 1.696434 1.317471
v 0.528509 2.257544 1.282205
v 1.131348 1.663978 0.574513
v 1.060314 2.131196 0.409343
v 1.248349 2.256398 -0.057799
v 1.403210 1.765172 -0.065286
v 1.291712 1.753163 -0.621792
v 1.249665 2.120007 -0.444176
v 0.315178 2.608003 -0.308708
v -0.026463 2.608003 -0.730605
v -0.504878 2.710179 0.006084
v -0.550845 2.608003 -0.871110
v -1.057669 2.608003 -0.676561
v -1.353344 2.608003 -0.221264
v -1.324927 2.608002 0.320873
v -0.983286 2.608002 0.742770
v -0.458904 2.608002 0.883278
v 0.047920 2.608002 0.688726
v 0.343594 2.608002 0.233429
v 0.329386 2.608003 -0.037638
v 0.991816 2.738496 -0.568442
v 0.368272 2.738496 -1.338451
v 0.262244 2.738496 -1.175174
v 0.810063 2.738496 -0.498673
v -0.588778 2.738496 -1.594893
v -0.578590 2.738496 -1.400475
v -1.513782 2.738496 -1.239815
v -1.391263 2.738496 -1.088519
v -2.053418 2.738496 -0.408847
v -1.865369 2.738496 -0.358460
v -2.001565 2.738495 0.580611
v -1.819812 2.738495 0.510841
v -1.378022 2.738495 1.350616
v -1.271994 2.738495 1.187342
v -0.420971 2.738495 1.607058
v -0.431159 2.738495 1.412640
v 0.504032 2.738495 1.251980
v 0.381514 2.738495 1.100683
v 1.043669 2.738495 0.421015
v 0.855620 2.738495 0.370628
v 1.017743 2.738496 -0.073712
v 0.832841 2.738496 -0.064024
v 1.161234 0.223960 -0.800475
v 0.559664 0.173421 -1.632867
v 0.438884 1.135324 -1.447177
v 1.135234 1.261672 -0.565161
v -0.460092 0.173421 -2.447638
v -0.595564 1.135324 -1.724355
v -1.575386 0.173421 -1.431338
v -1.595373 1.135324 -1.340565
v -2.489859 0.173421 -0.514506
v -2.178641 1.135324 -0.442401
v -2.685593 0.173421 0.801462
v -2.122594 1.135324 0.627067
v -1.794872 0.173421 2.159080
v -1.448633 1.135324 1.459341
v -0.532959 0.173421 1.794476
v -0.414186 1.135324 1.736522
v 0.359346 0.173421 1.533446
v 0.585617 1.135324 1.352733
v 1.694273 0.205600 0.610701
v 1.182711 1.215772 0.357504
v 1.184322 1.049131 -0.114562
v 1.510218 0.138944 -0.170328
v 1.011226 2.343737 -0.041252
v 1.390022 1.196798 -0.117800
v 1.349847 1.370756 -0.486603
v 1.346659 1.700033 0.446189
v 1.288524 2.082439 0.311003
v 1.388706 1.333188 0.268573
v 1.183617 2.200362 -0.520952
v 1.234980 1.752156 -0.737961
v 1.182006 2.367002 -0.048883
v 1.306014 1.284938 -0.572788
v 1.355102 1.072397 -0.122193
v 1.231094 2.154462 0.401713
v 1.302122 1.687243 0.566885
v 1.353491 1.239037 0.349876
v 1.199033 2.113109 -0.441911
v 1.241074 1.746264 -0.619527
v 1.197718 2.249500 -0.055537
v 1.299215 1.363858 -0.484341
v 1.339390 1.189900 -0.115538
v 1.237893 2.075541 0.313265
v 1.296028 1.693135 0.448451
v 1.338068 1.326290 0.270835
v 1.178570 -0.251634 -0.957356
v 0.640188 -0.301163 -1.756657
v -0.369783 -0.467847 -2.929824
v -1.562064 -0.467848 -1.491852
v -3.191095 -0.467848 -0.760975
v -2.995663 -0.467848 0.901046
v -1.858107 -0.467849 3.798638
v -0.139720 -0.303399 2.561343
v 0.956218 -0.303399 1.720877
v 2.740775 -0.467848 0.968524
v 3.023885 -0.666381 0.139867
vt 0.914627 0.498455
vt 0.959040 0.495497
vt 0.955108 0.546624
vt 0.894316 0.539294
vt 0.038306 0.621909
vt 0.133332 0.621909
vt 0.132054 0.673036
vt 0.039584 0.673036
vt 0.183995 0.477814
vt 0.239850 0.477814
vt 0.242280 0.528941
vt 0.187927 0.528941
vt 0.330224 0.477814
vt 0.330224 0.528941
vt 0.420599 0.477814
vt 0.418169 0.528941
vt 0.476454 0.477814
vt 0.472522 0.528941
vt 0.558380 0.494643
vt 0.653405 0.494643
vt 0.652128 0.545770
vt 0.559657 0.545770
vt 0.666581 0.495497
vt 0.722435 0.495497
vt 0.724865 0.546624
vt 0.670513 0.546624
vt 0.801368 0.492540
vt 0.814230 0.535112
vt 0.494588 0.959308
vt 0.498900 0.914548
vt 0.545249 0.913454
vt 0.528625 0.946880
vt 0.876999 0.750171
vt 0.906074 0.790190
vt 0.829955 0.814922
vt 0.906074 0.839655
vt 0.876999 0.879674
vt 0.829955 0.894960
vt 0.782910 0.879674
vt 0.753834 0.839655
vt 0.753834 0.790190
vt 0.782910 0.750171
vt 0.829955 0.734885
vt 0.853477 0.742528
vt 0.915816 0.696744
vt 0.968882 0.769782
vt 0.952011 0.775264
vt 0.905389 0.711095
vt 0.968881 0.860063
vt 0.952011 0.854581
vt 0.915816 0.933101
vt 0.905389 0.918750
vt 0.829955 0.960999
vt 0.829955 0.943260
vt 0.744093 0.933101
vt 0.754520 0.918750
vt 0.691028 0.860063
vt 0.707898 0.854581
vt 0.691028 0.769782
vt 0.707898 0.775264
vt 0.744093 0.696744
vt 0.754520 0.711095
vt 0.829955 0.668846
vt 0.829955 0.686585
vt 0.872885 0.682795
vt 0.867672 0.698840
vt 0.923089 0.361330
vt 0.982163 0.356725
vt 0.962972 0.444371
vt 0.901765 0.455883
vt 0.030777 0.483136
vt 0.139744 0.483136
vt 0.134610 0.570782
vt 0.037029 0.570782
vt 0.113210 0.339041
vt 0.228959 0.339041
vt 0.237419 0.426687
vt 0.180063 0.426687
vt 0.331217 0.339041
vt 0.330224 0.426687
vt 0.451655 0.339041
vt 0.423029 0.426687
vt 0.550137 0.339041
vt 0.480386 0.426687
vt 0.543131 0.355870
vt 0.645597 0.355870
vt 0.654683 0.443516
vt 0.557102 0.443516
vt 0.654747 0.356725
vt 0.698764 0.356725
vt 0.720005 0.444371
vt 0.662649 0.444370
vt 0.811459 0.359657
vt 0.821679 0.451701
vt 0.863265 0.436517
vt 0.875858 0.353583
vt 0.852730 0.554478
vt 0.855741 0.590447
vt 0.812810 0.590447
vt 0.726949 0.590447
vt 0.673883 0.590447
vt 0.651033 0.589593
vt 0.560752 0.589593
vt 0.469151 0.572764
vt 0.416086 0.572764
vt 0.330224 0.572764
vt 0.244363 0.572764
vt 0.191297 0.572764
vt 0.130959 0.716859
vt 0.040679 0.716859
vt 0.951737 0.590447
vt 0.898672 0.590447
vt 0.503211 0.862760
vt 0.534722 0.878610
vt 0.452550 0.908613
vt 0.463077 0.943457
vt 0.469174 0.875187
vt 0.025023 0.794849
vt 0.025620 0.754010
vt 0.040471 0.751890
vt 0.039874 0.792729
vt 0.088749 0.947738
vt 0.099740 0.906152
vt 0.114590 0.910851
vt 0.103599 0.952437
vt 0.150552 0.910851
vt 0.135606 0.872351
vt 0.150456 0.867652
vt 0.165403 0.906152
vt 0.035170 0.837421
vt 0.050021 0.835301
vt 0.114686 0.867652
vt 0.129537 0.872351
vt 0.056886 0.951063
vt 0.067033 0.908491
vt 0.081884 0.910611
vt 0.071737 0.953183
vt 0.161543 0.952437
vt 0.176394 0.947738
vt 0.066436 0.867652
vt 0.081287 0.869772
vt 0.434203 0.910005
vt 0.413892 0.950844
vt 0.407299 0.942894
vt 0.423923 0.909468
vt 0.372306 0.966028
vt 0.373262 0.955322
vt 0.382840 0.848067
vt 0.421341 0.867433
vt 0.413396 0.874625
vt 0.381884 0.858774
vt 0.333806 0.946662
vt 0.341751 0.939471
vt 0.320944 0.904090
vt 0.331223 0.904627
vt 0.341254 0.863251
vt 0.347847 0.871201
vt 0.182463 0.901706
vt 0.182951 0.868280
vt 0.187354 0.867652
vt 0.186866 0.901078
vt 0.219948 0.991631
vt 0.228944 0.957594
vt 0.233347 0.958987
vt 0.224351 0.993024
vt 0.264045 0.958987
vt 0.251811 0.927476
vt 0.256214 0.926082
vt 0.268448 0.957594
vt 0.190768 0.936550
vt 0.195171 0.935921
vt 0.241178 0.926082
vt 0.245581 0.927476
vt 0.201206 0.994352
vt 0.209511 0.959508
vt 0.213914 0.960137
vt 0.205609 0.994981
vt 0.273040 0.993024
vt 0.277443 0.991631
vt 0.209022 0.926082
vt 0.213425 0.926711
vt 0.937305 0.317995
vt 0.994957 0.313482
vt 0.026610 0.439893
vt 0.143166 0.424705
vt 0.068642 0.280611
vt 0.223319 0.280611
vt 0.326062 0.280611
vt 0.467732 0.280611
vt 0.695929 0.280611
vt 0.437727 0.007893
vt 0.629693 0.027240
vt 0.633600 0.105669
vt 0.517413 0.134389
vt 0.754464 0.043632
vt 0.715905 0.085615
vt 0.929559 0.021698
vt 0.863282 0.097611
vt 0.989652 0.074189
vt 0.884341 0.167627
vt 0.885512 0.233251
vt 0.894026 0.244841
vn 0.6973 0.0977 -0.7101
vn 0.5191 0.0902 -0.8499
vn 0.5440 0.0994 -0.8332
vn 0.7813 0.1964 -0.5924
vn -0.0522 0.0806 -0.9954
vn -0.6273 0.0806 -0.7746
vn -0.9628 0.0806 -0.2580
vn -0.9305 0.0806 0.3572
vn -0.5429 0.0806 0.8359
vn 0.0522 0.0806 0.9954
vn 0.6075 0.0797 0.7903
vn 0.6280 0.0967 0.7722
vn 0.7736 0.0541 0.6314
vn 0.8265 0.1836 0.5322
vn 0.9275 0.3722 -0.0339
vn 0.9895 0.1384 -0.0407
vn 0.9527 0.1381 -0.2708
vn 0.9138 0.3354 -0.2290
vn -0.1220 0.9905 0.0627
vn -0.0743 0.9907 0.1144
vn -0.0064 1.0000 0.0003
vn 0.0071 0.9907 0.1362
vn 0.0858 0.9907 0.1060
vn 0.1317 0.9907 0.0353
vn 0.1273 0.9907 -0.0489
vn 0.0743 0.9907 -0.1144
vn -0.0071 0.9907 -0.1362
vn -0.0858 0.9907 -0.1060
vn -0.1279 0.9905 -0.0496
vn -0.1098 0.9939 0.0058
vn 0.0000 1.0000 0.0000
vn -0.2138 0.9707 0.1098
vn -0.1302 0.9710 0.2005
vn 0.0125 0.9710 0.2387
vn 0.1504 0.9710 0.1858
vn 0.2309 0.9710 0.0619
vn 0.2232 0.9710 -0.0857
vn 0.1302 0.9710 -0.2005
vn -0.0125 0.9710 -0.2387
vn -0.1504 0.9710 -0.1858
vn -0.2241 0.9707 -0.0868
vn -0.2502 0.9681 0.0131
vn 0.8362 0.1956 -0.5123
vn 0.5946 0.3322 -0.7322
vn 0.5863 0.2406 -0.7735
vn 0.8064 0.0857 -0.5851
vn -0.0169 0.4203 -0.9072
vn -0.0930 0.3094 -0.9464
vn -0.6397 0.2409 -0.7299
vn -0.6455 0.1867 -0.7406
vn -0.8888 0.3176 -0.3305
vn -0.9161 0.2400 -0.3213
vn -0.8189 0.5094 0.2645
vn -0.8683 0.3998 0.2937
vn -0.4284 0.5172 0.7409
vn -0.4693 0.4009 0.7868
vn 0.1552 0.2422 0.9577
vn 0.1355 0.1712 0.9759
vn 0.5113 0.1586 0.8447
vn 0.5859 0.1444 0.7974
vn 0.8336 0.3232 0.4479
vn 0.8325 0.2016 0.5160
vn 0.9470 0.2010 -0.2504
vn 0.9219 0.3047 -0.2392
vn 0.9597 0.2784 -0.0387
vn 0.9986 0.0107 -0.0510
vn 0.9301 0.0328 0.3659
vn 0.6509 0.0609 0.7567
vn 0.5697 0.0491 -0.8204
vn 0.8860 0.0179 -0.4634
vn 0.9938 -0.0933 -0.0598
vn 0.9703 -0.0441 -0.2379
vn 0.9735 0.1136 0.1986
vn 0.9277 0.3270 0.1801
vn 0.9870 -0.0746 0.1425
vn 0.3030 0.7225 -0.6214
vn 0.3741 0.1022 -0.9217
vn 0.3008 0.9532 0.0320
vn 0.4724 -0.5444 -0.6931
vn 0.5404 -0.8386 -0.0695
vn 0.3687 0.6590 0.6555
vn 0.4670 0.0124 0.8842
vn 0.5381 -0.6080 0.5838
vn 0.9069 0.3466 -0.2395
vn 0.9302 0.1437 -0.3378
vn 0.9062 0.4220 -0.0256
vn 0.9624 -0.0682 -0.2630
vn 0.9846 -0.1644 -0.0588
vn 0.9284 0.3258 0.1785
vn 0.9606 0.1141 0.2533
vn 0.9839 -0.0889 0.1550
vn 0.6646 0.4892 -0.5648
vn 0.6674 0.3909 -0.6339
vn 0.6818 0.3759 -0.6275
vn 0.6420 0.5224 -0.5612
vn -0.1412 0.4394 -0.8871
vn -0.2196 0.4218 -0.8797
vn -0.6131 0.3316 -0.7171
vn -0.6023 0.3421 -0.7212
vn -0.7244 0.5973 -0.3442
vn -0.7003 0.5834 -0.4114
vn -0.7350 0.6449 0.2094
vn -0.7372 0.6446 0.2027
vn -0.1533 0.8980 0.4123
vn -0.3384 0.8511 0.4014
vn 0.1958 0.8818 0.4290
vn 0.1957 0.8819 0.4289
vn 0.3252 0.7649 0.5561
vn 0.3074 0.7851 0.5377
vn 0.4799 0.8641 0.1515
vn 0.4455 0.8479 0.2875
vn 0.5386 0.8194 -0.1961
vn 0.5653 0.7355 -0.3736
usemtl lambert9SG
s 1
f 1/1/1 2/2/2 3/3/3 4/4/4
f 2/5/2 5/6/5 6/7/5 3/8/3
f 5/9/5 7/10/6 8/11/6 6/12/5
f 7/10/6 9/13/7 10/14/7 8/11/6
f 9/13/7 11/15/8 12/16/8 10/14/7
f 11/15/8 13/17/9 14/18/9 12/16/8
f 13/19/9 15/20/10 16/21/10 14/22/9
f 15/23/10 17/24/11 18/25/12 16/26/10
f 17/24/11 19/27/13 20/28/14 18/25/12
f 21/29/15 22/30/16 23/31/17 24/32/18
f 25/33/19 26/34/20 27/35/21
f 26/34/20 28/36/22 27/35/21
f 28/36/22 29/37/23 27/35/21
f 29/37/23 30/38/24 27/35/21
f 30/38/24 31/39/25 27/35/21
f 31/39/25 32/40/26 27/35/21
f 32/40/26 33/41/27 27/35/21
f 33/41/27 34/42/28 27/35/21
f 34/42/28 35/43/29 27/35/21
f 35/43/29 36/44/30 27/35/21
f 37/45/31 38/46/31 39/47/31 40/48/31
f 38/46/31 41/49/31 42/50/31 39/47/31
f 41/49/31 43/51/31 44/52/31 42/50/31
f 43/51/31 45/53/31 46/54/31 44/52/31
f 45/53/31 47/55/31 48/56/31 46/54/31
f 47/55/31 49/57/31 50/58/31 48/56/31
f 49/57/31 51/59/31 52/60/31 50/58/31
f 51/59/31 53/61/31 54/62/31 52/60/31
f 53/61/31 55/63/31 56/64/31 54/62/31
f 55/63/31 57/65/31 58/66/31 56/64/31
f 40/48/32 39/47/33 26/34/20 25/33/19
f 39/47/33 42/50/34 28/36/22 26/34/20
f 42/50/34 44/52/35 29/37/23 28/36/22
f 44/52/35 46/54/36 30/38/24 29/37/23
f 46/54/36 48/56/37 31/39/25 30/38/24
f 48/56/37 50/58/38 32/40/26 31/39/25
f 50/58/38 52/60/39 33/41/27 32/40/26
f 52/60/39 54/62/40 34/42/28 33/41/27
f 54/62/40 56/64/41 35/43/29 34/42/28
f 56/64/41 58/66/42 36/44/30 35/43/29
f 59/67/43 60/68/44 61/69/45 62/70/46
f 60/71/44 63/72/47 64/73/48 61/74/45
f 63/75/47 65/76/49 66/77/50 64/78/48
f 65/76/49 67/79/51 68/80/52 66/77/50
f 67/79/51 69/81/53 70/82/54 68/80/52
f 69/81/53 71/83/55 72/84/56 70/82/54
f 71/85/55 73/86/57 74/87/58 72/88/56
f 73/89/57 75/90/59 76/91/60 74/92/58
f 75/90/59 77/93/61 78/94/62 76/91/60
f 79/95/63 80/96/64 59/67/43 62/70/46
f 20/28/14 81/97/65 57/98/66 55/99/67
f 18/25/12 20/28/14 55/99/67 53/100/68
f 16/26/10 18/25/12 53/100/68 51/101/10
f 14/22/9 16/21/10 51/102/10 49/103/9
f 12/16/8 14/18/9 49/104/9 47/105/8
f 10/14/7 12/16/8 47/105/8 45/106/7
f 8/11/6 10/14/7 45/106/7 43/107/6
f 6/12/5 8/11/6 43/107/6 41/108/5
f 3/8/3 6/7/5 41/109/5 38/110/69
f 4/4/4 3/3/3 38/111/69 37/112/70
f 62/70/46 61/69/45 2/2/2 1/1/1
f 61/74/45 64/73/48 5/6/5 2/5/2
f 64/78/48 66/77/50 7/10/6 5/9/5
f 66/77/50 68/80/52 9/13/7 7/10/6
f 68/80/52 70/82/54 11/15/8 9/13/7
f 70/82/54 72/84/56 13/17/9 11/15/8
f 72/88/56 74/87/58 15/20/10 13/19/9
f 74/92/58 76/91/60 17/24/11 15/23/10
f 76/91/60 78/94/62 19/27/13 17/24/11
f 57/98/66 81/97/65 4/4/4 37/112/70
f 58/66/31 57/65/31 37/45/31 40/48/31
f 36/44/30 58/66/42 40/48/32 25/33/19
f 27/35/21 36/44/30 25/33/19
f 22/30/16 82/113/71 83/114/72 23/31/17
f 84/115/73 22/30/16 21/29/15 85/116/74
f 86/117/75 82/113/71 22/30/16 84/115/73
f 77/93/61 80/96/64 79/95/63 78/94/62
f 1/118/1 4/119/4 87/120/76 88/121/77
f 4/122/4 81/123/65 89/124/78 87/125/76
f 79/126/63 62/127/46 90/128/79 91/129/80
f 62/130/46 1/118/1 88/121/77 90/131/79
f 81/123/65 20/132/14 92/133/81 89/124/78
f 20/134/14 19/135/13 93/136/82 92/137/81
f 78/138/62 79/126/63 91/129/80 94/139/83
f 19/135/13 78/140/62 94/141/83 93/136/82
f 88/142/77 87/143/76 95/144/84 96/145/85
f 87/143/76 89/146/78 97/147/86 95/144/84
f 91/148/80 90/149/79 98/150/87 99/151/88
f 90/149/79 88/142/77 96/145/85 98/150/87
f 89/146/78 92/152/81 100/153/89 97/147/86
f 92/152/81 93/154/82 101/155/90 100/153/89
f 94/156/83 91/148/80 99/151/88 102/157/91
f 93/154/82 94/156/83 102/157/91 101/155/90
f 96/158/85 95/159/84 24/160/18 23/161/17
f 95/162/84 97/163/86 21/164/15 24/165/18
f 99/166/88 98/167/87 83/168/72 82/169/71
f 98/170/87 96/158/85 23/161/17 83/171/72
f 97/163/86 100/172/89 85/173/74 21/164/15
f 100/174/89 101/175/90 84/176/73 85/177/74
f 102/178/91 99/166/88 82/169/71 86/179/75
f 101/175/90 102/180/91 86/181/75 84/176/73
f 103/182/92 104/183/93 60/68/94 59/67/95
f 104/184/93 105/185/96 63/72/97 60/71/94
f 105/186/96 106/187/98 65/76/99 63/75/97
f 106/187/98 107/188/100 67/79/101 65/76/99
f 107/188/100 108/189/102 69/81/103 67/79/101
f 108/189/102 109/190/104 71/83/105 69/81/103
f 109/191/104 110/192/106 73/193/107 71/194/105
f 110/192/106 111/195/108 75/196/109 73/193/107
f 111/195/108 112/197/110 77/198/111 75/196/109
f 112/197/110 113/199/112 80/200/113 77/198/111
f 59/201/95 80/200/113 113/199/112 103/202/92
