# Blender v2.90.0 OBJ File: 'ArtAssets.blend'
# www.blender.org
mtllib WOH_Asset_Big_Boulder2.mtl
o WOH_Asset_Big_Boulder2_Big_Boulder2
v 3.252547 -4.555703 3.428550
v 0.416626 -6.444947 4.140255
v 0.184834 -5.891819 5.971650
v 6.801816 -2.318261 4.862874
v -2.719140 -6.392614 2.712164
v -5.782001 -5.093520 5.059080
v -4.151658 -6.392613 0.309122
v -7.793955 -5.093519 -0.034405
v -2.881187 -7.099864 -2.348176
v -5.912429 -5.583565 -5.156300
v 0.416626 -6.444946 -3.208254
v 0.172534 -5.227572 -6.732655
v 3.084310 -5.262953 -2.566969
v 5.948691 -3.139601 -5.231435
v 4.872383 -4.839594 0.437570
v 8.158744 0.136210 -0.056033
v -0.125361 -3.939050 7.301991
v 8.021241 -0.436992 4.253086
v -6.961473 -3.677501 5.181188
v -8.653464 -3.677500 0.129995
v -6.520195 -3.687170 -5.538968
v 0.168208 -3.505460 -7.349258
v 6.796273 -0.412665 -4.007763
v 8.638644 0.789809 0.107331
v -0.411854 -2.096358 7.793926
v 8.504567 0.843226 4.346892
v -7.266695 -2.007192 5.181188
v -9.310432 -2.006282 0.130147
v -6.985873 -2.005422 -5.957652
v -0.131774 -1.992361 -8.564480
v 7.359256 1.343560 -4.040224
v 8.314910 2.544713 0.103725
v -0.185569 0.177215 7.782050
v 8.563271 2.488753 4.391022
v -7.258907 -0.026038 5.422416
v -9.096700 0.043991 0.179364
v -6.867321 0.054835 -5.767800
v -0.477748 0.067139 -8.859813
v 7.954001 2.591896 -4.236409
v 8.356621 3.454583 0.159888
v 0.123353 2.676089 6.718856
v 8.442790 3.322932 4.658564
v -6.392063 3.039821 5.825331
v -8.777925 3.154969 0.238457
v -6.595345 3.193847 -5.647240
v -0.510576 2.035429 -8.504344
v 7.854084 3.343469 -4.164109
v 8.316372 4.438056 0.190291
v 0.143347 3.781775 5.603004
v 4.000940 4.240295 3.569408
v -5.304944 4.326521 4.460932
v -7.642532 4.326906 0.209530
v -6.047514 4.310916 -4.974862
v -0.087134 3.245442 -5.488115
v 3.751960 4.131004 -3.349757
v 5.255201 4.434778 0.109232
v 0.172534 -6.745186 0.129995
v 2.244818 5.236091 1.820599
v -0.079332 4.382748 3.255636
v -0.089164 5.523245 0.129090
v -3.163902 5.424913 2.225832
v -4.178231 5.404580 0.129997
v -3.409786 4.568370 -2.105277
v -0.076143 3.809905 -3.256944
v 2.244818 4.376328 -1.600466
v 3.311625 4.731884 0.087243
vt 0.820192 0.308483
vt 0.820192 0.174520
vt 0.672908 0.254053
vt 0.672908 0.308483
vt 0.503525 0.250497
vt 0.503525 0.308483
vt 0.223928 0.308903
vt 0.223928 0.246230
vt 0.128301 0.231621
vt 0.128301 0.308903
vt 0.030529 0.249779
vt 0.030529 0.308903
vt 0.497393 0.308507
vt 0.497393 0.261584
vt 0.354942 0.242528
vt 0.354942 0.308507
vt 0.226698 0.203424
vt 0.226698 0.308507
vt 0.984876 0.308483
vt 0.984876 0.223140
vt 0.899973 0.159159
vt 0.899973 0.308483
vt 0.824831 0.233568
vt 0.824831 0.308483
vt 0.820192 0.130664
vt 0.672908 0.209377
vt 0.503525 0.218010
vt 0.223928 0.209043
vt 0.128301 0.199608
vt 0.030529 0.204062
vt 0.497393 0.217175
vt 0.354942 0.205620
vt 0.226698 0.140438
vt 0.984876 0.161387
vt 0.899973 0.143850
vt 0.824831 0.184558
vt 0.820192 0.100503
vt 0.672908 0.169008
vt 0.503525 0.178090
vt 0.223928 0.169119
vt 0.128301 0.162818
vt 0.030529 0.163714
vt 0.497393 0.176548
vt 0.354942 0.170938
vt 0.226698 0.099651
vt 0.984876 0.118288
vt 0.899973 0.103946
vt 0.824831 0.153287
vt 0.820192 0.062196
vt 0.672908 0.119020
vt 0.503525 0.129976
vt 0.223928 0.122565
vt 0.128301 0.118547
vt 0.030529 0.114973
vt 0.497393 0.126489
vt 0.354942 0.127734
vt 0.226698 0.070084
vt 0.984876 0.086371
vt 0.899973 0.084152
vt 0.824831 0.113020
vt 0.820192 0.042850
vt 0.672908 0.062075
vt 0.503525 0.056251
vt 0.223928 0.050158
vt 0.128301 0.050554
vt 0.030529 0.041849
vt 0.497393 0.051161
vt 0.354942 0.086347
vt 0.226698 0.052756
vt 0.984876 0.068246
vt 0.899973 0.063432
vt 0.824831 0.092144
vt 0.820192 0.014652
vt 0.672908 0.014652
vt 0.503525 0.014652
vt 0.223928 0.018019
vt 0.128301 0.018019
vt 0.030529 0.018019
vt 0.497393 0.015498
vt 0.354942 0.015498
vt 0.226698 0.015498
vt 0.984876 0.014652
vt 0.899973 0.014652
vt 0.824831 0.014652
vt 0.567606 0.438406
vt 0.568153 0.518027
vt 0.654722 0.439858
vt 0.507662 0.470156
vt 0.482250 0.518987
vt 0.513228 0.573751
vt 0.583445 0.582827
vt 0.648811 0.564992
vt 0.680699 0.502307
vt 0.322321 0.536656
vt 0.276598 0.505109
vt 0.279345 0.582159
vt 0.217002 0.543648
vt 0.197878 0.503218
vt 0.209208 0.448013
vt 0.282627 0.416712
vt 0.330007 0.460497
vt 0.349462 0.501064
vt 0.153203 0.390617
vt 0.283716 0.366609
vt 0.363580 0.425978
vt 0.390518 0.502632
vt 0.365366 0.579908
vt 0.284375 0.634328
vt 0.166380 0.598397
vt 0.120030 0.501228
vn 0.5183 -0.8346 0.1867
vn 0.3827 -0.3528 0.8539
vn 0.1728 -0.7402 0.6498
vn 0.2151 -0.9373 0.2743
vn -0.2393 -0.6235 0.7443
vn -0.1627 -0.9432 0.2898
vn -0.3190 -0.9363 0.1466
vn -0.6200 -0.7419 0.2556
vn -0.6718 -0.7354 0.0888
vn -0.3534 -0.9323 0.0773
vn -0.7632 -0.5933 -0.2560
vn -0.3834 -0.9235 -0.0132
vn -0.0035 -0.9188 -0.3948
vn -0.2578 -0.5039 -0.8244
vn -0.0029 -0.6300 -0.7766
vn 0.2293 -0.9029 -0.3635
vn 0.4291 -0.2366 -0.8717
vn 0.4090 -0.8641 -0.2933
vn 0.7411 -0.6687 -0.0598
vn 0.8660 -0.4901 -0.0993
vn 0.8414 -0.5010 -0.2026
vn 0.7341 -0.6788 0.0180
vn 0.7773 -0.6251 0.0712
vn 0.7182 -0.6911 0.0806
vn 0.4040 -0.2066 0.8911
vn 0.0655 -0.3167 0.9463
vn -0.3074 -0.2750 0.9110
vn -0.8428 -0.4395 0.3106
vn -0.9216 -0.3880 0.0111
vn -0.8731 -0.3684 -0.3194
vn -0.2482 -0.4103 -0.8775
vn 0.1581 -0.2784 -0.9474
vn 0.5425 -0.2337 -0.8069
vn 0.9380 -0.1864 -0.2923
vn 0.9671 -0.2309 -0.1064
vn 0.9330 -0.3587 -0.0275
vn 0.3770 -0.0995 0.9208
vn 0.0171 -0.1558 0.9876
vn -0.3310 -0.1115 0.9370
vn -0.9291 -0.1284 0.3468
vn -0.9959 -0.0896 -0.0156
vn -0.9269 -0.1358 -0.3497
vn -0.3416 -0.2744 -0.8989
vn 0.1079 -0.2771 -0.9548
vn 0.5418 -0.2208 -0.8110
vn 0.9497 -0.1962 -0.2441
vn 0.9873 -0.1285 -0.0934
vn 0.9989 -0.0460 0.0070
vn 0.3141 0.0938 0.9447
vn 0.0290 0.0647 0.9975
vn -0.2885 0.0350 0.9568
vn -0.9308 0.0821 0.3561
vn -0.9927 0.1203 -0.0042
vn -0.9320 0.0967 -0.3494
vn -0.4104 0.0203 -0.9117
vn 0.0158 -0.0121 -0.9998
vn 0.4794 0.0420 -0.8766
vn 0.9917 -0.0838 -0.0974
vn 0.9972 -0.0169 -0.0724
vn 0.9984 0.0432 -0.0378
vn 0.2649 0.3774 0.8873
vn 0.0963 0.5151 0.8517
vn -0.1345 0.4538 0.8809
vn -0.7930 0.5254 0.3084
vn -0.8927 0.4351 0.1174
vn -0.8585 0.4306 -0.2784
vn -0.2259 0.5508 -0.8035
vn -0.0056 0.4472 -0.8944
vn 0.4888 0.3717 -0.7892
vn 0.9191 0.1973 -0.3411
vn 0.5902 0.7003 0.4016
vn 0.9526 0.2810 0.1163
vn 0.1080 0.8310 0.5457
vn 0.0202 0.7934 0.6084
vn -0.0600 0.7317 0.6790
vn -0.6148 0.7279 0.3037
vn -0.7067 0.7073 0.0165
vn -0.7442 0.6183 -0.2527
vn 0.0064 0.8450 -0.5348
vn 0.0306 0.8868 -0.4611
vn 0.0583 0.9070 -0.4170
vn 0.0868 0.9766 -0.1966
vn 0.0907 0.9956 -0.0217
vn 0.0921 0.9802 0.1750
vn 0.2877 -0.9568 0.0428
vn 0.2064 -0.9763 0.0645
vn 0.4652 -0.8711 0.1573
vn -0.0680 -0.9959 0.0603
vn -0.0750 -0.9882 0.1339
vn 0.0357 -0.9943 0.1008
vn 0.3091 -0.9489 -0.0631
vn 0.3999 -0.9134 -0.0760
vn 0.3649 -0.9263 0.0936
vn -0.0578 0.9401 0.3360
vn 0.0118 0.9400 0.3411
vn 0.0352 0.9333 0.3574
vn 0.1249 0.9290 0.3484
vn -0.1457 0.9884 0.0417
vn -0.0291 0.9860 -0.1643
vn -0.1398 0.9834 -0.1160
vn -0.1385 0.9687 -0.2061
vn 0.0853 0.9444 -0.3175
vn 0.0797 0.8893 -0.4503
vn 0.0023 0.9497 -0.3133
vn 0.0235 0.9361 -0.3510
vn 0.1602 0.9537 -0.2546
vn 0.2176 0.9474 -0.2348
vn 0.2234 0.9671 -0.1213
vn 0.2331 0.9719 -0.0319
vn 0.1473 0.9616 -0.2314
vn 0.0238 0.9694 -0.2444
vn -0.0869 0.9693 -0.2299
vn 0.0733 0.9840 -0.1626
vn 0.1947 0.9799 -0.0446
vn 0.2965 0.9520 0.0757
vn 0.0048 0.9325 0.3612
vn 0.0370 0.9280 0.3709
vn 0.0765 0.9240 0.3747
vn -0.3009 0.9408 0.1559
vn -0.2128 0.9771 -0.0020
vn -0.1418 0.9773 -0.1574
usemtl initialShadingGroup.003
s 1
f 1/1/1 4/2/2 3/3/3 2/4/4
f 2/4/4 3/3/3 6/5/5 5/6/6
f 5/7/7 6/8/8 8/9/9 7/10/10
f 7/10/10 8/9/9 10/11/11 9/12/12
f 9/13/13 10/14/14 12/15/15 11/16/16
f 11/16/16 12/15/15 14/17/17 13/18/18
f 13/19/19 14/20/20 16/21/21 15/22/22
f 15/22/22 16/21/21 4/23/23 1/24/24
f 4/2/2 18/25/25 17/26/26 3/3/3
f 3/3/3 17/26/26 19/27/27 6/5/5
f 6/8/8 19/28/28 20/29/29 8/9/9
f 8/9/9 20/29/29 21/30/30 10/11/11
f 10/14/14 21/31/31 22/32/32 12/15/15
f 12/15/15 22/32/32 23/33/33 14/17/17
f 14/20/20 23/34/34 24/35/35 16/21/21
f 16/21/21 24/35/35 18/36/36 4/23/23
f 18/25/25 26/37/37 25/38/38 17/26/26
f 17/26/26 25/38/38 27/39/39 19/27/27
f 19/28/28 27/40/40 28/41/41 20/29/29
f 20/29/29 28/41/41 29/42/42 21/30/30
f 21/31/31 29/43/43 30/44/44 22/32/32
f 22/32/32 30/44/44 31/45/45 23/33/33
f 23/34/34 31/46/46 32/47/47 24/35/35
f 24/35/35 32/47/47 26/48/48 18/36/36
f 26/37/37 34/49/49 33/50/50 25/38/38
f 25/38/38 33/50/50 35/51/51 27/39/39
f 27/40/40 35/52/52 36/53/53 28/41/41
f 28/41/41 36/53/53 37/54/54 29/42/42
f 29/43/43 37/55/55 38/56/56 30/44/44
f 30/44/44 38/56/56 39/57/57 31/45/45
f 31/46/46 39/58/58 40/59/59 32/47/47
f 32/47/47 40/59/59 34/60/60 26/48/48
f 34/49/49 42/61/61 41/62/62 33/50/50
f 33/50/50 41/62/62 43/63/63 35/51/51
f 35/52/52 43/64/64 44/65/65 36/53/53
f 36/53/53 44/65/65 45/66/66 37/54/54
f 37/55/55 45/67/67 46/68/68 38/56/56
f 38/56/56 46/68/68 47/69/69 39/57/57
f 39/58/58 47/70/70 48/71/71 40/59/59
f 40/59/59 48/71/71 42/72/72 34/60/60
f 42/61/61 50/73/73 49/74/74 41/62/62
f 41/62/62 49/74/74 51/75/75 43/63/63
f 43/64/64 51/76/76 52/77/77 44/65/65
f 44/65/65 52/77/77 53/78/78 45/66/66
f 45/67/67 53/79/79 54/80/80 46/68/68
f 46/68/68 54/80/80 55/81/81 47/69/69
f 47/70/70 55/82/82 56/83/83 48/71/71
f 48/71/71 56/83/83 50/84/84 42/72/72
f 2/85/85 57/86/86 1/87/87
f 5/88/88 57/86/86 2/85/85
f 7/89/89 57/86/86 5/88/88
f 9/90/90 57/86/86 7/89/89
f 11/91/91 57/86/86 9/90/90
f 13/92/92 57/86/86 11/91/91
f 15/93/93 57/86/86 13/92/92
f 1/87/87 57/86/86 15/93/93
f 58/94/94 60/95/95 59/96/96
f 59/96/96 60/95/95 61/97/97
f 61/97/98 60/95/99 62/98/100
f 62/98/100 60/95/99 63/99/101
f 63/99/102 60/95/103 64/100/104
f 64/100/104 60/95/103 65/101/105
f 65/101/106 60/95/107 66/102/108
f 66/102/108 60/95/107 58/94/109
f 53/103/110 63/99/102 64/100/104 54/104/111
f 54/104/111 64/100/104 65/101/105 55/105/112
f 55/105/113 65/101/106 66/102/108 56/106/114
f 56/106/114 66/102/108 58/94/109 50/107/115
f 50/107/116 58/94/94 59/96/96 49/108/117
f 49/108/117 59/96/96 61/97/97 51/109/118
f 51/109/119 61/97/98 62/98/100 52/110/120
f 52/110/120 62/98/100 63/99/101 53/103/121
