# Blender v2.90.0 OBJ File: ''
# www.blender.org
mtllib WOH_Asset_Fence_Broken.mtl
o WOH_Asset_Fence_Broken
v -2.016448 3.307083 0.308277
v -0.417284 3.052528 0.308277
v -0.298707 3.797498 0.308277
v -1.897862 4.052053 0.308277
v -0.298707 3.797498 -0.308285
v -1.897862 4.052053 -0.308285
v -0.417284 3.052528 -0.308285
v -2.016448 3.307083 -0.308285
v -3.083714 -3.652198 -0.308286
v -1.484549 -3.652198 -0.308286
v -1.484549 -3.652198 0.308276
v -3.083714 -3.652198 0.308276
v -2.229905 1.966138 0.308277
v -0.630741 1.711583 0.308277
v -0.630741 1.711583 -0.308285
v -2.229905 1.966138 -0.308285
v -2.571428 -0.179374 0.308276
v -0.972264 -0.433929 0.308276
v -0.972264 -0.433930 -0.308286
v -2.571428 -0.179375 -0.308286
v -2.785612 -1.524951 0.308276
v -1.186457 -1.779507 0.308276
v -1.186457 -1.779507 -0.308286
v -2.785612 -1.524951 -0.308286
v -1.163059 -1.632567 -0.164474
v -1.163059 -1.632567 0.164464
v -0.995653 -0.580870 -0.164474
v -0.995653 -0.580869 0.164465
v -0.610484 1.838817 -0.192319
v -0.610484 1.838817 0.192310
v -0.437541 2.925294 -0.192319
v -0.437541 2.925294 0.192310
v 5.251254 -2.130059 -0.192319
v 5.251254 -2.130059 0.192309
v 5.424197 -1.043581 -0.192319
v 5.424197 -1.043581 0.192310
v 5.969249 -3.652198 -0.164475
v 5.969249 -3.652198 0.164464
v 6.136655 -2.389565 -0.164474
v 6.136655 -2.389564 0.164464
vt 0.488173 0.949065
vt 0.488173 0.861681
vt 0.523373 0.861681
vt 0.523373 0.949065
vt 0.523049 0.679712
vt 0.523049 0.767096
vt 0.487849 0.767096
vt 0.487849 0.679712
vt 0.157952 0.920655
vt 0.187079 0.920655
vt 0.187079 0.959599
vt 0.157952 0.959599
vt 0.065725 0.742023
vt 0.098255 0.742023
vt 0.098255 0.873055
vt 0.065725 0.873055
vt 0.020940 0.742023
vt 0.059701 0.742023
vt 0.059701 0.873055
vt 0.020940 0.873055
vt 0.017571 0.903803
vt 0.094158 0.903803
vt 0.076294 0.913733
vt 0.035435 0.913733
vt 0.094158 0.994735
vt 0.076294 0.984805
vt 0.073312 0.742023
vt 0.090667 0.742023
vt 0.017571 0.994735
vt 0.035435 0.984805
vt 0.098756 0.879709
vt 0.131286 0.879709
vt 0.125167 0.887479
vt 0.104874 0.887479
vt 0.131286 0.957714
vt 0.125167 0.957714
vt 0.163430 0.914004
vt 0.181601 0.914004
vt 0.098756 0.957714
vt 0.104874 0.957714
vt 0.338557 0.558834
vt 0.338557 0.525185
vt 0.902822 0.525184
vt 0.902822 0.558834
vt 0.915237 0.305664
vt 0.915237 0.392173
vt 0.339004 0.392173
vt 0.339004 0.305664
vt 0.339484 0.609882
vt 0.339484 0.570677
vt 0.915716 0.570677
vt 0.915717 0.609882
vt 0.336771 0.483283
vt 0.336771 0.405081
vt 0.913004 0.405081
vt 0.913004 0.483283
vt 0.335533 0.046736
vt 0.335533 0.015262
vt 0.908409 0.015263
vt 0.908409 0.046736
vt 0.920341 0.130643
vt 0.920341 0.193473
vt 0.332616 0.193473
vt 0.332615 0.130643
vt 0.333091 0.106276
vt 0.333091 0.066529
vt 0.925300 0.066529
vt 0.925300 0.106276
vt 0.333042 0.285912
vt 0.333042 0.218814
vt 0.917487 0.218814
vt 0.917487 0.285912
vt 0.977252 0.522830
vt 0.977252 0.606330
vt 0.950573 0.606330
vt 0.950573 0.522830
vt 0.977485 0.016556
vt 0.977485 0.109177
vt 0.951037 0.109177
vt 0.951037 0.016556
vt 0.391657 0.912679
vt 0.460952 0.912679
vt 0.460952 0.953867
vt 0.391657 0.953867
vt 0.304924 0.955467
vt 0.234358 0.955467
vt 0.234358 0.927968
vt 0.304924 0.927968
vt 0.365753 0.687513
vt 0.326786 0.687513
vt 0.326786 0.657287
vt 0.365753 0.657287
vt 0.391657 0.865961
vt 0.460951 0.865961
vt 0.234358 0.878471
vt 0.304924 0.878470
vt 0.365753 0.741920
vt 0.326786 0.741920
vt 0.391657 0.791212
vt 0.460951 0.791212
vt 0.234358 0.799274
vt 0.304924 0.799274
vt 0.365753 0.828971
vt 0.326786 0.828971
vt 0.391657 0.744332
vt 0.460951 0.744332
vt 0.234358 0.749605
vt 0.304924 0.749605
vt 0.365753 0.883566
vt 0.326786 0.883566
vt 0.391657 0.674654
vt 0.460951 0.674654
vt 0.234358 0.675781
vt 0.304924 0.675782
vt 0.365753 0.959548
vt 0.326786 0.959548
vn 0.1572 0.9876 0.0000
vn 0.0000 -1.0000 0.0000
vn 0.9876 -0.1572 0.0000
vn 0.9876 -0.1573 0.0000
vn -0.5607 -0.8280 0.0000
vn 0.0000 0.0000 -1.0000
vn 0.5607 0.8280 0.0000
vn 0.0000 -0.0000 1.0000
vn -0.2725 -0.9622 0.0000
vn 0.2458 0.9693 -0.0000
vn 0.9913 -0.1314 0.0000
vn -0.9876 0.1572 0.0000
vn -0.9893 0.1459 -0.0000
vn -0.9903 0.1388 0.0000
usemtl lambert11SG
s off
f 4/1/1 3/2/1 5/3/1 6/4/1
f 9/5/2 10/6/2 11/7/2 12/8/2
f 2/9/3 7/10/3 5/11/3 3/12/3
f 18/13/3 19/14/3 15/15/3 14/16/3
f 11/17/3 10/18/3 23/19/3 22/20/3
f 22/21/4 23/22/4 25/23/4 26/24/4
f 23/22/3 19/25/3 27/26/3 25/23/3
f 19/14/3 18/13/3 28/27/3 27/28/3
f 18/29/3 22/21/3 26/24/3 28/30/3
f 14/31/3 15/32/3 29/33/3 30/34/3
f 15/32/3 7/35/3 31/36/3 29/33/3
f 7/10/3 2/9/3 32/37/3 31/38/3
f 2/39/3 14/31/3 30/34/3 32/40/3
f 30/41/5 29/42/5 33/43/5 34/44/5
f 29/45/6 31/46/6 35/47/6 33/48/6
f 31/49/7 32/50/7 36/51/7 35/52/7
f 32/53/8 30/54/8 34/55/8 36/56/8
f 26/57/9 25/58/9 37/59/9 38/60/9
f 25/61/6 27/62/6 39/63/6 37/64/6
f 27/65/10 28/66/10 40/67/10 39/68/10
f 28/69/8 26/70/8 38/71/8 40/72/8
f 33/73/3 35/74/3 36/75/3 34/76/3
f 37/77/11 39/78/11 40/79/11 38/80/11
s 1
f 1/81/8 2/82/8 3/83/8 4/84/8
f 6/85/6 5/86/6 7/87/6 8/88/6
f 8/89/12 1/90/12 4/91/12 6/92/12
f 13/93/8 14/94/8 2/82/8 1/81/8
f 8/88/6 7/87/6 15/95/6 16/96/6
f 16/97/12 13/98/12 1/90/12 8/89/12
f 17/99/8 18/100/8 14/94/8 13/93/8
f 16/96/6 15/95/6 19/101/6 20/102/6
f 20/103/12 17/104/12 13/98/12 16/97/12
f 21/105/8 22/106/8 18/100/8 17/99/8
f 20/102/6 19/101/6 23/107/6 24/108/6
f 24/109/13 21/110/13 17/104/12 20/103/12
f 12/111/8 11/112/8 22/106/8 21/105/8
f 24/108/6 23/107/6 10/113/6 9/114/6
f 9/115/14 12/116/14 21/110/13 24/109/13
