# Blender v2.90.0 OBJ File: 'ArtAssets.blend'
# www.blender.org
mtllib WOH_Asset_Tempelstairsside.mtl
o WOH_Assets_Tempelstairscorner_stairscorner
v -0.232286 0.479748 0.099023
v 2.202933 0.479748 0.099023
v 2.202944 1.028033 -2.060733
v 0.749119 1.028033 -2.060733
v -1.625379 -0.068536 2.063646
v 2.202922 -0.068536 2.063646
v -2.223040 -0.616820 3.919543
v 2.202922 -0.616820 3.919543
v -3.277197 -1.165105 6.509704
v 2.202911 -1.165105 6.509704
v -2.223040 -0.616819 -3.510375
v -3.277197 -1.165103 -3.510353
v -1.625379 -0.068535 -3.510389
v -0.232286 0.479749 -3.510403
v 0.749119 1.028033 -3.510419
v 2.202944 1.028033 -3.510419
vt 0.142798 0.144677
vt 0.001889 0.144677
vt 0.000000 0.000000
vt 0.143040 0.000000
vt 0.246046 0.360219
vt 0.010085 0.360219
vt 0.385965 0.556287
vt 0.015891 0.556287
vt 0.456640 0.741504
vt 0.019767 0.741504
vt 0.564826 1.000000
vt 0.021335 1.000000
vt 0.483222 0.000004
vt 0.601465 0.000007
vt 0.402420 0.000003
vt 0.254222 0.000001
vn 0.0000 1.0000 0.0000
vn 0.0000 0.9649 0.2627
vn 0.0000 0.9657 0.2595
vn 0.0000 0.9693 0.2461
vn 0.0000 0.9603 0.2789
vn -0.0000 0.9609 0.2769
vn -0.0000 0.9734 0.2289
vn 0.0000 0.9717 0.2361
vn 0.0000 0.9783 0.2071
vn -0.5379 0.8430 -0.0000
vn -0.4614 0.8872 0.0000
vn -0.4779 0.8784 0.0000
vn -0.5091 0.8607 -0.0000
vn -0.6100 0.7924 -0.0000
vn -0.4025 0.9154 -0.0000
vn -0.3754 0.9268 -0.0000
vn -0.4877 0.8730 0.0000
usemtl Default_OBJ.006
s off
f 4/1/1 3/2/1 16/3/1 15/4/1
s 1
f 1/5/2 2/6/3 3/2/4 4/1/4
f 5/7/5 6/8/6 2/6/3 1/5/2
f 7/9/7 8/10/8 6/8/6 5/7/5
f 9/11/9 10/12/9 8/10/8 7/9/7
f 11/13/10 12/14/11 9/11/11 7/9/12
f 13/15/13 11/13/10 7/9/12 5/7/14
f 14/16/15 13/15/13 5/7/14 1/5/16
f 15/4/17 14/16/15 1/5/16 4/1/17
