# This file uses meters as units for non-parametric coordinates.

mtllib WOH_Broken_Pillar_LyingDown2.mtl
g default
v 883.218584 -1.412596 -1785.540004
v 869.303973 -1.412596 -1772.852645
v 857.179583 10.937349 -1747.574278
v 870.735282 40.752756 -1730.435232
v 850.736262 70.568164 -1747.632600
v 858.361383 82.918108 -1786.198486
v 850.804160 70.568167 -1815.734283
v 886.726650 40.752750 -1809.969780
v 742.407886 -1.412596 -1870.431856
v 732.117632 -1.412596 -1852.287828
v 727.452853 3.461252 -1818.810250
v 721.277909 40.752756 -1808.114931
v 720.474833 70.568164 -1823.827311
v 732.151910 82.918108 -1851.967732
v 757.268245 70.568167 -1870.452022
v 772.323463 40.752756 -1873.076886
v 871.773280 23.408719 -1786.655535
v 864.322341 19.678290 -1776.350828
v 870.225323 40.752757 -1774.185030
v 856.871546 25.850865 -1763.445324
v 868.685149 40.752757 -1750.690248
v 865.982994 55.654650 -1761.111953
v 864.322341 61.827225 -1776.350828
v 871.773236 55.654650 -1789.256156
v 874.859563 40.752757 -1794.601831
v 798.864995 -1.412596 -1835.438097
v 787.291619 -1.412596 -1819.225523
v 773.369023 10.937345 -1793.596615
v 774.177547 40.752756 -1780.620375
v 771.088429 70.568167 -1793.617238
v 783.418563 82.918114 -1823.949066
v 803.229986 70.568167 -1843.364451
v 807.078842 40.752754 -1855.954463
v 796.447885 70.568167 -1847.333946
v 795.383526 65.619653 -1838.465100
v 744.866526 8.430518 -1860.938712
v 736.978488 8.430518 -1847.030166
v 732.673002 9.820400 -1824.197721
v 720.817223 40.752756 -1819.038382
v 717.514465 63.608034 -1833.918967
v 728.942443 73.074994 -1853.712110
v 748.405786 63.608034 -1866.823522
v 759.929255 40.752756 -1871.510451
v 739.514826 23.807796 -1856.781207
v 735.379517 23.807796 -1849.489647
v 735.379517 40.752756 -1849.489647
v 733.726104 28.770855 -1836.413934
v 731.244681 40.752756 -1832.115798
v 733.726104 52.734657 -1836.413934
v 739.717230 57.697716 -1846.790509
v 745.708000 52.734657 -1857.167187
v 748.189552 40.752756 -1861.465360
v 829.824146 -1.412596 -1817.102358
v 820.273496 -1.412596 -1800.560218
v 805.927136 10.937345 -1775.711562
v 802.109700 40.752756 -1769.908432
v 806.096511 70.568167 -1776.726869
v 822.108800 82.918111 -1803.739250
v 834.520025 70.568167 -1825.236194
v 840.961227 40.752753 -1836.392459
v 804.901682 40.752756 -1765.216216
v 796.946497 40.752756 -1769.292792
vt 0.482554 0.469196
vt 0.482554 0.371110
vt 0.558800 0.371110
vt 0.553028 0.469196
vt 0.445811 0.469196
vt 0.379566 0.371110
vt 0.482553 0.232395
vt 0.552672 0.232395
vt 0.361682 0.232395
vt 0.682056 0.232395
vt 0.634143 0.371110
vt 0.568343 0.469196
vt 0.656995 0.469196
vt 0.653535 0.371110
vt 0.668417 0.446298
vt 0.492339 0.616340
vt 0.474461 0.714426
vt 0.359601 0.714426
vt 0.376267 0.616340
vt 0.541806 0.616340
vt 0.550005 0.714426
vt 0.478331 0.518254
vt 0.376267 0.493659
vt 0.549920 0.616340
vt 0.550708 0.518254
vt 0.559204 0.616340
vt 0.704207 0.616340
vt 0.653696 0.714426
vt 0.664627 0.518254
vt 0.053882 0.922459
vt 0.114920 0.865551
vt 0.141938 0.881831
vt 0.183985 0.783744
vt 0.850550 0.475708
vt 0.892164 0.487981
vt 0.854089 0.545039
vt 0.848778 0.406324
vt 0.907812 0.406324
vt 0.919880 0.545039
vt 0.801526 0.496015
vt 0.983184 0.545039
vt 0.756815 0.446952
vt 0.899573 0.594062
vt 0.784618 0.545039
vt 0.940518 0.643125
vt 0.730283 0.545039
vt 0.850550 0.614369
vt 0.809865 0.594062
vt 0.868801 0.683753
vt 0.746383 0.643125
vt 0.210127 0.589464
vt 0.182551 0.589464
vt 0.182551 0.533719
vt 0.230775 0.640052
vt 0.178174 0.640052
vt 0.142578 0.573137
vt 0.237741 0.533719
vt 0.253777 0.672434
vt 0.185158 0.672434
vt 0.106042 0.635479
vt 0.285671 0.533719
vt 0.126251 0.533719
vt 0.221414 0.494301
vt 0.082106 0.656400
vt 0.310521 0.533719
vt 0.071841 0.533719
vt 0.253363 0.458530
vt 0.142578 0.494301
vt 0.181996 0.477974
vt 0.041478 0.533719
vt 0.108804 0.458530
vt 0.183993 0.427386
vt 0.084922 0.435633
vt 0.184302 0.395004
vt 0.278278 0.435633
vt 0.189437 0.783744
vt 0.277340 0.824373
vt 0.250475 0.840652
vt 0.319540 0.922459
vt 0.482779 0.176589
vt 0.482779 0.113750
vt 0.556632 0.112676
vt 0.552897 0.177903
vt 0.361908 0.174495
vt 0.373029 0.115460
vt 0.482779 0.019357
vt 0.555157 0.016758
vt 0.681969 0.116117
vt 0.682282 0.184736
vt 0.368860 0.023498
vt 0.657221 0.013065
vt 0.566596 0.766025
vt 0.567299 0.869323
vt 0.482307 0.863260
vt 0.491053 0.756562
vt 0.670287 0.756562
vt 0.645577 0.878980
vt 0.567299 0.950983
vt 0.496825 0.951162
vt 0.368479 0.858758
vt 0.376192 0.759378
vt 0.604042 0.950697
vt 0.481510 0.951316
vt 0.392858 0.952734
vn 0.205020 0.907462 -0.366716
vn 0.328749 0.730097 -0.599067
vn 0.240373 0.911712 -0.333170
vn 0.391483 0.645415 -0.655882
vn 0.453437 0.374763 -0.808670
vn 0.527359 0.362419 -0.768470
vn 0.794677 -0.278045 0.539610
vn 0.917453 -0.175008 0.357285
vn 0.966025 -0.082517 0.244920
vn 0.807074 -0.514681 0.289371
vn 0.946749 -0.315934 0.062063
vn 0.968939 0.244748 0.035443
vn 0.939307 0.283027 0.193899
vn 0.930152 0.208823 0.302011
vn 0.974987 0.020624 0.221304
vn -0.755596 0.094520 -0.648183
vn -0.954347 -0.000000 -0.298699
vn -0.866723 0.121553 -0.483752
vn -0.982166 -0.059209 -0.178450
vn -0.972829 0.000000 -0.231525
vn -0.931272 0.202213 -0.303056
vn -0.829691 0.288513 -0.477884
vn -0.726296 0.205835 -0.655840
vn -0.676695 0.134694 -0.723838
vn 0.671501 0.307984 0.673967
vn 0.671501 0.307984 0.673967
vn 0.671501 0.307984 0.673967
vn 0.671501 0.307984 0.673967
vn 0.899877 0.301664 0.314994
vn 0.899877 0.301664 0.314994
vn 0.899877 0.301664 0.314994
vn 0.899877 0.301664 0.314994
vn 0.904049 -0.371042 -0.212186
vn 0.904049 -0.371042 -0.212186
vn 0.904049 -0.371042 -0.212186
vn 0.904049 -0.371042 -0.212186
vn 0.856370 0.504030 0.112179
vn 0.856370 0.504030 0.112179
vn 0.856370 0.504030 0.112179
vn 0.856370 0.504030 0.112179
vn 0.844026 0.471352 0.255828
vn 0.844026 0.471352 0.255828
vn 0.844026 0.471352 0.255828
vn 0.844025 0.471352 0.255828
vn 0.870384 0.450466 -0.198777
vn 0.870384 0.450466 -0.198777
vn 0.870384 0.450466 -0.198777
vn 0.870384 0.450466 -0.198777
vn 0.751372 0.656113 0.070400
vn 0.751372 0.656113 0.070400
vn 0.751372 0.656113 0.070400
vn 0.751372 0.656113 0.070400
vn 0.699844 0.279967 0.657143
vn 0.699844 0.279967 0.657143
vn 0.699844 0.279967 0.657143
vn 0.699844 0.279967 0.657143
vn 0.000000 -1.000000 -0.000000
vn 0.000000 -1.000000 -0.000000
vn 0.000000 -1.000000 0.000000
vn 0.000000 -1.000000 0.000000
vn -0.193143 -0.917899 0.346638
vn -0.193097 -0.917942 0.346549
vn -0.122881 -0.948501 0.291969
vn -0.121216 -0.949103 0.290707
vn -0.448571 -0.306473 0.839558
vn -0.438951 -0.225487 0.869757
vn -0.413080 -0.326001 0.850346
vn -0.436693 0.255642 0.862523
vn -0.461022 0.278785 0.842459
vn -0.388154 0.328222 0.861166
vn -0.165869 0.937308 0.306497
vn -0.166130 0.937599 0.305465
vn -0.173764 0.931436 0.319739
vn -0.173421 0.931480 0.319798
vn 0.209244 0.896098 -0.391440
vn 0.209310 0.895754 -0.392191
vn 0.165663 0.893223 -0.417981
vn 0.459660 0.397062 -0.794389
vn 0.459660 0.397061 -0.794390
vn 0.365085 0.402445 -0.839494
vn 0.445861 -0.468638 -0.762618
vn 0.445856 -0.468659 -0.762608
vn 0.448979 -0.439344 -0.778071
vn 0.449045 -0.438392 -0.778570
vn 0.450228 -0.419984 -0.787977
vn 0.450228 -0.419984 -0.787978
vn 0.448116 0.348295 -0.823336
vn 0.448116 0.348295 -0.823336
vn 0.200955 0.912845 -0.355431
vn 0.200955 0.912845 -0.355431
vn -0.181928 0.930366 0.318311
vn -0.181928 0.930366 0.318311
vn -0.438371 0.350762 0.827525
vn -0.441779 0.353313 0.824622
vn -0.453829 0.362326 0.814100
vn -0.453829 0.362326 0.814100
vn -0.428859 -0.331350 0.840409
vn -0.430276 -0.331396 0.839666
vn -0.424441 -0.331202 0.842707
vn -0.424441 -0.331202 0.842707
vn -0.076693 -0.963460 0.256637
vn -0.076693 -0.963460 0.256637
vn 0.000000 -1.000000 0.000000
vn 0.000000 -1.000000 0.000000
vn -0.714928 0.569629 -0.405464
vn -0.714928 0.569629 -0.405464
vn -0.714928 0.569629 -0.405464
vn -0.714928 0.569629 -0.405464
vn -0.834208 0.517516 -0.190457
vn -0.834208 0.517516 -0.190457
vn -0.834208 0.517516 -0.190457
vn -0.834208 0.517516 -0.190457
vn -0.927070 -0.167016 -0.335630
vn -0.927070 -0.167016 -0.335630
vn -0.927070 -0.167016 -0.335630
vn -0.927070 -0.167016 -0.335630
vn -0.987626 0.013751 0.156222
vn -0.987626 0.013751 0.156222
vn -0.987626 0.013751 0.156222
vn -0.987626 0.013751 0.156222
vn -0.862826 0.461737 -0.205743
vn -0.862826 0.461737 -0.205743
vn -0.862826 0.461737 -0.205743
vn -0.862826 0.461737 -0.205743
vn -0.476559 0.247793 -0.843499
vn -0.476559 0.247793 -0.843499
vn -0.476559 0.247793 -0.843499
vn -0.476559 0.247793 -0.843499
vn -0.241369 0.012904 -0.970347
vn -0.241370 0.012904 -0.970348
vn -0.241369 0.012904 -0.970348
vn -0.241370 0.012904 -0.970348
vn -0.610296 0.234244 -0.756749
vn -0.610296 0.234244 -0.756749
vn -0.610296 0.234244 -0.756749
vn -0.610296 0.234244 -0.756749
vn -0.857635 -0.166974 -0.486396
vn -0.857635 -0.166974 -0.486396
vn -0.857635 -0.166974 -0.486396
vn -0.857635 -0.166974 -0.486396
vn -0.985559 -0.079575 -0.149473
vn -0.985559 -0.079575 -0.149473
vn -0.985559 -0.079575 -0.149473
vn -0.985559 -0.079575 -0.149473
vn -0.843451 -0.169442 -0.509784
vn -0.843451 -0.169442 -0.509784
vn -0.843451 -0.169442 -0.509784
vn -0.843451 -0.169442 -0.509784
vn -0.578910 -0.403672 -0.708457
vn -0.578910 -0.403672 -0.708457
vn -0.578910 -0.403672 -0.708457
vn -0.578910 -0.403672 -0.708457
vn -0.509600 -0.623812 -0.592594
vn -0.509600 -0.623812 -0.592594
vn -0.509600 -0.623812 -0.592594
vn -0.509600 -0.623812 -0.592594
vn -0.720493 -0.514980 -0.464420
vn -0.720493 -0.514980 -0.464420
vn -0.720493 -0.514980 -0.464420
vn -0.720493 -0.514980 -0.464420
vn -0.759582 -0.141635 -0.634803
vn -0.759582 -0.141635 -0.634803
vn -0.759582 -0.141635 -0.634803
vn -0.759582 -0.141635 -0.634803
vn -0.611333 0.049982 -0.789794
vn -0.611333 0.049982 -0.789794
vn -0.611333 0.049982 -0.789794
vn -0.611333 0.049982 -0.789794
vn 0.000000 -1.000000 -0.000000
vn 0.000000 -1.000000 -0.000000
vn -0.194383 -0.916718 0.349061
vn -0.194383 -0.916718 0.349061
vn -0.452286 -0.295011 0.841669
vn -0.452286 -0.295011 0.841669
vn -0.466218 -0.293448 0.834583
vn -0.484568 0.250666 0.838069
vn -0.484568 0.250666 0.838069
vn -0.497715 0.250808 0.830286
vn -0.169156 0.940900 0.293416
vn -0.169156 0.940900 0.293416
vn 0.210810 0.887598 -0.409547
vn 0.210810 0.887598 -0.409547
vn 0.459592 0.398286 -0.793816
vn 0.459592 0.398286 -0.793816
vn 0.445060 -0.471867 -0.761094
vn 0.445060 -0.471867 -0.761094
s 1
g pCylinder24
usemtl initialShadingGroup
f 31/30/1 35/31/2 34/32/3
s 2
f 35/31/4 33/33/5 34/32/6
s 3
f 18/34/7 17/35/8 19/36/9
f 20/40/10 18/34/7 19/36/9
f 21/44/11 20/40/10 19/36/9
f 22/48/12 21/44/11 19/36/9
f 23/47/13 22/48/12 19/36/9
f 24/43/14 23/47/13 19/36/9
f 25/39/15 24/43/14 19/36/9
f 17/35/8 25/39/15 19/36/9
s 4
f 44/51/16 45/52/17 46/53/18
f 45/52/17 47/56/19 46/53/18
f 47/56/19 48/62/20 46/53/18
f 48/62/20 49/68/21 46/53/18
f 49/68/21 50/69/22 46/53/18
f 50/69/22 51/63/23 46/53/18
f 51/63/23 52/57/24 46/53/18
f 52/57/24 44/51/16 46/53/18
s off
f 2/37/25 1/38/26 17/35/27 18/34/28
f 3/42/29 2/37/30 18/34/31 20/40/32
f 4/46/33 3/42/34 20/40/35 21/44/36
f 5/50/37 4/46/38 21/44/39 22/48/40
f 6/49/41 5/50/42 22/48/43 23/47/44
f 7/45/45 6/49/46 23/47/47 24/43/48
f 8/41/49 7/45/50 24/43/51 25/39/52
f 1/38/53 8/41/54 25/39/55 17/35/56
s 5
f 53/80/57 54/81/58 27/82/59 26/83/60
s 6
f 54/81/61 55/86/62 28/87/63 27/82/64
s 7
f 55/25/65 56/24/66 62/20/67
s 8
f 56/24/68 57/21/69 62/20/70
s 9
f 57/92/71 58/93/72 31/94/73 30/95/74
s 1
f 58/93/75 59/98/76 32/99/77 31/94/1
s 2
f 59/1/78 60/2/79 33/3/5 32/4/80
s 12
f 60/2/81 53/7/82 26/8/83 33/3/84
f 33/3/84 26/8/83 9/10/85 16/11/86
s 2
f 34/12/6 33/3/5 16/11/87 15/13/88
s 1
f 31/94/1 34/103/3 15/104/89 14/100/90
s 9
f 30/95/74 31/94/73 14/100/91 13/101/92
s 8
f 29/16/93 30/17/94 13/18/95 12/19/96
s 7
f 28/22/97 29/16/98 12/19/99 11/23/100
s 6
f 27/82/64 28/87/63 11/91/101 10/88/102
s 5
f 26/83/60 27/82/59 10/88/103 9/89/104
s 1
f 31/76/1 32/77/77 35/78/2
s 2
f 32/77/80 33/79/5 35/78/4
s off
f 9/58/105 10/59/106 37/55/107 36/54/108
f 10/59/109 11/64/110 38/60/111 37/55/112
f 11/64/113 12/70/114 39/66/115 38/60/116
f 12/70/117 13/73/118 40/71/119 39/66/120
f 13/73/121 14/74/122 41/72/123 40/71/124
f 14/74/125 15/75/126 42/67/127 41/72/128
f 15/13/129 16/11/130 43/14/131 42/15/132
f 16/65/133 9/58/134 36/54/135 43/61/136
f 36/54/137 37/55/138 45/52/139 44/51/140
f 37/55/141 38/60/142 47/56/143 45/52/144
f 38/60/145 39/66/146 48/62/147 47/56/148
f 39/66/149 40/71/150 49/68/151 48/62/152
f 40/71/153 41/72/154 50/69/155 49/68/156
f 41/72/157 42/67/158 51/63/159 50/69/160
f 42/67/161 43/61/162 52/57/163 51/63/164
f 43/61/165 36/54/166 44/51/167 52/57/168
s 5
f 1/84/169 2/85/170 54/81/58 53/80/57
s 6
f 2/85/171 3/90/172 55/86/62 54/81/61
s 7
f 3/29/173 4/27/174 61/26/175 55/25/65
s 8
f 4/27/176 5/28/177 57/21/69 61/26/178
s 9
f 5/96/179 6/97/180 58/93/72 57/92/71
s 1
f 6/97/181 7/102/182 59/98/76 58/93/75
s 2
f 7/5/183 8/6/184 60/2/79 59/1/78
s 12
f 8/6/185 1/9/186 53/7/82 60/2/81
s 8
f 61/26/178 57/21/69 56/24/68
s 7
f 55/25/65 61/26/175 56/24/66
s 8
f 62/20/70 57/21/69 30/17/94 29/16/93
s 7
f 55/25/65 62/20/67 29/16/98 28/22/97
