# Blender v2.90.0 OBJ File: 'ArtAssets.blend'
# www.blender.org
mtllib WOH_Broken_Pillar_LyingDown.mtl
o WOH_Broken_Pillar_LyingDown
v -0.910744 3.666374 -0.794719
v 0.118945 2.177690 -2.043958
v 0.210546 2.603554 -2.807193
v 1.125429 0.037677 -3.549072
v 6.051735 -1.775966 3.301516
v 6.692953 -1.454930 2.414708
v 6.559736 0.037676 3.487911
v 5.410528 -1.244762 4.412149
v 6.427191 0.037676 5.509839
v 6.194648 1.320114 4.612956
v 6.051735 1.851318 3.301517
v 6.692947 1.320114 2.190905
v 6.958556 0.037676 1.730860
v -4.689040 -1.420585 -3.620214
v -5.044920 -1.420585 -2.992716
v -5.044920 0.037677 -2.992716
v -5.187213 -0.993470 -1.867439
v -5.400758 0.037677 -1.497540
v -5.187213 1.068824 -1.867439
v -4.671623 1.495939 -2.760435
v -4.156064 1.068824 -3.653430
v -3.942508 0.037677 -4.023330
v 6.480448 -3.591021 3.602564
v 7.677921 -3.591021 2.510715
v 5.437038 -2.528201 5.777995
v 6.603627 0.037675 7.252959
v 4.882536 2.603552 5.772974
v 5.538744 3.666373 2.454040
v 4.888377 2.603553 -0.087771
v 7.979820 0.037676 0.408317
v 3.082861 -3.591021 -0.205504
v 2.260948 -3.591021 1.218090
v -0.577430 -3.591021 -0.388221
v 0.418559 -3.591020 -1.783461
v 1.026318 -2.528201 3.356532
v -1.775592 -2.528200 1.817371
v 0.697793 0.037676 3.855940
v 0.253454 0.037676 3.908928
v 1.040894 2.603553 3.269161
v 2.418889 3.666373 0.944504
v -1.971861 2.603553 1.815596
v 3.486986 2.603554 -0.905497
v 0.794205 2.603554 -2.465585
v 4.041305 0.037677 -1.865590
v -4.440072 -3.591020 -4.794970
v -1.865574 0.037677 -5.022607
v -3.161204 2.603554 -4.796713
v -5.322683 3.666374 -3.205971
v -6.327602 2.603553 -0.784246
v -1.706010 0.037676 2.934086
v -6.258488 0.037676 0.567944
v -5.727082 -3.171583 -0.352482
v -5.325635 -3.591020 -3.233527
v -4.907318 -2.743934 -2.781057
v -4.228481 -2.743934 -3.978011
v -5.277842 -2.624323 -0.816119
v -6.298135 0.037676 -0.372116
v -6.582364 2.004573 -1.652722
v -5.598886 2.819288 -3.356091
v -3.923898 2.004573 -4.484446
v -2.932200 0.037677 -4.887794
v 0.938069 0.037676 4.259750
vt 0.848778 0.406324
vt 0.907812 0.406324
vt 0.892164 0.487981
vt 0.850550 0.475708
vt 0.756815 0.446952
vt 0.801526 0.496015
vt 0.730283 0.545039
vt 0.784618 0.545039
vt 0.746383 0.643125
vt 0.809865 0.594062
vt 0.868801 0.683753
vt 0.850550 0.614369
vt 0.940518 0.643125
vt 0.899573 0.594062
vt 0.983184 0.545039
vt 0.919880 0.545039
vt 0.253777 0.672434
vt 0.185158 0.672434
vt 0.178174 0.640052
vt 0.230775 0.640052
vt 0.082106 0.656400
vt 0.106042 0.635479
vt 0.041478 0.533719
vt 0.071841 0.533719
vt 0.084922 0.435633
vt 0.108804 0.458530
vt 0.184302 0.395004
vt 0.183993 0.427386
vt 0.278278 0.435633
vt 0.253363 0.458530
vt 0.656995 0.469196
vt 0.634143 0.371110
vt 0.653535 0.371110
vt 0.668417 0.446298
vt 0.310521 0.533719
vt 0.285671 0.533719
vt 0.182551 0.589464
vt 0.210127 0.589464
vt 0.142578 0.573137
vt 0.126251 0.533719
vt 0.142578 0.494301
vt 0.181996 0.477974
vt 0.221414 0.494301
vt 0.237741 0.533719
vt 0.053882 0.922459
vt 0.114920 0.865551
vt 0.141938 0.881831
vt 0.183985 0.783744
vt 0.854089 0.545039
vt 0.182551 0.533719
vt 0.482779 0.176589
vt 0.482779 0.113750
vt 0.556632 0.112676
vt 0.552897 0.177903
vt 0.482779 0.019357
vt 0.555157 0.016758
vt 0.550708 0.518254
vt 0.549920 0.616340
vt 0.541806 0.616340
vt 0.550005 0.714426
vt 0.566596 0.766025
vt 0.567299 0.869323
vt 0.482307 0.863260
vt 0.491053 0.756562
vt 0.567299 0.950983
vt 0.496825 0.951162
vt 0.482554 0.469196
vt 0.482554 0.371110
vt 0.558800 0.371110
vt 0.553028 0.469196
vt 0.482553 0.232395
vt 0.552672 0.232395
vt 0.682056 0.232395
vt 0.568343 0.469196
vt 0.481510 0.951316
vt 0.392858 0.952734
vt 0.368479 0.858758
vt 0.376192 0.759378
vt 0.492339 0.616340
vt 0.474461 0.714426
vt 0.359601 0.714426
vt 0.376267 0.616340
vt 0.478331 0.518254
vt 0.376267 0.493659
vt 0.657221 0.013065
vt 0.681969 0.116117
vt 0.682282 0.184736
vt 0.189437 0.783744
vt 0.277340 0.824373
vt 0.250475 0.840652
vt 0.319540 0.922459
vt 0.361908 0.174495
vt 0.373029 0.115460
vt 0.368860 0.023498
vt 0.664627 0.518254
vt 0.704207 0.616340
vt 0.559204 0.616340
vt 0.653696 0.714426
vt 0.670287 0.756562
vt 0.645577 0.878980
vt 0.604042 0.950697
vt 0.445811 0.469196
vt 0.379566 0.371110
vt 0.361682 0.232395
vn 0.6715 0.3080 0.6740
vn 0.8999 0.3017 0.3150
vn 0.9040 -0.3710 -0.2122
vn 0.8564 0.5040 0.1122
vn 0.8440 0.4714 0.2558
vn 0.8704 0.4505 -0.1988
vn 0.7514 0.6561 0.0704
vn 0.6998 0.2800 0.6571
vn -0.7149 0.5696 -0.4055
vn -0.8342 0.5175 -0.1905
vn -0.9271 -0.1670 -0.3356
vn -0.9876 0.0137 0.1562
vn -0.8628 0.4617 -0.2057
vn -0.4766 0.2478 -0.8435
vn -0.2414 0.0129 -0.9703
vn -0.6103 0.2342 -0.7567
vn -0.8576 -0.1670 -0.4864
vn -0.9856 -0.0796 -0.1495
vn -0.8435 -0.1694 -0.5098
vn -0.5789 -0.4037 -0.7085
vn -0.5096 -0.6238 -0.5926
vn -0.7205 -0.5150 -0.4644
vn -0.7596 -0.1416 -0.6348
vn -0.6113 0.0500 -0.7898
vn 0.2050 0.9075 -0.3667
vn 0.3287 0.7301 -0.5991
vn 0.2404 0.9117 -0.3332
vn 0.3915 0.6454 -0.6559
vn 0.4534 0.3748 -0.8087
vn 0.5273 0.3624 -0.7685
vn 0.7947 -0.2780 0.5396
vn 0.9175 -0.1750 0.3573
vn 0.9660 -0.0825 0.2449
vn 0.8071 -0.5147 0.2894
vn 0.9468 -0.3159 0.0621
vn 0.9689 0.2448 0.0354
vn 0.9393 0.2830 0.1939
vn 0.9301 0.2088 0.3020
vn 0.9750 0.0206 0.2213
vn -0.7556 0.0945 -0.6482
vn -0.9543 0.0000 -0.2987
vn -0.8667 0.1216 -0.4837
vn -0.9822 -0.0592 -0.1785
vn -0.9728 -0.0000 -0.2315
vn -0.9313 0.2021 -0.3030
vn -0.8297 0.2885 -0.4779
vn -0.7262 0.2056 -0.6561
vn -0.6767 0.1348 -0.7238
vn -0.0000 -1.0000 -0.0000
vn -0.1932 -0.9179 0.3467
vn -0.1930 -0.9180 0.3464
vn -0.1229 -0.9485 0.2920
vn -0.1212 -0.9491 0.2907
vn -0.4486 -0.3065 0.8396
vn -0.4390 -0.2255 0.8698
vn -0.4131 -0.3260 0.8504
vn -0.4367 0.2556 0.8625
vn -0.4610 0.2788 0.8425
vn -0.3881 0.3282 0.8612
vn -0.1659 0.9373 0.3065
vn -0.1661 0.9376 0.3055
vn -0.1737 0.9314 0.3197
vn -0.1734 0.9315 0.3198
vn 0.2092 0.8961 -0.3914
vn 0.2093 0.8957 -0.3922
vn 0.1657 0.8932 -0.4180
vn 0.4597 0.3971 -0.7944
vn 0.3651 0.4024 -0.8395
vn 0.4459 -0.4686 -0.7626
vn 0.4490 -0.4393 -0.7781
vn 0.4490 -0.4384 -0.7786
vn 0.4502 -0.4200 -0.7880
vn 0.4481 0.3483 -0.8233
vn 0.2010 0.9128 -0.3554
vn -0.1819 0.9304 0.3183
vn -0.4384 0.3508 0.8275
vn -0.4418 0.3533 0.8246
vn -0.4538 0.3623 0.8141
vn -0.4289 -0.3314 0.8404
vn -0.4303 -0.3314 0.8397
vn -0.4244 -0.3312 0.8427
vn -0.0767 -0.9635 0.2566
vn -0.1944 -0.9167 0.3491
vn -0.4523 -0.2950 0.8417
vn -0.4662 -0.2935 0.8346
vn -0.4846 0.2507 0.8381
vn -0.4977 0.2508 0.8303
vn -0.1692 0.9409 0.2934
vn 0.2108 0.8876 -0.4095
vn 0.4596 0.3983 -0.7938
vn 0.4451 -0.4719 -0.7611
usemtl initialShadingGroup.005
s off
f 23/1/1 24/2/1 6/3/1 5/4/1
f 25/5/2 23/1/2 5/4/2 8/6/2
f 26/7/3 25/5/3 8/6/3 9/8/3
f 27/9/4 26/7/4 9/8/4 10/10/4
f 28/11/5 27/9/5 10/10/5 11/12/5
f 29/13/6 28/11/6 11/12/6 12/14/6
f 30/15/7 29/13/7 12/14/7 13/16/7
f 24/2/8 30/15/8 13/16/8 6/3/8
f 45/17/9 53/18/9 54/19/9 55/20/9
f 53/18/10 52/21/10 56/22/10 54/19/10
f 52/21/11 51/23/11 57/24/11 56/22/11
f 51/23/12 49/25/12 58/26/12 57/24/12
f 49/25/13 48/27/13 59/28/13 58/26/13
f 48/27/14 47/29/14 60/30/14 59/28/14
f 47/31/15 46/32/15 61/33/15 60/34/15
f 46/35/16 45/17/16 55/20/16 61/36/16
f 55/20/17 54/19/17 15/37/17 14/38/17
f 54/19/18 56/22/18 17/39/18 15/37/18
f 56/22/19 57/24/19 18/40/19 17/39/19
f 57/24/20 58/26/20 19/41/20 18/40/20
f 58/26/21 59/28/21 20/42/21 19/41/21
f 59/28/22 60/30/22 21/43/22 20/42/22
f 60/30/23 61/36/23 22/44/23 21/43/23
f 61/36/24 55/20/24 14/38/24 22/44/24
s 1
f 1/45/25 2/46/26 3/47/27
f 2/46/28 4/48/29 3/47/30
f 5/4/31 6/3/32 7/49/33
f 8/6/34 5/4/31 7/49/33
f 9/8/35 8/6/34 7/49/33
f 10/10/36 9/8/35 7/49/33
f 11/12/37 10/10/36 7/49/33
f 12/14/38 11/12/37 7/49/33
f 13/16/39 12/14/38 7/49/33
f 6/3/32 13/16/39 7/49/33
f 14/38/40 15/37/41 16/50/42
f 15/37/41 17/39/43 16/50/42
f 17/39/43 18/40/44 16/50/42
f 18/40/44 19/41/45 16/50/42
f 19/41/45 20/42/46 16/50/42
f 20/42/46 21/43/47 16/50/42
f 21/43/47 22/44/48 16/50/42
f 22/44/48 14/38/40 16/50/42
f 31/51/49 32/52/49 33/53/49 34/54/49
f 32/52/50 35/55/51 36/56/52 33/53/53
f 35/57/54 37/58/55 38/59/56
f 37/58/57 39/60/58 38/59/59
f 39/61/60 40/62/61 1/63/62 41/64/63
f 40/62/64 42/65/65 43/66/66 1/63/25
f 42/67/67 44/68/67 4/69/29 43/70/68
f 44/68/69 31/71/69 34/72/70 4/69/71
f 4/69/71 34/72/70 45/73/72 46/32/72
f 3/74/30 4/69/29 46/32/73 47/31/73
f 1/63/25 3/75/27 47/76/74 48/77/74
f 41/64/63 1/63/62 48/77/75 49/78/75
f 50/79/76 41/80/77 49/81/78 51/82/78
f 36/83/79 50/79/80 51/82/81 52/84/81
f 33/53/53 36/56/52 52/85/82 53/86/82
f 34/54/49 33/53/49 53/86/49 45/87/49
f 1/88/25 43/89/66 2/90/26
f 43/89/68 4/91/29 2/90/28
f 24/92/49 23/93/49 32/52/49 31/51/49
f 23/93/83 25/94/83 35/55/51 32/52/50
f 25/95/84 26/96/84 62/97/85 35/57/54
f 26/96/86 27/98/86 39/60/58 62/97/87
f 27/99/88 28/100/88 40/62/61 39/61/60
f 28/100/89 29/101/89 42/65/65 40/62/64
f 29/102/90 30/103/90 44/68/67 42/67/67
f 30/103/91 24/104/91 31/71/69 44/68/69
f 62/97/87 39/60/58 37/58/57
f 35/57/54 62/97/85 37/58/55
f 38/59/59 39/60/58 41/80/77 50/79/76
f 35/57/54 38/59/56 50/79/80 36/83/79
