# This file uses meters as units for non-parametric coordinates.

mtllib WOH_Asset_Box.mtl
g default
v -49.306600 0.477111 49.306600
v 49.306600 0.477111 49.306600
v -49.306600 99.090311 49.306600
v 49.306600 99.090311 49.306600
v -49.306600 99.090311 -49.306600
v 49.306600 99.090311 -49.306600
v -49.306600 0.477111 -49.306600
v 49.306600 0.477111 -49.306600
v 49.306597 10.338427 -39.445278
v 49.306600 10.338427 39.445284
v 49.306600 89.228992 -39.445278
v 49.306597 89.228992 39.445284
v 49.306600 89.228992 -31.556223
v 49.306597 81.339931 -39.445281
v 49.306600 10.338427 31.556217
v 49.306597 18.227485 39.445275
v -39.445278 89.228989 -49.306600
v 39.445278 89.228989 -49.306600
v 39.445278 10.338430 -49.306600
v -39.445278 10.338430 -49.306600
v 31.556220 89.228989 -49.306600
v 39.445278 81.339929 -49.306600
v -31.556223 10.338430 -49.306600
v -39.445278 18.227488 -49.306600
v -49.306600 10.338430 -39.445278
v -49.306600 10.338430 39.445278
v -49.306600 89.228989 39.445278
v -49.306600 89.228989 -39.445278
v -39.445278 0.477111 -39.445278
v 39.445278 0.477111 -39.445278
v 39.445278 0.477111 39.445278
v -39.445278 0.477111 39.445278
v -39.445278 99.090311 39.445278
v 39.445278 99.090311 39.445278
v 39.445278 99.090311 -39.445278
v -39.445278 99.090311 -39.445278
v -39.445278 10.338430 49.306600
v 39.445278 10.338430 49.306600
v 39.445278 89.228989 49.306600
v -39.445278 89.228989 49.306600
v -49.306600 89.228989 31.556223
v -49.306600 81.339929 39.445278
v -49.306600 10.338430 -31.556223
v -49.306600 18.227488 -39.445278
v -31.556223 89.228989 49.306600
v -39.445278 81.339929 49.306600
v 31.556220 10.338430 49.306600
v 39.445278 18.227488 49.306600
v -39.445278 99.090311 31.556223
v -31.556223 99.090311 39.445278
v 39.445278 99.090311 -31.556220
v 31.556220 99.090311 -39.445278
v -31.556223 0.477111 -39.445278
v -39.445278 0.477111 -31.556223
v 31.556220 0.477111 39.445278
v 39.445278 0.477111 31.556220
v -31.556223 96.624983 39.445278
v 39.445278 96.624983 -31.556220
v 39.445278 96.624983 39.445278
v -39.445278 96.624983 31.556223
v 31.556220 96.624983 -39.445278
v -39.445278 96.624983 -39.445278
v 46.841272 89.228989 -31.556220
v 46.841272 18.227488 39.445278
v 46.841272 89.228989 39.445278
v 46.841272 10.338430 31.556220
v 46.841272 81.339929 -39.445278
v 46.841272 10.338430 -39.445278
v -39.445278 89.228989 -46.841272
v 31.556220 89.228989 -46.841272
v -39.445278 18.227488 -46.841272
v 39.445278 81.339929 -46.841272
v -31.556223 10.338430 -46.841272
v 39.445278 10.338430 -46.841272
v -46.841272 18.227488 -39.445278
v -46.841272 89.228989 31.556223
v -46.841272 89.228989 -39.445278
v -46.841272 81.339929 39.445278
v -46.841272 10.338430 -31.556223
v -46.841272 10.338430 39.445278
v -31.556220 89.228986 46.841272
v 39.445275 18.227491 46.841272
v 39.445275 89.228986 46.841272
v -39.445278 10.338430 46.841272
v 31.556220 10.338430 46.841272
v -39.445278 81.339929 46.841272
v -31.556223 2.942441 -39.445278
v 39.445278 2.942441 31.556220
v 39.445278 2.942441 -39.445278
v -39.445278 2.942441 -31.556223
v 31.556220 2.942441 39.445278
v -39.445278 2.942441 39.445278
vt 0.565467 0.300149
vt 0.716693 0.148105
vt 0.716693 0.300149
vt 0.407816 0.603241
vt 0.426298 0.603241
vt 0.592634 0.769578
vt 0.592634 0.788060
vt 0.235251 0.119455
vt 0.050432 0.304273
vt 0.050432 0.285792
vt 0.216769 0.119455
vt 0.592634 0.544996
vt 0.574152 0.544996
vt 0.407816 0.378659
vt 0.407816 0.360178
vt 0.783546 0.119602
vt 0.802028 0.119602
vt 0.968364 0.285939
vt 0.968364 0.304421
vt 0.296978 0.152156
vt 0.445698 0.300876
vt 0.296978 0.300876
vt 0.615736 0.568098
vt 0.384713 0.337075
vt 0.760444 0.096500
vt 0.384713 0.580139
vt 0.701886 0.119414
vt 0.991467 0.096500
vt 0.968364 0.119602
vt 0.991467 0.327523
vt 0.760444 0.327523
vt 0.783546 0.304421
vt 0.949883 0.304421
vt 0.783546 0.138085
vt 0.786548 0.146252
vt 0.940542 0.301044
vt 0.068914 0.304273
vt 0.027330 0.327376
vt 0.615736 0.337075
vt 0.615736 0.580139
vt 0.027330 0.096353
vt 0.050432 0.119455
vt 0.258353 0.096353
vt 0.258353 0.327376
vt 0.235251 0.304273
vt 0.235251 0.137937
vt 0.229186 0.300546
vt 0.081211 0.300546
vt 0.743470 0.096311
vt 0.268962 0.096312
vt 0.499985 0.096312
vt 0.476883 0.119414
vt 0.592634 0.603241
vt 0.310546 0.119414
vt 0.476883 0.285750
vt 0.499985 0.327334
vt 0.476883 0.304232
vt 0.268962 0.327334
vt 0.592634 0.360178
vt 0.426298 0.360178
vt 0.592634 0.526514
vt 0.615736 0.811162
vt 0.384713 0.811162
vt 0.407816 0.788060
vt 0.574152 0.788060
vt 0.720368 0.119414
vt 0.743470 0.327335
vt 0.720368 0.304233
vt 0.720368 0.137896
vt 0.554032 0.304233
vt 0.512448 0.327335
vt 0.535550 0.304233
vt 0.512448 0.096311
vt 0.292065 0.304232
vt 0.458401 0.304232
vt 0.292065 0.137896
vt 0.535550 0.119414
vt 0.535550 0.285751
vt 0.539225 0.123090
vt 0.407816 0.621723
vt 0.588249 0.754209
vt 0.442046 0.608005
vt 0.588249 0.608005
vt 0.413594 0.635456
vt 0.562313 0.784176
vt 0.384713 0.568098
vt 0.407816 0.544996
vt 0.417406 0.398574
vt 0.556059 0.537227
vt 0.417406 0.537227
vt 0.585824 0.508772
vt 0.442825 0.365773
vt 0.691677 0.123090
vt 0.413594 0.784176
vt 0.585824 0.365773
vt 0.539225 0.275949
vt 0.786548 0.300711
vt 0.965384 0.276626
vt 0.809106 0.121837
vt 0.965384 0.122955
vt 0.229186 0.152570
vt 0.203047 0.124998
vt 0.055586 0.272460
vt 0.055586 0.124998
vt 0.292065 0.119414
vt 0.471646 0.271401
vt 0.323399 0.124477
vt 0.471646 0.124454
vn 0.000000 0.000000 1.000000
vn 0.000000 0.000000 1.000000
vn 0.000000 0.000000 1.000000
vn 0.000000 1.000000 0.000000
vn 0.000000 1.000000 0.000000
vn 0.000000 1.000000 0.000000
vn 0.000000 1.000000 0.000000
vn 0.000000 0.000000 -1.000000
vn 0.000000 0.000000 -1.000000
vn 0.000000 0.000000 -1.000000
vn 0.000000 0.000000 -1.000000
vn 0.000000 -1.000000 0.000000
vn 0.000000 -1.000000 0.000000
vn 0.000000 -1.000000 0.000000
vn 0.000000 -1.000000 0.000000
vn 1.000000 -0.000000 0.000000
vn 1.000000 -0.000000 -0.000000
vn 1.000000 -0.000000 0.000000
vn 1.000000 -0.000000 -0.000000
vn -1.000000 0.000000 0.000000
vn -1.000000 0.000000 0.000000
vn -1.000000 0.000000 0.000000
vn 1.000000 0.000000 -0.000000
vn 1.000000 0.000000 0.000000
vn 1.000000 0.000000 0.000000
vn 1.000000 0.000000 0.000000
vn 1.000000 0.000000 -0.000000
vn 1.000000 0.000000 -0.000000
vn 1.000000 0.000000 0.000000
vn 1.000000 0.000000 -0.000000
vn 1.000000 0.000000 0.000000
vn 1.000000 0.000000 0.000000
vn 1.000000 0.000000 0.000000
vn 1.000000 0.000000 0.000000
vn 1.000000 0.000000 0.000000
vn 1.000000 0.000000 0.000000
vn 0.000000 0.000000 -1.000000
vn 0.000000 0.000000 -1.000000
vn 0.000000 0.000000 -1.000000
vn 0.000000 0.000000 -1.000000
vn 0.000000 0.000000 -1.000000
vn 0.000000 0.000000 -1.000000
vn 0.000000 0.000000 -1.000000
vn 0.000000 0.000000 -1.000000
vn 0.000000 0.000000 -1.000000
vn 0.000000 0.000000 -1.000000
vn 0.000000 0.000000 -1.000000
vn 0.000000 0.000000 -1.000000
vn 0.000000 0.000000 -1.000000
vn 0.000000 0.000000 -1.000000
vn -1.000000 0.000000 0.000000
vn -1.000000 0.000000 0.000000
vn -1.000000 0.000000 0.000000
vn -1.000000 0.000000 0.000000
vn -1.000000 0.000000 0.000000
vn -1.000000 0.000000 0.000000
vn -1.000000 0.000000 0.000000
vn -1.000000 0.000000 0.000000
vn -1.000000 0.000000 0.000000
vn -1.000000 0.000000 0.000000
vn -1.000000 0.000000 0.000000
vn -1.000000 0.000000 0.000000
vn 0.000000 -1.000000 0.000000
vn 0.000000 -1.000000 -0.000000
vn 0.000000 -1.000000 -0.000000
vn 0.000000 -1.000000 -0.000000
vn 0.000000 -1.000000 -0.000000
vn 0.000000 -1.000000 0.000000
vn 0.000000 1.000000 0.000000
vn 0.000000 1.000000 0.000000
vn 0.000000 1.000000 0.000000
vn 0.000000 1.000000 0.000000
vn 0.000000 1.000000 0.000000
vn 0.000000 1.000000 0.000000
vn 0.000000 1.000000 0.000000
vn 0.000000 1.000000 0.000000
vn 0.000000 0.000000 1.000000
vn 0.000000 0.000000 1.000000
vn -0.000000 0.000000 1.000000
vn 0.000000 0.000000 1.000000
vn 0.000000 0.000000 1.000000
vn -0.000000 0.000000 1.000000
vn -0.000000 0.000000 1.000000
vn 0.000000 0.000000 1.000000
vn -0.000000 0.000000 1.000000
vn 0.000000 0.000000 1.000000
vn 0.000000 0.000000 1.000000
vn 0.000000 0.000000 1.000000
vn -1.000000 0.000000 0.000000
vn -1.000000 0.000000 0.000000
vn -1.000000 0.000000 0.000000
vn 0.000000 0.000000 1.000000
vn 0.000000 0.000000 1.000000
vn 0.000000 0.000000 1.000000
vn 0.000000 1.000000 0.000000
vn 0.000000 1.000000 0.000000
vn 0.000000 1.000000 0.000000
vn 0.000000 1.000000 0.000000
vn 0.000000 1.000000 0.000000
vn 0.000000 1.000000 0.000000
vn 0.000000 -1.000000 0.000000
vn 0.000000 -1.000000 0.000000
vn 0.000000 -1.000000 0.000000
vn 0.000000 -1.000000 0.000000
vn 0.000000 -1.000000 0.000000
vn 0.000000 -1.000000 0.000000
vn 0.000000 -1.000000 0.000000
vn 0.000000 -1.000000 0.000000
vn 0.707107 0.000000 0.707107
vn 0.707107 0.000000 0.707107
vn 0.707107 0.000000 0.707107
vn 0.707107 0.000000 0.707107
vn 0.000000 0.000000 -1.000000
vn 0.000000 0.000000 -1.000000
vn 0.000000 0.000000 -1.000000
vn 0.000000 0.000000 -1.000000
vn -1.000000 0.000000 0.000000
vn -1.000000 0.000000 0.000000
vn -1.000000 0.000000 0.000000
vn -1.000000 0.000000 0.000000
vn -0.707107 0.000000 -0.707107
vn -0.707107 0.000000 -0.707107
vn -0.707107 0.000000 -0.707107
vn -0.707107 0.000000 -0.707107
vn 0.000000 0.000000 1.000000
vn 0.000000 0.000000 1.000000
vn 0.000000 0.000000 1.000000
vn 0.000000 0.000000 1.000000
vn 1.000000 0.000000 0.000000
vn 1.000000 0.000000 0.000000
vn 1.000000 0.000000 0.000000
vn 1.000000 0.000000 0.000000
vn 0.000001 0.707107 0.707106
vn 0.000001 0.707107 0.707106
vn 0.000001 0.707107 0.707106
vn 0.000001 0.707107 0.707106
vn 0.000001 -1.000000 0.000000
vn 0.000001 -1.000000 0.000000
vn 0.000001 -1.000000 0.000000
vn 0.000001 -1.000000 0.000000
vn 0.000001 0.000000 -1.000000
vn 0.000001 0.000000 -1.000000
vn 0.000001 0.000000 -1.000000
vn 0.000001 0.000000 -1.000000
vn -0.000001 -0.707107 -0.707107
vn -0.000001 -0.707107 -0.707107
vn -0.000001 -0.707107 -0.707107
vn -0.000001 -0.707107 -0.707107
vn 0.000001 1.000000 0.000000
vn 0.000001 1.000000 0.000000
vn 0.000001 1.000000 0.000000
vn 0.000001 1.000000 0.000000
vn 0.000001 0.000000 1.000000
vn 0.000001 0.000000 1.000000
vn 0.000001 0.000000 1.000000
vn 0.000001 0.000000 1.000000
vn 0.000000 -1.000000 0.000000
vn 0.000000 -1.000000 0.000000
vn 0.000000 -1.000000 0.000000
vn 0.000000 -1.000000 0.000000
vn -0.707107 0.707107 0.000000
vn -0.707107 0.707107 0.000000
vn -0.707107 0.707107 0.000000
vn -0.707107 0.707107 0.000000
vn 1.000000 0.000000 0.000000
vn 1.000000 0.000000 0.000000
vn 1.000000 0.000000 0.000000
vn 1.000000 0.000000 0.000000
vn 0.707107 -0.707107 0.000000
vn 0.707107 -0.707107 0.000000
vn 0.707107 -0.707107 0.000000
vn 0.707107 -0.707107 0.000000
vn -1.000000 0.000000 0.000000
vn -1.000000 0.000000 0.000000
vn -1.000000 0.000000 0.000000
vn -1.000000 0.000000 0.000000
vn 0.000000 1.000000 0.000000
vn 0.000000 1.000000 0.000000
vn 0.000000 1.000000 0.000000
vn 0.000000 1.000000 0.000000
vn 0.000000 0.707107 -0.707107
vn 0.000000 0.707107 -0.707107
vn 0.000000 0.707107 -0.707107
vn 0.000000 0.707107 -0.707107
vn 0.000000 -1.000000 0.000000
vn 0.000000 -1.000000 0.000000
vn 0.000000 -1.000000 0.000000
vn 0.000000 -1.000000 0.000000
vn 0.000000 0.000000 1.000000
vn 0.000000 0.000000 1.000000
vn 0.000000 0.000000 1.000000
vn 0.000000 0.000000 1.000000
vn 0.000000 -0.707107 0.707107
vn 0.000000 -0.707107 0.707107
vn 0.000000 -0.707107 0.707107
vn 0.000000 -0.707107 0.707107
vn 0.000000 1.000000 0.000000
vn 0.000000 1.000000 0.000000
vn 0.000000 1.000000 0.000000
vn 0.000000 1.000000 0.000000
vn 0.000000 0.000000 -1.000000
vn 0.000000 0.000000 -1.000000
vn 0.000000 0.000000 -1.000000
vn 0.000000 0.000000 -1.000000
vn 0.707107 0.707107 0.000000
vn 0.707107 0.707107 0.000000
vn 0.707107 0.707107 0.000000
vn 0.707107 0.707107 0.000000
vn -1.000000 0.000000 0.000001
vn -1.000000 0.000000 0.000001
vn -1.000000 0.000000 0.000001
vn -1.000000 0.000000 0.000001
vn 0.000000 -1.000000 0.000001
vn 0.000000 -1.000000 0.000001
vn 0.000000 -1.000000 0.000001
vn 0.000000 -1.000000 0.000001
vn 0.000000 1.000000 0.000000
vn 0.000000 1.000000 0.000000
vn 0.000000 1.000000 0.000000
vn 0.000000 1.000000 0.000000
vn -0.707107 -0.707107 0.000000
vn -0.707107 -0.707107 0.000000
vn -0.707107 -0.707107 0.000000
vn -0.707107 -0.707107 0.000000
vn 1.000000 0.000000 0.000000
vn 1.000000 0.000000 0.000000
vn 1.000000 0.000000 0.000000
vn 1.000000 0.000000 0.000000
vn 0.707107 0.000000 -0.707107
vn 0.707107 0.000000 -0.707107
vn 0.707107 0.000000 -0.707107
vn 0.707107 0.000000 -0.707107
vn 0.000000 0.000000 1.000000
vn 0.000000 0.000000 1.000000
vn 0.000000 0.000000 1.000000
vn 0.000000 0.000000 1.000000
vn -1.000000 0.000000 0.000000
vn -1.000000 0.000000 0.000000
vn -1.000000 0.000000 0.000000
vn -1.000000 0.000000 0.000000
vn -0.707107 0.000000 0.707107
vn -0.707107 0.000000 0.707107
vn -0.707107 0.000000 0.707107
vn -0.707107 0.000000 0.707107
vn 0.000000 0.000000 -1.000000
vn 0.000000 0.000000 -1.000000
vn 0.000000 0.000000 -1.000000
vn 0.000000 0.000000 -1.000000
vn 1.000000 0.000000 0.000000
vn 1.000000 0.000000 0.000000
vn 1.000000 0.000000 0.000000
vn 1.000000 0.000000 0.000000
s off
g pCube1
usemtl initialShadingGroup
f 81/1/1 82/2/2 83/3/3
s 1
f 33/4/4 50/5/5 51/6/6 35/7/7
s 2
f 20/8/8 18/9/9 22/10/10 23/11/11
s 3
f 29/12/12 53/13/13 56/14/14 31/15/15
s 4
f 10/16/16 15/17/17 14/18/18 11/19/19
s off
f 75/20/20 76/21/21 77/22/22
s 4
f 2/25/23 8/28/24 9/29/25 15/17/17
f 14/18/18 6/30/26 11/19/19
f 6/30/26 4/31/27 12/32/28 13/33/29
f 16/34/30 2/25/23 10/16/16
s off
f 64/35/31 63/36/32 65/97/33
f 67/98/34 66/99/35 68/100/36
s 4
f 10/16/16 11/19/19 13/33/29 16/34/30
s 2
f 21/37/37 6/38/38 18/9/9
f 6/38/38 8/41/39 19/42/40 22/10/10
f 23/11/11 7/43/41 20/8/8
f 7/43/41 5/44/42 17/45/43 24/46/44
s off
f 69/47/45 70/48/46 71/101/47
f 73/102/48 72/103/49 74/104/50
s 2
f 24/46/44 21/37/37 18/9/9 20/8/8
s 9
f 7/50/51 1/51/52 26/52/53 43/54/54
f 42/55/55 3/56/56 27/57/57
f 3/56/56 5/58/58 28/74/59 41/75/60
f 44/76/61 7/50/51 25/105/62
s 3
f 7/23/63 53/13/13 29/12/12
f 56/14/14 2/24/64 31/15/15
f 2/24/64 1/39/65 32/59/66 55/60/67
f 1/39/65 7/23/63 54/61/68 32/59/66
s 1
f 3/26/69 4/40/70 34/53/71 50/5/5
f 51/6/6 6/62/72 35/7/7
f 6/62/72 5/63/73 36/64/74 52/65/75
f 49/80/76 3/26/69 33/4/4
s 14
f 47/27/77 2/49/78 38/66/79
f 2/49/78 4/67/80 39/68/81 48/69/82
f 45/70/83 3/71/84 40/72/85
f 3/71/84 1/73/86 37/77/87 46/78/88
s off
f 78/106/89 79/107/90 80/108/91
s 9
f 25/105/62 27/57/57 41/75/60 44/76/61
f 25/105/62 43/54/54 42/55/55 27/57/57
f 1/51/52 3/56/56 42/55/55 26/52/53
f 3/56/56 41/75/60 27/57/57
f 7/50/51 43/54/54 25/105/62
f 5/58/58 7/50/51 44/76/61 28/74/59
s 2
f 5/44/42 6/38/38 21/37/37 17/45/43
f 6/38/38 22/10/10 18/9/9
f 8/41/39 7/43/41 23/11/11 19/42/40
f 7/43/41 24/46/44 20/8/8
s 4
f 4/31/27 2/25/23 16/34/30 12/32/28
f 2/25/23 15/17/17 10/16/16
f 6/30/26 13/33/29 11/19/19
f 8/28/24 6/30/26 14/18/18 9/29/25
s 14
f 2/49/78 48/69/82 38/66/79
f 1/73/86 2/49/78 47/27/77 37/77/87
f 4/67/80 3/71/84 45/70/83 39/68/81
f 3/71/84 46/78/88 40/72/85
f 46/78/88 47/27/77 38/66/79 40/72/85
s off
f 84/79/92 85/93/93 86/96/94
s 14
f 40/72/85 38/66/79 48/69/82 45/70/83
s 1
f 6/62/72 52/65/75 35/7/7
f 4/40/70 6/62/72 51/6/6 34/53/71
f 5/63/73 3/26/69 49/80/76 36/64/74
f 3/26/69 50/5/5 33/4/4
s off
f 58/81/95 57/82/96 59/83/97
f 60/84/98 61/85/99 62/94/100
s 1
f 33/4/4 35/7/7 52/65/75 49/80/76
s 3
f 8/86/101 2/24/64 56/14/14 30/87/102
f 2/24/64 55/60/67 31/15/15
f 54/61/68 7/23/63 29/12/12
f 7/23/63 8/86/101 30/87/102 53/13/13
s off
f 88/88/103 87/89/104 89/90/105
f 90/91/106 91/92/107 92/95/108
s 3
f 29/12/12 31/15/15 55/60/67 54/61/68
s off
f 51/6/109 50/5/110 57/82/111 58/81/112
f 50/5/113 34/53/114 59/83/115 57/82/116
f 34/53/117 51/6/118 58/81/119 59/83/120
f 49/80/121 52/65/122 61/85/123 60/84/124
f 52/65/125 36/64/126 62/94/127 61/85/128
f 36/64/129 49/80/130 60/84/131 62/94/132
f 16/34/133 13/33/134 63/36/135 64/35/136
f 13/33/137 12/32/138 65/97/139 63/36/140
f 12/32/141 16/34/142 64/35/143 65/97/144
f 14/18/145 15/17/146 66/99/147 67/98/148
f 15/17/149 9/29/150 68/100/151 66/99/152
f 9/29/153 14/18/154 67/98/155 68/100/156
f 17/45/157 21/37/158 70/48/159 69/47/160
f 21/37/161 24/46/162 71/101/163 70/48/164
f 24/46/165 17/45/166 69/47/167 71/101/168
f 23/11/169 22/10/170 72/103/171 73/102/172
f 22/10/173 19/42/174 74/104/175 72/103/176
f 19/42/177 23/11/178 73/102/179 74/104/180
f 44/76/181 41/75/182 76/21/183 75/20/184
f 41/75/185 28/74/186 77/22/187 76/21/188
f 28/74/189 44/76/190 75/20/191 77/22/192
f 42/55/193 43/54/194 79/107/195 78/106/196
f 43/54/197 26/52/198 80/108/199 79/107/200
f 26/52/201 42/55/202 78/106/203 80/108/204
f 45/70/205 48/69/206 82/2/207 81/1/208
f 48/69/209 39/68/210 83/3/211 82/2/212
f 39/68/213 45/70/214 81/1/215 83/3/216
f 37/77/217 47/27/218 85/93/219 84/79/220
f 47/27/221 46/78/222 86/96/223 85/93/224
f 46/78/225 37/77/226 84/79/227 86/96/228
f 56/14/229 53/13/230 87/89/231 88/88/232
f 53/13/233 30/87/234 89/90/235 87/89/236
f 30/87/237 56/14/238 88/88/239 89/90/240
f 54/61/241 55/60/242 91/92/243 90/91/244
f 55/60/245 32/59/246 92/95/247 91/92/248
f 32/59/249 54/61/250 90/91/251 92/95/252
