# This file uses centimeters as units for non-parametric coordinates.

mtllib TreePot01.mtl
g default
v 2.160114 -5.197469 -1.422465
v 1.039701 -5.197469 -2.393311
v -0.427728 -5.197469 -2.604296
v -1.776279 -5.197469 -1.988434
v -2.577789 -5.197469 -0.741260
v -2.577789 -5.197469 0.741259
v -1.776279 -5.197469 1.988436
v -0.427730 -5.197469 2.604296
v 1.039700 -5.197469 2.393311
v 2.160113 -5.197469 1.422468
v 2.577789 -5.197469 0.000001
v 2.160114 1.449987 -1.422465
v 1.039701 1.449987 -2.393311
v -0.427728 1.449987 -2.604296
v -1.776279 1.449987 -1.988434
v -2.577789 1.449987 -0.741260
v -2.577789 1.449987 0.741259
v -1.776279 1.449987 1.988436
v -0.427730 1.449987 2.604296
v 1.039700 1.449987 2.393311
v 2.160113 1.449987 1.422468
v 2.577789 1.449987 0.000001
v -0.053288 -0.707362 0.000001
v 1.750222 1.449987 -1.159046
v 0.837296 1.449987 -1.950104
v -0.358388 1.449987 -2.122017
v -1.457206 1.449987 -1.620205
v -2.110288 1.449987 -0.603989
v -2.110288 1.449987 0.603989
v -1.457206 1.449987 1.620206
v -0.358389 1.449987 2.122019
v 0.837292 1.449987 1.950105
v 1.750221 1.449987 1.159047
v 2.090551 1.449987 0.000001
v 1.750222 0.935437 -1.159046
v 0.837296 0.935437 -1.950104
v -0.053288 0.935438 0.000001
v -0.358388 0.935437 -2.122017
v -1.457206 0.935437 -1.620205
v -2.110288 0.935437 -0.603989
v -2.110288 0.935437 0.603989
v -1.457206 0.935437 1.620206
v -0.358389 0.935437 2.122019
v 0.837292 0.935437 1.950105
v 1.750221 0.935437 1.159047
v 2.090551 0.935437 0.000001
vt 0.631446 0.071775
vt 0.564909 0.014120
vt 0.477763 0.001590
vt 0.397678 0.038164
vt 0.350079 0.112229
vt 0.350079 0.200271
vt 0.397678 0.274336
vt 0.477763 0.310910
vt 0.564909 0.298380
vt 0.631446 0.240725
vt 0.656250 0.156250
vt 0.375000 0.312500
vt 0.397727 0.312500
vt 0.420455 0.312500
vt 0.443182 0.312500
vt 0.465909 0.312500
vt 0.488636 0.312500
vt 0.511364 0.312500
vt 0.534091 0.312500
vt 0.556818 0.312500
vt 0.579545 0.312500
vt 0.602273 0.312500
vt 0.625000 0.312500
vt 0.375000 0.688440
vt 0.397727 0.688440
vt 0.420455 0.688440
vt 0.443182 0.688440
vt 0.465909 0.688440
vt 0.488636 0.688440
vt 0.511364 0.688440
vt 0.534091 0.688440
vt 0.556818 0.688440
vt 0.579545 0.688440
vt 0.602273 0.688440
vt 0.625000 0.688440
vt 0.631446 0.759275
vt 0.564909 0.701620
vt 0.477763 0.689090
vt 0.397678 0.725664
vt 0.350079 0.799729
vt 0.350079 0.887771
vt 0.397678 0.961836
vt 0.477763 0.998410
vt 0.564909 0.985880
vt 0.631446 0.928225
vt 0.656250 0.843750
vt 0.500000 0.150000
vt 0.500000 0.837500
vt 0.631446 0.928225
vt 0.564909 0.985880
vt 0.477763 0.998410
vt 0.397678 0.961836
vt 0.350079 0.887771
vt 0.350079 0.799729
vt 0.397678 0.725664
vt 0.477763 0.689090
vt 0.564909 0.701620
vt 0.631446 0.759275
vt 0.656250 0.843750
vt 0.631446 0.928225
vt 0.564909 0.985880
vt 0.477763 0.998410
vt 0.397678 0.961836
vt 0.350079 0.887771
vt 0.350079 0.799729
vt 0.397678 0.725664
vt 0.477763 0.689090
vt 0.564909 0.701620
vt 0.631446 0.759275
vt 0.656250 0.843750
vn 0.654861 0.000000 -0.755749
vn 0.654861 0.000000 -0.755749
vn 0.654861 0.000000 -0.755749
vn 0.654861 0.000000 -0.755749
vn 0.142315 0.000000 -0.989821
vn 0.142315 0.000000 -0.989821
vn 0.142315 0.000000 -0.989821
vn 0.142315 0.000000 -0.989821
vn -0.415415 0.000000 -0.909632
vn -0.415415 0.000000 -0.909632
vn -0.415415 0.000000 -0.909632
vn -0.415415 0.000000 -0.909632
vn -0.841253 0.000000 -0.540641
vn -0.841253 0.000000 -0.540641
vn -0.841253 0.000000 -0.540641
vn -0.841253 0.000000 -0.540641
vn -1.000000 0.000000 0.000000
vn -1.000000 0.000000 0.000000
vn -1.000000 0.000000 0.000000
vn -1.000000 0.000000 0.000000
vn -0.841254 0.000000 0.540640
vn -0.841254 0.000000 0.540640
vn -0.841254 0.000000 0.540640
vn -0.841254 0.000000 0.540640
vn -0.415414 0.000000 0.909632
vn -0.415414 0.000000 0.909632
vn -0.415414 0.000000 0.909632
vn -0.415414 0.000000 0.909632
vn 0.142315 0.000000 0.989821
vn 0.142315 0.000000 0.989821
vn 0.142315 0.000000 0.989821
vn 0.142315 0.000000 0.989821
vn 0.654861 0.000000 0.755750
vn 0.654861 0.000000 0.755750
vn 0.654861 0.000000 0.755750
vn 0.654861 0.000000 0.755750
vn 0.959493 0.000000 0.281734
vn 0.959493 0.000000 0.281734
vn 0.959493 0.000000 0.281734
vn 0.959493 0.000000 0.281734
vn 0.959493 0.000000 -0.281733
vn 0.959493 0.000000 -0.281733
vn 0.959493 0.000000 -0.281733
vn 0.959493 0.000000 -0.281733
vn -0.358415 -0.505569 0.784818
vn -0.725822 -0.505569 0.466458
vn 0.000000 -1.000000 0.000000
vn 0.122787 -0.505569 0.854004
vn 0.565004 -0.505569 0.652051
vn 0.827838 -0.505569 0.243075
vn 0.827838 -0.505569 -0.243075
vn 0.565005 -0.505569 -0.652050
vn 0.122787 -0.505569 -0.854005
vn -0.358415 -0.505568 -0.784818
vn -0.725822 -0.505568 -0.466458
vn -0.862786 -0.505569 -0.000000
vn 0.000000 1.000000 -0.000000
vn 0.000000 1.000000 -0.000000
vn 0.000000 1.000000 0.000000
vn -0.000000 1.000000 -0.000000
vn -0.000000 1.000000 -0.000000
vn -0.000000 1.000000 -0.000000
vn -0.000000 1.000000 0.000000
vn -0.000000 1.000000 0.000000
vn -0.000000 1.000000 0.000000
vn 0.000000 1.000000 0.000000
vn 0.000000 1.000000 0.000000
vn 0.000000 1.000000 0.000000
vn 0.000000 1.000000 0.000000
vn 0.000000 1.000000 0.000000
vn 0.000000 1.000000 0.000000
vn 0.000000 1.000000 0.000000
vn 0.000000 1.000000 0.000000
vn 0.000000 1.000000 0.000000
vn 0.000000 1.000000 -0.000000
vn 0.000000 1.000000 -0.000000
vn 0.000000 1.000000 -0.000000
vn 0.000000 1.000000 -0.000000
vn 0.000000 1.000000 0.000000
vn 0.000000 1.000000 0.000000
vn 0.000000 1.000000 0.000000
vn 0.000000 1.000000 0.000000
vn 0.000000 1.000000 -0.000000
vn 0.000000 1.000000 -0.000000
vn 0.000000 1.000000 -0.000000
vn 0.000000 1.000000 -0.000000
vn 0.000000 1.000000 -0.000000
vn 0.000000 1.000000 -0.000000
vn 0.000000 1.000000 0.000000
vn 0.000000 1.000000 0.000000
vn -0.654862 0.000000 0.755748
vn -0.654862 0.000000 0.755748
vn -0.654862 0.000000 0.755748
vn -0.654862 0.000000 0.755748
vn -0.142315 0.000000 0.989822
vn -0.142315 0.000000 0.989822
vn -0.142315 0.000000 0.989822
vn -0.142315 0.000000 0.989822
vn 0.415414 0.000000 0.909632
vn 0.415414 0.000000 0.909632
vn 0.415414 0.000000 0.909632
vn 0.415414 0.000000 0.909632
vn 0.841254 0.000000 0.540641
vn 0.841254 0.000000 0.540641
vn 0.841254 0.000000 0.540641
vn 0.841254 0.000000 0.540641
vn 1.000000 0.000000 0.000000
vn 1.000000 0.000000 0.000000
vn 1.000000 0.000000 0.000000
vn 1.000000 0.000000 0.000000
vn 0.841254 0.000000 -0.540640
vn 0.841254 0.000000 -0.540640
vn 0.841254 0.000000 -0.540640
vn 0.841254 0.000000 -0.540640
vn 0.415415 0.000000 -0.909632
vn 0.415415 0.000000 -0.909632
vn 0.415415 0.000000 -0.909632
vn 0.415415 0.000000 -0.909632
vn -0.142315 0.000000 -0.989821
vn -0.142315 0.000000 -0.989821
vn -0.142315 0.000000 -0.989821
vn -0.142315 0.000000 -0.989821
vn -0.654861 0.000000 -0.755749
vn -0.654861 0.000000 -0.755749
vn -0.654861 0.000000 -0.755749
vn -0.654861 0.000000 -0.755749
vn -0.959492 0.000000 -0.281735
vn -0.959492 0.000000 -0.281735
vn -0.959492 0.000000 -0.281735
vn -0.959492 0.000000 -0.281735
vn -0.959493 0.000000 0.281734
vn -0.959493 0.000000 0.281734
vn -0.959493 0.000000 0.281734
vn -0.959493 0.000000 0.281734
s off
g pCylinder1
usemtl initialShadingGroup
f 1/12/1 2/13/2 13/25/3 12/24/4
f 2/13/5 3/14/6 14/26/7 13/25/8
f 3/14/9 4/15/10 15/27/11 14/26/12
f 4/15/13 5/16/14 16/28/15 15/27/16
f 5/16/17 6/17/18 17/29/19 16/28/20
f 6/17/21 7/18/22 18/30/23 17/29/24
f 7/18/25 8/19/26 19/31/27 18/30/28
f 8/19/29 9/20/30 20/32/31 19/31/32
f 9/20/33 10/21/34 21/33/35 20/32/36
f 10/21/37 11/22/38 22/34/39 21/33/40
f 11/22/41 1/23/42 12/35/43 22/34/44
s 1
f 2/2/45 1/1/46 23/47/47
f 3/3/48 2/2/45 23/47/47
f 4/4/49 3/3/48 23/47/47
f 5/5/50 4/4/49 23/47/47
f 6/6/51 5/5/50 23/47/47
f 7/7/52 6/6/51 23/47/47
f 8/8/53 7/7/52 23/47/47
f 9/9/54 8/8/53 23/47/47
f 10/10/55 9/9/54 23/47/47
f 11/11/56 10/10/55 23/47/47
f 1/1/46 11/11/56 23/47/47
s 2
f 35/60/57 36/61/58 37/48/59
f 36/61/58 38/62/60 37/48/59
f 38/62/60 39/63/61 37/48/59
f 39/63/61 40/64/62 37/48/59
f 40/64/62 41/65/63 37/48/59
f 41/65/63 42/66/64 37/48/59
f 42/66/64 43/67/65 37/48/59
f 43/67/65 44/68/66 37/48/59
f 44/68/66 45/69/67 37/48/59
f 45/69/67 46/70/68 37/48/59
f 46/70/68 35/60/57 37/48/59
s 3
f 12/45/69 13/44/70 25/50/71 24/49/72
f 13/44/70 14/43/73 26/51/74 25/50/71
f 14/43/73 15/42/75 27/52/76 26/51/74
f 15/42/75 16/41/77 28/53/78 27/52/76
f 16/41/77 17/40/79 29/54/80 28/53/78
f 17/40/79 18/39/81 30/55/82 29/54/80
f 18/39/81 19/38/83 31/56/84 30/55/82
f 19/38/83 20/37/85 32/57/86 31/56/84
f 20/37/85 21/36/87 33/58/88 32/57/86
f 21/36/87 22/46/89 34/59/90 33/58/88
f 22/46/89 12/45/69 24/49/72 34/59/90
s off
f 24/49/91 25/50/92 36/61/93 35/60/94
f 25/50/95 26/51/96 38/62/97 36/61/98
f 26/51/99 27/52/100 39/63/101 38/62/102
f 27/52/103 28/53/104 40/64/105 39/63/106
f 28/53/107 29/54/108 41/65/109 40/64/110
f 29/54/111 30/55/112 42/66/113 41/65/114
f 30/55/115 31/56/116 43/67/117 42/66/118
f 31/56/119 32/57/120 44/68/121 43/67/122
f 32/57/123 33/58/124 45/69/125 44/68/126
f 33/58/127 34/59/128 46/70/129 45/69/130
f 34/59/131 24/49/132 35/60/133 46/70/134
