# This file uses centimeters as units for non-parametric coordinates.

mtllib Wall01.mtl
g default
v -5.007965 7.321671 0.433625
v 2.104758 7.321671 0.433626
v 3.055583 7.321671 0.291569
v 3.705340 7.321671 -0.078934
v 4.210171 7.321671 -0.497098
v 4.591601 7.321671 -1.083555
v 5.007966 7.321671 -2.228585
v -5.007965 -2.009955 0.433625
v 2.104758 -2.009955 0.433626
v 3.055583 -2.009955 0.291569
v 3.705340 -2.009955 -0.078934
v 4.210171 -2.009955 -0.497098
v 4.591601 -2.009955 -1.083555
v 5.007966 -2.009955 -2.228585
v -5.007965 -2.009955 -0.166375
v -5.007965 7.321671 -0.166375
v 2.060181 7.321671 -0.166374
v 2.060184 -2.009955 -0.166374
v 2.855897 7.321671 -0.285257
v 2.855898 -2.009955 -0.285257
v 3.362788 7.321671 -0.574294
v 3.362790 -2.009955 -0.574296
v 3.757035 7.321671 -0.900859
v 3.757033 -2.009955 -0.900858
v 4.051188 7.321671 -1.353127
v 4.051188 -2.009955 -1.353127
v 4.444088 7.321671 -2.433626
v 4.444088 -2.009955 -2.433626
vt 0.000000 0.000000
vt 0.545455 0.000000
vt 0.636364 0.000000
vt 0.727273 0.000000
vt 0.818182 0.000000
vt 0.909091 0.000000
vt 1.000000 0.000000
vt 0.000000 1.000000
vt 0.545455 1.000000
vt 0.636364 1.000000
vt 0.727273 1.000000
vt 0.818182 1.000000
vt 0.909091 1.000000
vt 1.000000 1.000000
vt 0.000000 1.000000
vt 0.000000 0.000000
vt 0.545455 0.000000
vt 0.545455 1.000000
vt 0.636364 0.000000
vt 0.636364 1.000000
vt 0.727273 0.000000
vt 0.727273 1.000000
vt 0.818182 0.000000
vt 0.818182 1.000000
vt 0.909091 0.000000
vt 0.909091 1.000000
vt 1.000000 0.000000
vt 1.000000 1.000000
vt 0.000000 1.000000
vt 0.000000 0.000000
vt 0.545455 0.000000
vt 0.545455 1.000000
vt 0.636364 0.000000
vt 0.636364 1.000000
vt 0.727273 0.000000
vt 0.727273 1.000000
vt 0.818182 0.000000
vt 0.818182 1.000000
vt 0.909091 0.000000
vt 0.909091 1.000000
vt 1.000000 0.000000
vt 1.000000 1.000000
vn 0.000000 0.000000 -1.000000
vn 0.000000 0.000000 -1.000000
vn -0.015116 0.000000 -0.999886
vn -0.015116 0.000000 -0.999886
vn -0.298847 0.000000 -0.954301
vn -0.298847 0.000000 -0.954301
vn -0.564081 0.000000 -0.825720
vn -0.564081 0.000000 -0.825719
vn -0.749267 0.000000 -0.662268
vn -0.749267 0.000000 -0.662268
vn -0.912520 0.000000 -0.409032
vn -0.912520 0.000000 -0.409032
vn -0.939796 0.000000 -0.341736
vn -0.939796 0.000000 -0.341736
vn -0.000000 0.000000 1.000000
vn 0.017614 0.000000 0.999845
vn 0.017614 0.000000 0.999845
vn -0.000000 0.000000 1.000000
vn 0.304977 0.000000 0.952360
vn 0.304977 0.000000 0.952360
vn 0.564044 0.000000 0.825745
vn 0.564044 0.000000 0.825745
vn 0.749901 0.000000 0.661550
vn 0.749901 0.000000 0.661550
vn 0.908229 0.000000 0.418473
vn 0.908229 0.000000 0.418473
vn 0.939796 0.000000 0.341736
vn 0.939796 0.000000 0.341736
vn -1.000000 0.000000 0.000000
vn -1.000000 0.000000 0.000000
vn -1.000000 0.000000 0.000000
vn -1.000000 0.000000 0.000000
vn 0.000000 1.000000 0.000000
vn 0.000000 1.000000 0.000000
vn 0.000000 1.000000 -0.000000
vn 0.000000 1.000000 -0.000000
vn 0.000000 -1.000000 -0.000000
vn 0.000000 -1.000000 -0.000000
vn 0.000000 -1.000000 -0.000000
vn 0.000000 -1.000000 -0.000000
vn 0.000000 1.000000 0.000000
vn 0.000000 1.000000 0.000000
vn 0.000000 -1.000000 0.000000
vn 0.000000 -1.000000 0.000000
vn 0.000000 1.000000 0.000000
vn 0.000000 1.000000 0.000000
vn 0.000000 -1.000000 0.000000
vn 0.000000 -1.000000 0.000000
vn 0.000000 1.000000 0.000000
vn 0.000000 1.000000 0.000000
vn 0.000000 -1.000000 0.000000
vn 0.000000 -1.000000 0.000000
vn 0.000000 1.000000 -0.000000
vn 0.000000 1.000000 -0.000000
vn 0.000000 -1.000000 0.000000
vn 0.000000 -1.000000 0.000000
vn 0.000000 1.000000 -0.000000
vn 0.000000 1.000000 -0.000000
vn 0.341736 0.000000 -0.939796
vn 0.341736 0.000000 -0.939796
vn 0.341736 0.000000 -0.939796
vn 0.341736 0.000000 -0.939796
vn 0.000000 -1.000000 0.000000
vn 0.000000 -1.000000 0.000000
s 1
g pPlane1
usemtl initialShadingGroup
f 15/29/1 16/30/2 17/31/3 18/32/4
f 17/31/3 19/33/5 20/34/6 18/32/4
f 19/33/5 21/35/7 22/36/8 20/34/6
f 21/35/7 23/37/9 24/38/10 22/36/8
f 23/37/9 25/39/11 26/40/12 24/38/10
f 25/39/11 27/41/13 28/42/14 26/40/12
s 2
f 8/15/15 9/18/16 2/17/17 1/16/18
f 2/17/17 9/18/16 10/20/19 3/19/20
f 3/19/20 10/20/19 11/22/21 4/21/22
f 4/21/22 11/22/21 12/24/23 5/23/24
f 5/23/24 12/24/23 13/26/25 6/25/26
f 6/25/26 13/26/25 14/28/27 7/27/28
s off
f 8/8/29 1/1/30 16/30/31 15/29/32
s 3
f 16/30/33 1/1/34 2/2/35 17/31/36
s 4
f 18/32/37 9/9/38 8/8/39 15/29/40
s 3
f 2/2/35 3/3/41 19/33/42 17/31/36
s 4
f 10/10/43 9/9/38 18/32/37 20/34/44
s 3
f 3/3/41 4/4/45 21/35/46 19/33/42
s 4
f 11/11/47 10/10/43 20/34/44 22/36/48
s 3
f 4/4/45 5/5/49 23/37/50 21/35/46
s 4
f 12/12/51 11/11/47 22/36/48 24/38/52
s 3
f 5/5/49 6/6/53 25/39/54 23/37/50
s 4
f 13/13/55 12/12/51 24/38/52 26/40/56
s 3
f 6/6/53 7/7/57 27/41/58 25/39/54
s off
f 7/7/59 14/14/60 28/42/61 27/41/62
s 4
f 14/14/63 13/13/55 26/40/56 28/42/64
