# This file uses centimeters as units for non-parametric coordinates.

mtllib WOH_House_Base00.mtl
g default
v -1.960004 -0.000000 3.000000
v -2.000000 -0.000000 2.960004
v -2.000000 3.811811 2.960004
v -1.960004 3.811811 3.000000
v 2.000000 -0.000000 2.960004
v 1.960004 -0.000000 3.000000
v 1.960004 3.811811 3.000000
v 2.000000 3.811811 2.960004
v -1.960004 -0.000000 -3.000000
v -2.000000 -0.000000 -2.960004
v 2.000000 -0.000000 -2.960004
v 1.960004 -0.000000 -3.000000
v -2.200000 -4.000000 -3.160004
v -2.160004 -4.000000 -3.200000
v 2.200000 -4.000000 -3.160004
v 2.160004 -4.000000 -3.200000
v 2.160004 -4.000000 3.200000
v 2.200000 -4.000000 3.160004
v -2.200000 -4.000000 3.160004
v -2.160004 -4.000000 3.200000
v -1.960004 3.811811 -3.000000
v -2.000000 3.811811 -2.960004
v 2.000000 3.811811 -2.960004
v 1.960004 3.811811 -3.000000
v -2.137381 -0.000000 3.145384
v -2.160004 -0.054616 3.200000
v -2.200000 -0.054616 3.160004
v -2.145384 -0.000000 3.137381
v 2.145384 -0.000000 3.137381
v 2.200000 -0.054616 3.160004
v 2.160004 -0.054616 3.200000
v 2.137381 -0.000000 3.145384
v -2.145384 -0.000000 -3.137381
v -2.200000 -0.054616 -3.160004
v -2.160004 -0.054616 -3.200000
v -2.137381 -0.000000 -3.145384
v 2.137381 -0.000000 -3.145384
v 2.160004 -0.054616 -3.200000
v 2.200000 -0.054616 -3.160004
v 2.145384 -0.000000 -3.137381
v 2.079519 4.000000 3.051520
v 2.100000 3.979519 3.060004
v 2.079519 4.000000 -3.051520
v 2.100000 3.979519 -3.060004
v 2.051520 4.000000 3.079519
v 2.060004 3.979519 3.100000
v -2.051520 4.000000 3.079519
v -2.060004 3.979519 3.100000
v -2.079519 4.000000 3.051520
v -2.100000 3.979519 3.060004
v -2.079519 4.000000 -3.051520
v -2.100000 3.979519 -3.060004
v -2.051520 4.000000 -3.079519
v -2.060004 3.979519 -3.100000
v 2.051520 4.000000 -3.079519
v 2.060004 3.979519 -3.100000
v -2.045865 3.811811 3.065865
v -2.060004 3.845947 3.100000
v -2.065865 3.811811 3.045865
v -2.100000 3.845947 3.060004
v 2.045865 3.811811 3.065865
v 2.060004 3.845947 3.100000
v 2.065865 3.811811 3.045865
v 2.100000 3.845947 3.060004
v -2.065865 3.811811 -3.045865
v -2.100000 3.845947 -3.060004
v -2.045865 3.811811 -3.065865
v -2.060004 3.845947 -3.100000
v 2.045865 3.811811 -3.065865
v 2.060004 3.845947 -3.100000
v 2.065865 3.811811 -3.045865
v 2.100000 3.845947 -3.060004
vt 0.352627 0.620847
vt 0.350727 0.618958
vt 0.024668 0.440612
vt 0.026542 0.438699
vt 0.349903 0.433554
vt 0.351793 0.431654
vt 0.028409 0.628232
vt 0.026495 0.626357
vt 0.634500 0.617717
vt 0.632611 0.619617
vt 0.307045 0.435946
vt 0.308959 0.437820
vt 0.631776 0.430424
vt 0.633677 0.432314
vt 0.310786 0.623565
vt 0.308912 0.625478
vt 0.343889 0.627410
vt 0.952911 0.203446
vt 0.220262 0.203446
vt 0.342993 0.425175
vt 0.344249 0.627758
vt 0.950499 0.203446
vt 0.641063 0.626456
vt 0.681078 0.203446
vt 0.343341 0.424815
vt 0.222673 0.203446
vt 0.492094 0.203446
vt 0.640154 0.423513
vt 0.641411 0.626096
vt 0.678667 0.203446
vt 0.640515 0.423861
vt 0.494505 0.203446
vt 0.678667 0.035255
vt 0.681078 0.035255
vt 0.492094 0.035255
vt 0.494505 0.035255
vt 0.220262 0.035255
vt 0.222673 0.035255
vt 0.950499 0.035255
vt 0.952911 0.035255
vt 0.979568 0.627640
vt 0.487808 0.009573
vt 0.206349 0.009573
vt 0.675661 0.630334
vt 0.980932 0.626234
vt 0.490409 0.009573
vt 0.203747 0.009573
vt 0.674247 0.628953
vt 0.979145 0.421922
vt 0.679888 0.009573
vt 0.977731 0.420540
vt 0.682490 0.009573
vt 0.673824 0.423234
vt 0.963948 0.009573
vt 0.672461 0.424640
vt 0.014268 0.009573
vt 0.021512 0.436578
vt 0.679920 0.015716
vt 0.682522 0.015716
vt 0.022431 0.435621
vt 0.023418 0.630471
vt 0.490441 0.015716
vt 0.963981 0.015716
vt 0.311078 0.432788
vt 0.024376 0.631390
vt 0.487840 0.015716
vt 0.313023 0.628557
vt 0.206381 0.015716
vt 0.966582 0.015716
vt 0.312036 0.433707
vt 0.203780 0.015716
vt 0.313942 0.627600
vt 0.210395 0.216689
vt 0.498050 0.216689
vt 0.694022 0.216689
vt 0.981677 0.216689
vt 0.984425 0.216689
vt 0.207647 0.216689
vt 0.500799 0.216689
vt 0.691273 0.216689
vt 0.641614 0.419888
vt 0.644136 0.422401
vt 0.645028 0.627559
vt 0.642518 0.630080
vt 0.339375 0.423712
vt 0.341885 0.421191
vt 0.342790 0.631383
vt 0.340268 0.628870
vt 0.036100 0.035255
vt 0.036100 0.203446
vt 0.498050 0.401906
vt 0.210395 0.401906
vt 0.981677 0.401906
vt 0.694022 0.401906
vt 0.207647 0.401906
vt 0.017172 0.401906
vt 0.691273 0.401906
vt 0.500799 0.401906
vt 0.316221 0.628473
vt 0.313907 0.630826
vt 0.314304 0.432822
vt 0.311950 0.430506
vt 0.023504 0.633671
vt 0.021149 0.631356
vt 0.021547 0.433351
vt 0.019233 0.435704
vt 0.672813 0.629486
vt 0.671021 0.424107
vt 0.673282 0.421801
vt 0.978266 0.419100
vt 0.980579 0.421388
vt 0.982372 0.626768
vt 0.675127 0.631774
vt 0.980110 0.629073
vt 0.017172 0.216689
vt 0.984425 0.401906
vt 0.966550 0.009573
vt 0.014301 0.015716
vn -0.999977 0.000000 0.006711
vn -0.010099 0.000000 0.999949
vn -0.010099 0.000000 0.999949
vn -0.999977 0.000000 0.006711
vn 0.010099 0.000000 0.999949
vn 0.999977 0.000000 0.006711
vn 0.999977 0.000000 0.006711
vn 0.010099 0.000000 0.999949
vn -0.010099 0.000000 -0.999949
vn -0.999977 0.000000 -0.006711
vn -0.999977 0.000000 -0.006711
vn -0.010099 0.000000 -0.999949
vn 0.999977 0.000000 -0.006711
vn 0.010099 0.000000 -0.999949
vn 0.010099 0.000000 -0.999949
vn 0.999977 0.000000 -0.006711
vn -0.002518 0.891287 0.453432
vn -0.009132 0.011131 0.999896
vn 0.009132 0.011131 0.999896
vn 0.002518 0.891287 0.453432
vn -0.452320 0.891854 0.001717
vn -0.999918 0.011154 0.006260
vn -0.452320 0.891854 -0.001717
vn -0.999918 0.011154 -0.006260
vn 0.452320 0.891854 0.001717
vn 0.999918 0.011154 0.006260
vn 0.999918 0.011154 -0.006260
vn 0.452320 0.891854 -0.001717
vn -0.002518 0.891287 -0.453432
vn -0.009132 0.011131 -0.999896
vn 0.002518 0.891287 -0.453432
vn 0.009132 0.011131 -0.999896
vn 0.000000 1.000000 -0.000000
vn 0.000000 1.000000 0.000000
vn 0.000000 1.000000 0.000000
vn 0.000000 1.000000 -0.000000
vn 0.000000 1.000000 0.000000
vn 0.000000 1.000000 0.000000
vn -0.009173 0.000000 -0.999958
vn -0.999980 0.000000 -0.006289
vn 0.000000 1.000000 0.000000
vn 0.000000 1.000000 0.000000
vn 0.999980 0.000000 -0.006289
vn 0.009173 0.000000 -0.999958
vn 0.009173 0.000000 0.999958
vn 0.999980 0.000000 0.006289
vn -0.999980 0.000000 0.006289
vn -0.009173 0.000000 0.999958
vn 0.343516 0.939145 0.001900
vn 0.993816 0.110854 0.006346
vn 0.993816 0.110854 -0.006346
vn 0.343516 0.939145 -0.001900
vn 0.000032 0.999992 0.003940
vn 0.009399 0.110863 0.993791
vn 0.009399 0.110863 -0.993791
vn 0.000032 0.999992 -0.003940
vn -0.000032 0.999992 0.003940
vn -0.009399 0.110863 0.993791
vn -0.343516 0.939145 0.001900
vn -0.993816 0.110854 0.006346
vn -0.343516 0.939145 -0.001900
vn -0.993816 0.110854 -0.006346
vn -0.000032 0.999992 -0.003940
vn -0.009399 0.110863 -0.993791
vn -0.003691 -0.860823 0.508891
vn -0.009073 -0.170169 0.985373
vn -0.985378 -0.170270 0.006125
vn -0.509707 -0.860344 0.002492
vn 0.003691 -0.860823 0.508891
vn 0.009073 -0.170169 0.985373
vn -0.985378 -0.170270 -0.006125
vn -0.509707 -0.860344 -0.002492
vn 0.509707 -0.860344 0.002492
vn 0.985378 -0.170270 0.006125
vn 0.509707 -0.860344 -0.002492
vn 0.985378 -0.170270 -0.006125
vn -0.009073 -0.170169 -0.985373
vn -0.003691 -0.860823 -0.508891
vn 0.009073 -0.170169 -0.985373
vn 0.003691 -0.860823 -0.508891
vn 0.000000 -1.000000 -0.000000
vn 0.000000 -1.000000 -0.000001
vn 0.000000 -1.000000 -0.000001
vn 0.000000 -1.000000 0.000000
vn 0.000000 -1.000000 0.000001
vn 0.000000 -1.000000 0.000000
vn 0.000000 -1.000000 0.000000
vn 0.000000 -1.000000 0.000001
s 1
g ENV_Building_Base00
usemtl lambert5SG
f 2/74/1 1/79/2 4/98/3 3/91/4
f 6/80/5 5/75/6 8/94/7 7/97/8
f 9/78/9 10/73/10 22/92/11 21/95/12
f 11/76/13 12/77/14 24/116/15 23/93/16
f 1/79/2 6/80/5 7/97/8 4/98/3
f 21/95/12 24/96/15 12/115/14 9/78/9
f 5/75/6 11/76/13 23/93/16 8/94/7
f 10/73/10 2/74/1 3/91/4 22/92/11
s 3
f 25/17/17 26/88/18 31/85/19 32/20/20
f 26/88/18 25/17/17 28/21/21 27/87/22
f 27/87/22 28/21/21 33/23/23 34/84/24
f 29/25/25 30/86/26 39/81/27 40/28/28
f 30/86/26 29/25/25 32/20/20 31/85/19
f 34/84/24 33/23/23 36/29/29 35/83/30
f 35/83/30 36/29/29 37/31/31 38/82/32
f 38/82/32 37/31/31 40/28/28 39/81/27
f 1/2/33 2/1/34 28/21/21 25/17/17
f 5/6/35 6/5/36 32/20/20 29/25/25
f 10/10/37 9/9/38 36/29/29 33/23/23
f 34/24/24 35/30/30 14/33/39 13/34/40
f 12/14/41 11/13/42 40/28/28 37/31/31
f 38/32/32 39/27/27 15/35/43 16/36/44
f 30/26/26 31/19/19 17/37/45 18/38/46
f 26/18/18 27/22/22 19/39/47 20/40/48
f 9/9/38 12/14/41 37/31/31 36/29/29
f 11/13/42 5/6/35 29/25/25 40/28/28
f 6/5/36 1/2/33 25/17/17 32/20/20
f 2/1/34 10/10/37 33/23/23 28/21/21
f 35/30/30 38/32/32 16/36/44 14/33/39
f 39/27/27 30/26/26 18/38/46 15/35/43
f 31/19/19 26/90/18 20/89/48 17/37/45
f 27/22/22 34/24/24 13/34/40 19/39/47
s 4
f 41/41/49 42/114/50 44/113/51 43/44/52
f 42/114/50 41/41/49 45/45/53 46/112/54
f 43/44/52 44/113/51 56/107/55 55/48/56
f 46/112/54 45/45/53 47/49/57 48/111/58
f 48/111/58 47/49/57 49/51/59 50/110/60
f 50/110/60 49/51/59 51/53/61 52/109/62
f 52/109/62 51/53/61 53/55/63 54/108/64
f 54/108/64 53/55/63 55/48/56 56/107/55
f 53/55/63 47/49/57 45/45/53 55/48/56
f 57/57/65 58/106/66 60/105/67 59/60/68
f 58/106/66 57/57/65 61/61/69 62/104/70
f 59/60/68 60/105/67 66/102/71 65/64/72
f 62/104/70 61/61/69 63/65/73 64/103/74
f 64/103/74 63/65/73 71/67/75 72/100/76
f 65/64/72 66/102/71 68/101/77 67/70/78
f 67/70/78 68/101/77 70/99/79 69/72/80
f 69/72/80 70/99/79 72/100/76 71/67/75
f 3/4/81 4/3/82 57/57/65 59/60/68
f 7/8/83 8/7/84 63/65/73 61/61/69
f 21/12/85 22/11/86 65/64/72 67/70/78
f 23/16/87 24/15/88 69/72/80 71/67/75
f 4/3/82 7/8/83 61/61/69 57/57/65
f 22/11/86 3/4/81 59/60/68 65/64/72
f 24/15/88 21/12/85 67/70/78 69/72/80
f 8/7/84 23/16/87 71/67/75 63/65/73
f 62/62/70 64/66/74 42/42/50 46/46/54
f 60/59/67 58/58/66 48/50/58 50/52/60
f 68/69/77 66/63/71 52/54/62 54/117/64
f 72/68/76 70/71/79 56/47/55 44/43/51
f 58/58/66 62/62/70 46/46/54 48/50/58
f 66/63/71 60/59/67 50/52/60 52/54/62
f 68/118/77 54/56/64 56/47/55 70/71/79
f 64/66/74 72/68/76 44/43/51 42/42/50
f 55/48/56 45/45/53 41/41/49 43/44/52
f 49/51/59 47/49/57 53/55/63 51/53/61
