# This file uses centimeters as units for non-parametric coordinates.

mtllib WOH_House_Door00.mtl
g default
v -0.094948 -1.250000 0.625000
v -0.094948 -1.250000 -0.625000
v 0.105432 -1.250000 -0.458997
v 0.105432 1.095083 -0.458997
v 0.105432 -1.250000 0.458997
v 0.105432 1.095083 0.458997
v 0.105432 0.686404 0.458997
v -0.094948 0.603307 0.625000
v -0.094948 0.603307 -0.625000
v 0.105432 0.686404 -0.458997
v 0.105432 0.520209 0.458997
v 0.105432 0.520209 -0.458997
v 0.105432 -0.549809 -0.458997
v 0.105432 -0.549809 0.458997
v -0.094948 -0.655986 0.625000
v -0.094948 -0.655986 -0.625000
v 0.105432 -0.762164 -0.458997
v 0.105432 -0.762164 0.458997
v 0.190511 -1.250000 0.481841
v 0.167667 -1.250000 0.458997
v 0.190511 -0.655986 0.481841
v 0.167667 -0.655986 0.458997
v 0.167667 -1.250000 0.625000
v 0.190511 -1.250000 0.602156
v 0.167667 -0.655986 0.625000
v 0.190511 -0.655986 0.602156
v 0.167667 -0.655986 -0.458997
v 0.190511 -0.655986 -0.481841
v 0.190511 -1.250000 -0.481841
v 0.167667 -1.250000 -0.458997
v 0.190511 -0.655986 -0.602156
v 0.167667 -0.655986 -0.625000
v 0.190511 -1.250000 -0.602156
v 0.167667 -1.250000 -0.625000
v 0.167667 1.095083 0.458997
v 0.190511 1.117926 0.481841
v 0.190511 1.117926 -0.481841
v 0.167667 1.095083 -0.458997
v 0.167667 0.603307 0.458997
v 0.190511 0.603307 0.481841
v 0.190511 0.603307 0.602156
v 0.167667 0.603307 0.625000
v 0.190511 0.603307 -0.481841
v 0.167667 0.603307 -0.458997
v 0.167667 0.603307 -0.625000
v 0.190511 0.603307 -0.602156
v 0.045772 -0.159883 0.371775
v 0.045772 -0.140191 0.391467
v 0.169799 -0.140191 0.371775
v 0.150108 -0.140191 0.391467
v 0.150108 -0.159883 0.371775
v 0.045772 0.067408 0.371775
v 0.045772 0.047717 0.391467
v 0.150108 0.067408 0.371775
v 0.150108 0.047717 0.391467
v 0.169799 0.047717 0.371775
v 0.045772 0.047717 0.301479
v 0.045772 0.067408 0.321170
v 0.150108 0.047717 0.301479
v 0.150108 0.067408 0.321170
v 0.169799 0.047717 0.321170
v 0.045772 -0.159883 0.321170
v 0.045772 -0.140191 0.301479
v 0.150108 -0.159883 0.321170
v 0.150108 -0.140191 0.301479
v 0.169799 -0.140191 0.321170
v 0.144819 0.666713 0.458997
v 0.125128 0.686404 0.458997
v 0.144819 0.666713 -0.458997
v 0.125128 0.686404 -0.458997
v 0.144819 0.539900 0.458997
v 0.144819 0.506222 0.458997
v 0.125128 0.520209 0.458997
v 0.144819 0.539900 -0.458997
v 0.125128 0.520209 -0.458997
v 0.144819 0.506222 -0.458997
v 0.147757 -0.563459 0.458997
v 0.144819 -0.569500 0.458997
v 0.125128 -0.549809 0.458997
v 0.144819 -0.535845 0.458997
v 0.147757 -0.563459 -0.458997
v 0.144819 -0.535845 -0.458997
v 0.125128 -0.549809 -0.458997
v 0.144819 -0.569500 -0.458997
v 0.144819 -0.742473 0.458997
v 0.125128 -0.762164 0.458997
v 0.144819 -0.742473 -0.458997
v 0.125128 -0.762164 -0.458997
v 0.190511 1.215856 0.590487
v 0.167667 1.227021 0.625000
v 0.167667 1.250000 0.602021
v 0.167667 1.250000 -0.602021
v 0.167667 1.227021 -0.625000
v 0.190511 1.215856 -0.590487
v -0.094948 1.250000 0.602021
v -0.094948 1.227021 0.625000
v -0.094948 1.227021 -0.625000
v -0.094948 1.250000 -0.602021
vt 0.219454 0.720807
vt 0.011255 0.547535
vt 0.075138 0.547535
vt 0.616630 0.547535
vt 0.232219 0.704787
vt 0.198596 0.556073
vt 0.330142 0.611890
vt 0.218462 0.727837
vt 0.481200 0.547535
vt 0.210568 0.547535
vt 0.277645 0.547535
vt 0.281140 0.547535
vt 0.410628 0.547535
vt 0.414123 0.547535
vt 0.206884 0.822683
vt 0.200432 0.775793
vt 0.314035 0.795934
vt 0.327002 0.827116
vt 0.332267 0.777537
vt 0.214083 0.790674
vt 0.195829 0.759205
vt 0.314051 0.776949
vt 0.327949 0.760494
vt 0.214099 0.771689
vt 0.199261 0.635521
vt 0.323233 0.759076
vt 0.334376 0.634284
vt 0.218319 0.753047
vt 0.194609 0.613698
vt 0.323376 0.733867
vt 0.218449 0.730089
vt 0.191534 0.556132
vt 0.338187 0.555466
vt 0.332424 0.611924
vt 0.193730 0.822222
vt 0.198197 0.775810
vt 0.314037 0.793789
vt 0.334213 0.827218
vt 0.330231 0.760528
vt 0.214097 0.773833
vt 0.195797 0.755384
vt 0.194806 0.637143
vt 0.197027 0.635540
vt 0.323246 0.756825
vt 0.334319 0.638184
vt 0.332537 0.758941
vt 0.187868 0.556163
vt 0.174217 0.556278
vt 0.170551 0.556308
vt 0.680512 0.519292
vt 0.355873 0.555727
vt 0.341931 0.555521
vt 0.192099 0.623533
vt 0.188433 0.623563
vt 0.193297 0.766420
vt 0.189631 0.766450
vt 0.174781 0.623678
vt 0.075138 0.519292
vt 0.175980 0.766561
vt 0.172315 0.766599
vt 0.337172 0.624301
vt 0.340915 0.624356
vt 0.338762 0.770283
vt 0.335019 0.770229
vt 0.354858 0.624562
vt 0.616630 0.519292
vt 0.481200 0.519292
vt 0.352704 0.770485
vt 0.204546 0.832780
vt 0.337920 0.829918
vt 0.193068 0.843325
vt 0.350351 0.841444
vt 0.242802 0.650925
vt 0.241834 0.648019
vt 0.223517 0.639338
vt 0.211367 0.652311
vt 0.211759 0.674071
vt 0.212725 0.676977
vt 0.231029 0.685666
vt 0.243196 0.672689
vt 0.194446 0.634013
vt 0.334706 0.634989
vt 0.223460 0.650446
vt 0.221763 0.653170
vt 0.224336 0.653227
vt 0.229746 0.650250
vt 0.229098 0.652980
vt 0.225464 0.672019
vt 0.222916 0.672175
vt 0.224815 0.674749
vt 0.230226 0.671774
vt 0.231101 0.674557
vt 0.232800 0.671832
vt 0.231646 0.652823
vt 0.191880 0.847715
vt 0.277645 0.519292
vt 0.410628 0.519292
vt 0.355123 0.842825
vt 0.482736 0.610379
vt 0.379725 0.610379
vt 0.482736 0.615548
vt 0.379725 0.615548
vt 0.379725 0.736768
vt 0.482736 0.736768
vt 0.482736 0.746330
vt 0.379725 0.746330
vt 0.482736 0.793740
vt 0.379725 0.793740
vt 0.379725 0.556515
vt 0.482737 0.556515
vt 0.356447 0.770548
vt 0.414123 0.519292
vt 0.320183 0.846496
vt 0.281140 0.519292
vt 0.189120 0.845624
vt 0.210568 0.519292
vt 0.219060 0.700138
vt 0.359617 0.555782
vt 0.358602 0.624617
vt 0.171116 0.623709
vt 0.317443 0.698264
vt 0.011255 0.519292
vt 0.220824 0.698306
vt 0.230294 0.698125
vt 0.232126 0.699889
vt 0.315611 0.696500
vt 0.304378 0.698513
vt 0.306142 0.696681
vt 0.680512 0.547535
vt 0.330975 0.555360
vt 0.317837 0.718934
vt 0.304471 0.703411
vt 0.323394 0.730684
vt 0.334672 0.614240
vt 0.218431 0.733273
vt 0.196825 0.611445
vt 0.323264 0.753641
vt 0.332061 0.636532
vt 0.218301 0.756230
vt 0.194774 0.633325
vt 0.314054 0.773917
vt 0.332479 0.762843
vt 0.214094 0.776865
vt 0.198044 0.756952
vt 0.314040 0.790757
vt 0.329953 0.779787
vt 0.214080 0.793706
vt 0.195945 0.773593
vt 0.329779 0.636498
vt 0.218288 0.758482
vt 0.314056 0.771772
vt 0.200279 0.756934
vt 0.327671 0.779755
vt 0.214079 0.795850
vt 0.323407 0.728432
vt 0.199059 0.611426
vt 0.200791 0.822167
vt 0.304706 0.821754
vt 0.322903 0.844353
vt 0.173160 0.837373
vt 0.177841 0.836050
vt 0.190084 0.824843
vt 0.307236 0.831805
vt 0.318912 0.842130
vt 0.304769 0.828385
vt 0.206947 0.829314
vt 0.242556 0.675780
vt 0.225552 0.685831
vt 0.228994 0.639167
vt 0.212007 0.649221
vn 0.000000 -1.000000 -0.000000
vn 0.000000 -1.000000 -0.000000
vn 0.000000 -1.000000 0.000000
vn 0.000000 -1.000000 0.000000
vn 1.000000 0.000000 0.000000
vn 1.000000 0.000000 0.000000
vn 1.000000 0.000000 0.000000
vn 1.000000 0.000000 0.000000
vn 1.000000 0.000000 0.000000
vn 1.000000 0.000000 0.000000
vn 1.000000 0.000000 0.000000
vn 1.000000 0.000000 0.000000
vn 1.000000 0.000000 0.000000
vn 1.000000 0.000000 0.000000
vn 1.000000 0.000000 0.000000
vn 1.000000 0.000000 0.000000
vn 1.000000 0.000000 0.000000
vn 1.000000 0.000000 0.000000
vn 1.000000 0.000000 0.000000
vn 1.000000 0.000000 0.000000
vn 1.000000 0.000000 0.000000
vn 1.000000 0.000000 0.000000
vn 1.000000 0.000000 0.000000
vn 1.000000 0.000000 0.000000
vn 0.000000 0.000000 -1.000000
vn 0.000000 0.000000 -1.000000
vn 0.000000 0.000000 -1.000000
vn 0.000000 0.000000 -1.000000
vn 0.000000 0.000000 1.000000
vn 0.000000 0.000000 1.000000
vn -0.000000 0.000000 1.000000
vn 0.000000 0.000000 1.000000
vn 0.000000 0.000000 -1.000000
vn 0.000000 0.000000 -1.000000
vn -0.000000 0.000000 -1.000000
vn 0.000000 0.000000 -1.000000
vn 0.000000 0.000000 1.000000
vn 0.000000 0.000000 1.000000
vn 0.000002 0.000000 1.000000
vn 0.000000 0.000000 1.000000
vn 0.000000 1.000000 0.000000
vn 0.000000 1.000000 0.000000
vn 0.000000 1.000000 0.000000
vn 0.000000 1.000000 0.000000
vn 0.000000 -1.000000 0.000000
vn 0.000000 -1.000000 0.000000
vn 0.000000 -1.000000 0.000000
vn 0.000000 -1.000000 0.000000
vn -0.000003 0.000000 -1.000000
vn -0.000003 0.000000 -1.000000
vn -0.000003 0.000000 -1.000000
vn -0.000002 0.000000 -1.000000
vn -0.000002 0.000000 -1.000000
vn -0.000003 0.000000 -1.000000
vn 0.000002 0.000000 1.000000
vn 0.000002 0.000000 1.000000
vn 0.000002 0.000000 1.000000
vn 0.000002 0.000000 1.000000
vn -0.000002 0.000000 1.000000
vn 0.000002 0.000000 1.000000
vn 0.000000 1.000000 0.000000
vn 0.000000 1.000000 0.000000
vn 0.000000 1.000000 0.000000
vn 0.000000 1.000000 0.000000
vn 0.000000 -1.000000 0.000000
vn 0.000000 -1.000000 0.000000
vn 0.000000 -1.000000 0.000000
vn 0.000000 -1.000000 0.000000
vn 0.000000 -1.000000 0.000000
vn 0.000000 -1.000000 0.000000
vn 0.000000 -1.000000 0.000000
vn 0.000000 -1.000000 0.000000
vn 0.000000 -1.000000 -0.000000
vn 0.000000 -1.000000 -0.000000
vn 0.000000 -1.000000 -0.000000
vn 0.000000 -1.000000 -0.000000
vn 0.707107 0.000000 -0.707107
vn 0.707107 0.000000 -0.707107
vn 0.707108 0.000000 -0.707106
vn 0.707108 0.000000 -0.707106
vn 0.707108 0.000000 -0.707106
vn 0.707108 0.000000 -0.707106
vn 0.707107 0.000000 0.707107
vn 0.707107 0.000000 0.707107
vn 0.707108 0.000000 0.707106
vn 0.707108 0.000000 0.707106
vn 0.735429 0.002118 0.677598
vn 0.735278 0.002106 0.677763
vn 0.707106 0.000000 0.707107
vn 0.707106 0.000000 0.707107
vn 0.707105 0.000000 0.707109
vn 0.707105 0.000000 0.707109
vn 0.707108 0.000000 0.707105
vn 0.707108 0.000000 0.707105
vn 0.707106 0.000000 -0.707107
vn 0.707106 0.000000 -0.707107
vn 0.735275 0.002106 -0.677766
vn 0.735426 0.002118 -0.677602
vn 0.707108 0.000000 -0.707105
vn 0.707108 0.000000 -0.707105
vn 0.707107 0.000000 -0.707106
vn 0.707107 0.000000 -0.707106
vn 0.707109 -0.707105 0.000000
vn 0.707109 -0.707105 0.000000
vn 0.707109 -0.707105 0.000000
vn 0.707109 -0.707105 0.000000
vn 0.707104 0.000000 0.707110
vn 0.707104 0.000000 0.707110
vn 1.000000 0.000000 0.000000
vn 1.000000 0.000000 0.000000
vn 1.000000 0.000000 0.000000
vn 1.000000 0.000000 0.000000
vn 1.000000 0.000000 0.000000
vn 1.000000 0.000000 0.000000
vn 1.000000 0.000000 0.000000
vn 1.000000 0.000000 0.000000
vn 1.000000 -0.000000 -0.000000
vn 1.000000 -0.000000 -0.000000
vn 1.000000 -0.000002 -0.000000
vn 1.000000 -0.000001 -0.000000
vn 1.000000 -0.000002 0.000000
vn 1.000000 -0.000000 0.000000
vn 1.000000 -0.000000 0.000000
vn 1.000000 -0.000002 0.000000
vn 0.000000 0.000000 -1.000000
vn 0.000000 0.000000 -1.000000
vn 0.000000 0.000000 1.000000
vn 0.000000 0.000000 1.000000
vn 0.000000 0.000000 1.000000
vn 0.000000 0.000000 1.000000
vn 0.000000 0.000000 -1.000000
vn 0.000000 0.000000 -1.000000
vn 0.000000 0.000000 -1.000000
vn 0.000000 0.000000 -1.000000
vn 0.000000 -1.000000 0.000000
vn 0.000000 -1.000000 0.000000
vn 0.000000 -1.000000 0.000000
vn 0.000000 -1.000000 0.000000
vn 0.000002 0.000000 1.000000
vn -0.000005 0.000000 1.000000
vn 0.000000 0.000000 1.000000
vn 0.000000 0.000000 1.000000
vn 0.000000 0.000000 -1.000000
vn 0.000000 0.000000 -1.000000
vn -1.000000 0.000000 0.000000
vn -1.000000 0.000000 0.000000
vn -1.000000 0.000000 0.000000
vn -1.000000 0.000000 0.000000
vn -1.000000 0.000000 0.000000
vn -1.000000 0.000000 0.000000
vn -1.000000 0.000000 0.000000
vn -1.000000 0.000000 0.000000
vn -0.000007 0.000000 -1.000000
vn -0.000002 0.000000 -1.000000
vn -0.000012 0.000000 1.000000
vn 0.000001 0.000000 -1.000000
vn 0.000001 0.000000 -1.000000
vn -0.000000 0.000000 1.000000
vn -0.000003 0.000000 1.000000
vn -0.000003 0.000000 1.000000
vn -0.000003 0.000000 1.000000
vn 0.000000 0.000000 -1.000000
vn 0.000000 -0.707107 0.707107
vn 0.000000 -0.707107 0.707107
vn 0.000000 -0.707107 0.707107
vn 0.000000 -0.707107 0.707107
vn 0.707109 -0.707105 0.000000
vn 0.707109 -0.707105 0.000000
vn 0.707109 -0.707105 0.000000
vn 0.707109 -0.707105 0.000000
vn 0.707108 0.000000 0.707106
vn 0.707108 0.000000 0.707106
vn 0.707108 0.000000 0.707106
vn 0.707108 0.000000 0.707106
vn 0.000000 0.707106 0.707108
vn 0.000000 0.707106 0.707108
vn 0.000000 0.707106 0.707108
vn 0.000000 0.707106 0.707108
vn 0.707109 0.707105 0.000000
vn 0.707109 0.707105 0.000000
vn 0.707109 0.707105 0.000000
vn 0.707109 0.707105 0.000000
vn 0.000000 0.707106 -0.707108
vn 0.000000 0.707106 -0.707108
vn 0.000000 0.707106 -0.707108
vn 0.000000 0.707106 -0.707108
vn 0.707106 0.000000 -0.707107
vn 0.707106 0.000000 -0.707107
vn 0.707106 0.000000 -0.707107
vn 0.707106 0.000000 -0.707107
vn 0.000000 -0.707107 -0.707107
vn 0.000000 -0.707107 -0.707107
vn 0.000000 -0.707107 -0.707107
vn 0.000000 -0.707107 -0.707107
vn 0.707105 0.707109 0.000000
vn 0.707105 0.707109 0.000000
vn 0.707105 0.707109 0.000000
vn 0.707105 0.707109 0.000000
vn 0.707105 -0.707109 0.000000
vn 0.707105 -0.707109 0.000000
vn 0.707105 -0.707109 0.000000
vn 0.707105 -0.707109 0.000000
vn 0.707106 0.707108 0.000000
vn 0.707106 0.707108 0.000000
vn 0.707106 0.707108 0.000000
vn 0.707106 0.707108 0.000000
vn 0.707106 -0.707108 0.000000
vn 0.707106 -0.707108 0.000000
vn 0.707106 -0.707108 0.000000
vn 0.707106 -0.707108 0.000000
vn 0.000000 0.000000 1.000000
vn 0.000000 0.000000 1.000000
vn 0.000000 0.000000 1.000000
vn 0.000000 0.000000 1.000000
vn 0.000000 1.000000 0.000000
vn 0.000000 1.000000 0.000000
vn 0.000000 1.000000 0.000000
vn 0.000000 1.000000 0.000000
vn 0.000000 0.000000 -1.000000
vn 0.000000 0.000000 -1.000000
vn 0.000000 0.000000 -1.000000
vn 0.000000 0.000000 -1.000000
vn 0.000000 -1.000000 0.000000
vn 0.000000 -1.000000 0.000000
vn 0.000000 -1.000000 0.000000
vn 0.000000 -1.000000 0.000000
vn 1.000000 0.000000 0.000000
vn 1.000000 0.000000 0.000000
vn 1.000000 0.000000 0.000000
vn 1.000000 0.000000 0.000000
vn 0.577347 -0.577358 0.577347
vn 0.577347 -0.577358 0.577347
vn 0.577347 -0.577358 0.577347
vn 0.577345 0.577356 0.577350
vn 0.577345 0.577356 0.577350
vn 0.577345 0.577356 0.577350
vn 0.577345 0.577356 -0.577350
vn 0.577345 0.577356 -0.577350
vn 0.577345 0.577356 -0.577350
vn 0.577347 -0.577358 -0.577347
vn 0.577347 -0.577358 -0.577347
vn 0.577347 -0.577358 -0.577347
vn 0.816437 0.408308 0.408308
vn 0.816437 0.408308 0.408308
vn 0.816437 0.408308 0.408308
vn 0.000000 0.707108 0.707106
vn 0.000000 0.707108 0.707106
vn 0.000000 0.707108 0.707106
vn 0.000000 0.707108 0.707106
vn 0.000000 0.707108 -0.707106
vn 0.000000 0.707108 -0.707106
vn 0.000000 0.707108 -0.707106
vn 0.000000 0.707108 -0.707106
vn 0.816436 0.408309 -0.408309
vn 0.816436 0.408309 -0.408309
vn 0.816436 0.408309 -0.408309
vn 0.782730 0.005874 0.622334
vn 0.782730 0.005874 0.622334
vn 0.831139 0.556065 0.000000
vn 0.831139 0.556065 0.000000
vn 0.831139 0.556065 0.000000
vn 0.831139 0.556065 0.000000
vn 0.782727 0.005874 -0.622337
vn 0.782727 0.005874 -0.622337
vn 0.000000 1.000000 0.000000
vn 0.000000 1.000000 0.000000
vn 0.000000 1.000000 0.000000
vn 0.000000 1.000000 0.000000
vn 0.000000 0.000000 1.000000
vn 0.000000 0.000000 1.000000
vn 0.000000 0.000000 -1.000000
vn 0.000000 0.000000 -1.000000
s 1
g ENV_Building_Door00
usemtl lambert6SG
f 2/1/1 3/5/2 5/132/3 1/131/4
s off
f 17/99/5 18/100/6 5/109/7 3/110/8
f 6/108/9 7/106/10 10/105/11 4/107/12
f 69/145/13 67/20/14 71/143/15 74/22/16
f 12/104/17 11/103/18 14/102/19 13/101/20
f 84/137/21 78/28/22 85/135/23 87/30/24
s 2
f 5/6/25 18/156/26 86/136/27 20/32/28
s 3
f 17/7/29 3/130/30 30/33/31 88/34/32
s 2
f 7/16/33 6/157/34 35/35/35 68/36/36
s 3
f 4/18/37 10/153/38 70/146/39 38/38/40
s off
f 10/17/41 7/154/42 68/147/43 70/37/44
f 11/24/45 12/151/46 75/141/47 73/40/48
s 2
f 14/25/49 11/152/50 73/144/51 72/41/52 80/42/53 79/43/54
s 3
f 12/23/55 13/149/56 83/138/57 82/45/58 76/46/59 75/39/60
s off
f 13/26/61 14/150/62 79/139/63 83/44/64
f 18/8/65 17/155/66 88/133/67 86/31/68
s 1
f 1/131/4 5/132/3 20/127/69 19/128/70 24/126/71 23/121/72
f 3/5/2 2/1/1 34/117/73 33/123/74 29/124/75 30/125/76
s 8
f 19/47/77 20/32/78 22/53/79 21/54/80
f 21/54/80 22/53/79 39/55/81 40/56/82
s 9
f 23/49/83 24/48/84 26/57/85 25/120/86
f 25/120/86 26/57/85 41/59/87 42/60/88
s 10
f 27/61/89 28/62/90 43/63/91 44/64/92
f 28/62/90 27/61/89 30/33/93 29/52/94
s 11
f 31/65/95 32/119/96 45/111/97 46/68/98
f 32/119/96 31/65/95 33/51/99 34/118/100
s 8
f 35/35/101 36/162/102 40/56/82 39/55/81
s off
f 36/69/103 35/166/104 38/165/105 37/163/106
s 10
f 37/70/107 38/38/108 44/64/92 43/63/91
s 12
f 26/57/109 24/48/110 19/47/111 21/54/112
f 31/65/113 28/62/114 29/52/115 33/51/116
f 41/59/117 40/56/118 36/162/119 89/161/120
f 37/70/121 43/63/122 46/68/123 94/72/124
f 26/57/109 21/54/112 40/56/118 41/59/117
f 43/63/122 28/62/114 31/65/113 46/68/123
s 2
f 20/32/28 85/29/125 22/53/126
s 14
f 15/3/127 1/2/128 23/122/129 25/58/130
s 15
f 2/129/131 16/4/132 32/66/133 34/50/134
s off
f 6/15/135 4/158/136 38/165/137 35/166/138
s 3
f 38/38/40 69/19/139 44/64/140
s 14
f 8/10/141 15/3/127 25/58/130 42/116/142
s 15
f 16/4/132 9/9/143 45/67/144 32/66/133
s off
f 63//145 62//146 47//147 48//148 53//149 52//150 58//151 57//152
s 2
f 67/148/153 35/35/35 39/55/154
s 3
f 69/19/139 74/142/155 44/64/140
s 2
f 71/21/156 67/148/153 39/55/154
s 3
f 74/142/155 76/46/59 82/45/58 44/64/140
s 2
f 77/81/157 80/42/53 39/55/154 22/53/126
s 3
f 81/82/158 84/27/159 87/134/160 30/33/31 27/61/161
s 2
f 85/29/125 78/140/162 77/81/157 22/53/126
s off
f 48/76/163 47/170/164 51/83/165 50/84/166
f 49/85/167 51/83/168 64/86/169 66/87/170
f 50/84/171 49/85/172 56/88/173 55/89/174
f 52/78/175 53/77/176 55/89/177 54/90/178
f 54/90/179 56/88/180 61/91/181 60/92/182
f 57/80/183 58/167/184 60/92/185 59/93/186
f 59/93/187 61/91/188 66/87/189 65/94/190
f 62/74/191 63/73/192 65/94/193 64/86/194
f 68/147/195 67/20/196 69/145/197 70/37/198
f 71/143/199 73/40/200 75/141/201 74/22/202
f 79/139/203 78/28/204 84/137/205 83/44/206
f 85/135/207 86/31/208 88/133/209 87/30/210
f 48/76/211 50/84/212 55/89/213 53/77/214
f 52/168/215 54/90/216 60/92/217 58/79/218
f 57/80/219 59/93/220 65/94/221 63/73/222
f 62/169/223 64/86/224 51/83/225 47/75/226
f 49/85/227 66/87/228 61/91/229 56/88/230
f 49/85/231 50/84/232 51/83/233
f 54/90/234 55/89/235 56/88/236
f 59/93/237 60/92/238 61/91/239
f 64/86/240 65/94/241 66/87/242
s 2
f 67/148/153 68/36/36 35/35/35
s 3
f 69/19/139 38/38/40 70/146/39
s 2
f 71/21/156 72/41/52 73/144/51
s 3
f 74/142/155 75/39/60 76/46/59
s 2
f 77/81/157 78/140/162 79/43/54 80/42/53
s 3
f 81/82/158 82/45/58 83/138/57 84/27/159
s 2
f 85/29/125 20/32/28 86/136/27
s 3
f 30/33/31 87/134/160 88/34/32
s 2
f 39/55/154 80/42/53 72/41/52 71/21/156
s 3
f 44/64/140 82/45/58 81/82/158 27/61/161
s 12
f 89/71/120 36/69/119 37/163/121 94/164/124
s off
f 89/71/243 91/95/244 90/115/245
f 90/96/246 91/114/247 95/12/248 96/11/249
f 92/97/250 93/112/251 97/14/252 98/13/253
f 93/159/254 92/113/255 94/164/256
s 9
f 89/161/257 90/160/258 42/60/88 41/59/87
s off
f 91/95/259 89/71/260 94/164/261 92/113/262
s 11
f 93/98/263 94/72/264 46/68/98 45/111/97
s off
f 92/97/265 98/13/266 95/12/267 91/114/268
s 14
f 90/96/269 96/11/270 8/10/141 42/116/142
s 15
f 9/9/143 97/14/271 93/112/272 45/67/144
