# Blender v2.90.0 OBJ File: 'Tempel.blend'
# www.blender.org
mtllib _empelPlane.mtl
o Plane
v 0.093744 -0.030886 0.008642
v -0.104262 -0.030886 0.008642
v 0.093744 -0.008936 0.191273
v -0.104262 -0.008936 0.191273
v 0.093744 -0.060999 -0.143117
v -0.104262 -0.060999 -0.143117
v 0.093744 -0.095583 -0.313971
v -0.104262 -0.095583 -0.313971
vt 0.000060 0.358599
vt 0.358599 0.358599
vt 0.358599 0.000060
vt 0.000060 0.000060
vt 0.000060 0.660166
vt 0.358599 0.660166
vt 0.000060 0.999940
vt 0.358599 0.999940
vn 0.0000 0.9929 -0.1193
vn 0.0000 0.9809 -0.1946
vn 0.0000 0.9801 -0.1984
usemtl None
s off
f 1/1/1 2/2/1 4/3/1 3/4/1
f 2/2/2 1/1/2 5/5/2 6/6/2
f 6/6/3 5/5/3 7/7/3 8/8/3
