# Blender v2.90.0 OBJ File: 'Tempel.blend'
# www.blender.org
mtllib _empelPlane.mtl
o Plane
v 0.093744 -0.030886 0.008642
v -0.104262 -0.030886 0.008642
v 0.093744 -0.008936 0.191273
v -0.104262 -0.008936 0.191273
v 0.093744 -0.060999 -0.143117
v -0.104262 -0.060999 -0.143117
v 0.093744 -0.095583 -0.313971
v -0.104262 -0.095583 -0.313971
v 0.093744 -0.008936 0.791651
v -0.104262 -0.008936 0.791651
v 0.255292 -0.008936 0.232255
v 0.301687 -0.008936 0.791651
v -0.104262 -0.008936 0.411817
v 0.093744 -0.008936 0.411817
v 0.301687 -0.008936 0.411817
v 0.475446 -0.008936 0.791651
v 0.475446 -0.008936 0.411817
v -0.294955 -0.008936 0.791651
v -0.294955 -0.008936 0.411817
v -0.224496 -0.008936 0.233639
vt 0.295567 0.318523
vt 0.295567 0.483714
vt 0.460758 0.483714
vt 0.460758 0.318523
vt 0.156625 0.318523
vt 0.156625 0.483714
vt 0.000080 0.318523
vt 0.000080 0.483714
vt 0.658814 0.483714
vt 0.999920 0.483714
vt 0.999920 0.318523
vt 0.658814 0.318523
vt 0.658814 0.145042
vt 0.497560 0.183749
vt 0.999920 0.145042
vt 0.999920 0.000080
vt 0.658814 0.000080
vt 0.658814 0.642803
vt 0.999920 0.642803
vt 0.498804 0.584021
vn 0.0000 0.9929 -0.1193
vn 0.0000 0.9809 -0.1946
vn 0.0000 0.9801 -0.1984
vn 0.0000 1.0000 0.0000
usemtl None
s off
f 1/1/1 2/2/1 4/3/1 3/4/1
f 2/2/2 1/1/2 5/5/2 6/6/2
f 6/6/3 5/5/3 7/7/3 8/8/3
f 13/9/4 10/10/4 9/11/4 14/12/4
f 14/12/4 15/13/4 11/14/4 3/4/4
f 9/11/4 12/15/4 15/13/4 14/12/4
f 4/3/4 13/9/4 14/12/4 3/4/4
f 12/15/4 16/16/4 17/17/4 15/13/4
f 13/9/4 19/18/4 18/19/4 10/10/4
f 4/3/4 20/20/4 19/18/4 13/9/4
